<?xml version="1.0" standalone="no"?>
<!DOCTYPE svg PUBLIC "-//W3C//DTD SVG 1.1//EN" "http://www.w3.org/Graphics/SVG/1.1/DTD/svg11.dtd" >
<svg xmlns="http://www.w3.org/2000/svg" xmlns:xlink="http://www.w3.org/1999/xlink" version="1.1">
<metadata>
Created by FontForge 20170731 at Mon Jan 30 17:52:53 2017
 By Aleksey,,,
(c) 2016 Microsoft Corporation. All Rights Reserved. 
</metadata>
<defs>
<font id="SegoeUI-Bold" horiz-adv-x="0" >
  <font-face 
    font-family="Segoe UI"
    font-weight="700"
    font-stretch="normal"
    units-per-em="2048"
    panose-1="2 11 8 2 4 2 4 2 2 3"
    ascent="1638"
    descent="-410"
    x-height="1024"
    cap-height="1434"
    bbox="-1173 -882 4094 2659"
    underline-thickness="119"
    underline-position="-355"
    unicode-range="U+000D-FFFD"
  />
<missing-glyph horiz-adv-x="1322" 
d="M166 0v1398h990v-1398h-990zM314 148h694v1102h-694v-1102z" />
    <glyph glyph-name="uniFB4F" unicode="&#x5d0;&#x200d;&#x5dc;" horiz-adv-x="1343" 
d="M755 658q79 63 109.5 122t30.5 166v283h318v-307q0 -137 -67.5 -245t-234.5 -220q75 -99 338 -457h-390q-76 108 -195 264l-190 248q-59 76 -103 130.5t-321 375.5v678h323v-567q94 -109 173.5 -209t208.5 -262z" />
    <glyph glyph-name="uniFDF2" unicode="&#x627;&#xfedf;&#xfee0;&#x651;&#x670;&#xfeea;" horiz-adv-x="2565" arabic-form="isolated" 
d="M983 -25q-51 0 -98.5 9t-88 30.5t-73 59t-54.5 94.5q-39 -9 -77.5 -14t-76.5 -5q-77 0 -146 21t-121 63t-82.5 105.5t-30.5 149.5q0 100 41.5 180t111 140t161 99t192.5 57v123h213v-660q0 -45 3.5 -79t18.5 -56.5t45 -33.5t82 -11q38 0 66.5 4t47.5 18t28.5 40.5
t9.5 70.5v886h213v-817q0 -51 2.5 -88.5t16.5 -63t44 -38t84 -12.5q38 0 66.5 4.5t48 18.5t29 40t9.5 70v1036h213v-1043q0 -122 -31 -199.5t-83 -121.5t-120.5 -60.5t-143.5 -16.5q-87 0 -154 27.5t-96 87.5h-6q-26 -35 -58 -57t-67 -35t-71 -18t-68 -5zM641 705
q-61 -12 -115 -28t-95 -39t-65 -54t-24 -73q0 -33 14.5 -53t38.5 -31.5t55 -15t64 -3.5t64 3.5t63 11.5v282zM1256 1448q-23 -27 -59.5 -39.5t-78.5 -12.5q-50 0 -84.5 17t-56 47t-31 71t-9.5 88q0 15 1 33t3 32h133q-3 -30 -4 -47.5t-1 -24.5q0 -48 16 -75t52 -27
q35 0 48.5 28.5t13.5 94.5v23t-1 28h133q-1 -16 -1.5 -34.5t-0.5 -32.5q0 -54 13.5 -80.5t50.5 -26.5q38 0 52.5 27.5t14.5 75.5q0 17 -1.5 35.5t-3.5 35.5h133q2 -14 2.5 -29.5t0.5 -24.5q0 -112 -54 -173t-148 -61q-40 0 -74 12.5t-55 39.5h-4zM1336 1750h-147v352h147
v-352zM2181 0v1516h213v-1516h-213z" />
    <glyph glyph-name="uniFEDF_uniFEE0_uni0651_uni0670_uniFEEA.liga" unicode="&#xfedf;&#xfee0;&#x651;&#x670;&#xfeea;" horiz-adv-x="2052" 
d="M983 -25q-51 0 -98.5 9t-88 30.5t-73 59t-54.5 94.5q-39 -9 -77.5 -14t-76.5 -5q-77 0 -146 21t-121 63t-82.5 105.5t-30.5 149.5q0 100 41.5 180t111 140t161 99t192.5 57v123h213v-660q0 -45 3.5 -79t18.5 -56.5t45 -33.5t82 -11q38 0 66.5 4t47.5 18t28.5 40.5
t9.5 70.5v886h213v-817q0 -51 2.5 -88.5t16.5 -63t44 -38t84 -12.5q38 0 66.5 4.5t48 18.5t29 40t9.5 70v1036h213v-1043q0 -122 -31 -199.5t-83 -121.5t-120.5 -60.5t-143.5 -16.5q-87 0 -154 27.5t-96 87.5h-6q-26 -35 -58 -57t-67 -35t-71 -18t-68 -5zM641 705
q-61 -12 -115 -28t-95 -39t-65 -54t-24 -73q0 -33 14.5 -53t38.5 -31.5t55 -15t64 -3.5t64 3.5t63 11.5v282zM1256 1448q-23 -27 -59.5 -39.5t-78.5 -12.5q-50 0 -84.5 17t-56 47t-31 71t-9.5 88q0 15 1 33t3 32h133q-3 -30 -4 -47.5t-1 -24.5q0 -48 16 -75t52 -27
q35 0 48.5 28.5t13.5 94.5v23t-1 28h133q-1 -16 -1.5 -34.5t-0.5 -32.5q0 -54 13.5 -80.5t50.5 -26.5q38 0 52.5 27.5t14.5 75.5q0 17 -1.5 35.5t-3.5 35.5h133q2 -14 2.5 -29.5t0.5 -24.5q0 -112 -54 -173t-148 -61q-40 0 -74 12.5t-55 39.5h-4zM1336 1750h-147v352h147
v-352z" />
    <glyph glyph-name="uni0620.init" unicode="&#x620;" horiz-adv-x="684" 
d="M132 -25h-132q-35 0 -52.5 36.5t-17.5 99.5t17.5 99.5t52.5 36.5h142q40 0 70 3t49.5 16t29 39.5t9.5 74.5v475h213v-482q0 -122 -31.5 -199.5t-84 -121.5t-121.5 -60.5t-144 -16.5zM285 71q36 0 67 -13t54 -36t36.5 -55t13.5 -69q0 -35 -13.5 -65.5t-36.5 -53.5
t-54 -36.5t-67 -13.5q-38 0 -70 13.5t-55 36.5t-36.5 53.5t-13.5 65.5q0 37 13 69t36 55t55 36t71 13zM285 -186q33 0 54 24.5t21 59.5q0 38 -21 63t-54 25q-35 0 -57 -25t-22 -63q0 -35 22 -59.5t57 -24.5z" />
    <glyph glyph-name="uni0620.medi" unicode="&#x620;" horiz-adv-x="684" 
d="M132 -25h-132q-35 0 -52.5 36.5t-17.5 99.5t17.5 99.5t52.5 36.5h142q43 0 73 3.5t49 16.5t27.5 39.5t8.5 73.5v475h213v-406q0 -52 3 -90t19.5 -63t51 -37t97.5 -12v-272h-46q-87 0 -149 27.5t-91 87.5h-6q-26 -35 -58 -57t-66.5 -35t-69.5 -18t-66 -5zM275 71
q36 0 67 -13t54 -36t36.5 -55t13.5 -69q0 -35 -13.5 -65.5t-36.5 -53.5t-54 -36.5t-67 -13.5q-38 0 -70 13.5t-55 36.5t-36.5 53.5t-13.5 65.5q0 37 13 69t36 55t55 36t71 13zM275 -186q33 0 54 24.5t21 59.5q0 38 -21 63t-54 25q-35 0 -57 -25t-22 -63q0 -35 22 -59.5
t57 -24.5z" />
    <glyph glyph-name="uni0620.fina" unicode="&#x620;" horiz-adv-x="1710" 
d="M1710 247v-272h-21q-92 0 -155.5 27.5t-108.5 68.5t-75 89t-56 89t-51.5 68.5t-60.5 27.5q-23 0 -37 -15.5t-14 -38.5t14 -43.5t33 -45.5q49 -65 49 -141q0 -90 -47.5 -154t-125 -104.5t-176 -59t-201.5 -18.5q-158 0 -263.5 44.5t-169 118.5t-90 170t-26.5 199
q0 82 13 163.5t33 156.5h216q-22 -78 -35 -146t-13 -144q0 -62 15.5 -115.5t56 -93t111.5 -62t182 -22.5q69 0 126.5 3.5t98.5 14t64 29t23 47.5q0 36 -16.5 64t-36.5 58q-41 63 -41 136q0 52 19.5 98t54 80t82.5 54t105 20q59 0 99 -15t68.5 -40t48 -56.5t38 -64t39 -64
t51 -56.5t73.5 -40t107 -15zM772 -186q36 0 67 -13t54 -36t36.5 -55t13.5 -69q0 -35 -13.5 -65.5t-36.5 -53.5t-54 -36.5t-67 -13.5q-38 0 -70 13.5t-55 36.5t-36.5 53.5t-13.5 65.5q0 37 13 69t36 55t55 36t71 13zM772 -443q33 0 54 24.5t21 59.5q0 38 -21 63t-54 25
q-35 0 -57 -25t-22 -63q0 -35 22 -59.5t57 -24.5z" />
    <glyph glyph-name="uni0621" unicode="&#x621;" horiz-adv-x="855" arabic-form="isolated" 
d="M188 258l3 5q-27 48 -38.5 95t-11.5 92q0 72 28.5 134t81.5 107.5t129 71.5t171 26q35 0 65 -3.5t68 -10.5v-273q-29 6 -69.5 11.5t-82.5 5.5q-35 0 -67.5 -5.5t-57.5 -20t-40.5 -39t-15.5 -62.5q0 -35 12.5 -59t34 -38.5t51 -20.5t64.5 -6h248v-268h-658l-50 258h135z
" />
    <glyph glyph-name="uni0622" unicode="&#x622;" horiz-adv-x="513" arabic-form="isolated" 
d="M129 0v1516h213v-1516h-213zM605 1711q-28 -30 -55 -48t-51.5 -27.5t-47 -13t-42.5 -3.5q-52 0 -98 14.5t-89 32.5t-83.5 32.5t-80.5 14.5q-26 0 -51.5 -14t-56.5 -41l-79 90q28 30 54.5 48t51.5 27.5t47.5 13t42.5 3.5q52 0 98 -14.5t89 -32.5t83 -32.5t80 -14.5
q29 0 53.5 13t55.5 42z" />
    <glyph glyph-name="uni0623" unicode="&#x623;" horiz-adv-x="513" arabic-form="isolated" 
d="M129 0v1516h213v-1516h-213zM378 1896q-23 5 -43.5 8t-32.5 3q-37 0 -61.5 -15.5t-24.5 -53.5t28 -57t80 -19h100v-115h-377v109h80l1 4q-20 26 -30.5 50.5t-10.5 51.5q0 36 15 65.5t42.5 51.5t66 34t85.5 12q34 0 82 -9v-120z" />
    <glyph glyph-name="uni0624" unicode="&#x624;" horiz-adv-x="1026" arabic-form="isolated" 
d="M0 -174q53 -20 99 -34t87 -23t78.5 -13t73.5 -4q83 0 138 21.5t89 57t50.5 82t22.5 97.5q-69 -25 -143 -25q-63 0 -127.5 18.5t-116 60t-84.5 108.5t-33 163q0 81 27 162.5t73.5 146t108.5 105t133 40.5q78 0 141 -44.5t120 -135.5q60 -94 89 -222t29 -274
q0 -132 -30 -248t-93 -202.5t-160.5 -136.5t-233.5 -50q-41 0 -81 4.5t-81 14.5t-84.5 24t-91.5 34v273zM468 511q-28 0 -51 -17.5t-39.5 -43t-26 -53.5t-9.5 -49q0 -32 13.5 -53t36.5 -33.5t53.5 -18t63.5 -5.5q31 0 64 5.5t60 16.5q-8 37 -23.5 80.5t-37 81.5t-48 63.5
t-56.5 25.5zM616 1303q-23 5 -43.5 8t-32.5 3q-37 0 -61.5 -15.5t-24.5 -53.5t28 -57t80 -19h100v-115h-377v109h80l1 4q-20 26 -30.5 50.5t-10.5 51.5q0 36 15 65.5t42.5 51.5t66 34t85.5 12q34 0 82 -9v-120z" />
    <glyph glyph-name="uni0625" unicode="&#x625;" horiz-adv-x="513" arabic-form="isolated" 
d="M129 0v1516h213v-1516h-213zM378 -273q-23 5 -43.5 8t-32.5 3q-37 0 -61.5 -15.5t-24.5 -53.5t28 -57t80 -19h100v-115h-377v109h80l1 4q-20 26 -30.5 50.5t-10.5 51.5q0 36 15 65.5t42.5 51.5t66 34t85.5 12q34 0 82 -9v-120z" />
    <glyph glyph-name="uni0626" unicode="&#x626;" horiz-adv-x="1539" arabic-form="isolated" 
d="M1426 885q-103 -14 -183.5 -29t-135.5 -33.5t-84 -41.5t-29 -54q0 -21 13 -36.5t35.5 -29t51.5 -27t61 -28.5q49 -24 88.5 -49.5t67 -57.5t42.5 -72t15 -92q0 -95 -49.5 -187.5t-140.5 -166t-221 -118.5t-290 -45q-148 0 -251.5 39t-168.5 109.5t-94.5 168.5t-29.5 217
q0 103 22.5 207t60.5 219h213q-20 -74 -34.5 -132t-24 -105.5t-14 -87t-4.5 -77.5q0 -52 11.5 -102.5t48 -91t104 -65.5t179.5 -25q91 0 176.5 17t151.5 44t105.5 61t39.5 69q0 22 -15 39t-39 31t-53 27t-57 27q-42 21 -79 48t-65 62t-44.5 80.5t-16.5 103.5q0 93 44 167.5
t126.5 131t200.5 94.5t266 58v-267zM445 1219q-23 5 -43.5 8t-32.5 3q-37 0 -61.5 -15.5t-24.5 -53.5t28 -57t80 -19h100v-115h-377v109h80l1 4q-20 26 -30.5 50.5t-10.5 51.5q0 36 15 65.5t42.5 51.5t66 34t85.5 12q34 0 82 -9v-120z" />
    <glyph glyph-name="uni0627" unicode="&#x627;" horiz-adv-x="513" arabic-form="isolated" 
d="M129 0v1516h213v-1516h-213z" />
    <glyph glyph-name="uni0628" unicode="&#x628;" horiz-adv-x="1881" arabic-form="isolated" 
d="M1497 855h213v-468q0 -97 -27.5 -166t-77.5 -115.5t-120.5 -74t-157.5 -42t-187 -18.5t-210 -4q-116 0 -218 2t-188 12.5t-155 31.5t-118 60q-36 28 -60.5 65t-39.5 79t-21.5 87t-6.5 90q0 70 10.5 137t27.5 133h214q-8 -37 -14.5 -66.5t-10.5 -55t-6 -49.5t-2 -49
q0 -43 10.5 -79t48.5 -65q30 -23 75.5 -35.5t114.5 -19.5t164.5 -8.5t224.5 -1.5q156 0 256.5 3.5t158 19t80 47.5t22.5 89v461zM1059 -371h-235v211h235v-211z" />
    <glyph glyph-name="uni0629" unicode="&#x629;" horiz-adv-x="1026" arabic-form="isolated" 
d="M268 920l142 180q125 -86 214.5 -179t146.5 -188.5t84 -191.5t27 -188q0 -85 -26 -154.5t-75 -119t-119.5 -77t-158.5 -27.5q-86 0 -153 23.5t-113 68t-70 107.5t-24 142q0 86 20.5 164t54 144t75.5 120t84 92q-25 21 -52 42t-57 42zM351 352q0 -32 12.5 -52t33.5 -32
t49.5 -16.5t60.5 -4.5q87 0 126.5 28t39.5 80q0 73 -36.5 159t-114.5 180q-35 -29 -66.5 -67.5t-54.5 -83t-36.5 -93.5t-13.5 -98zM460 1267h-235v211h235v-211zM802 1267h-235v211h235v-211z" />
    <glyph glyph-name="uni062A" unicode="&#x62a;" horiz-adv-x="1881" arabic-form="isolated" 
d="M1497 855h213v-468q0 -97 -27.5 -166t-77.5 -115.5t-120.5 -74t-157.5 -42t-187 -18.5t-210 -4q-116 0 -218 2t-188 12.5t-155 31.5t-118 60q-36 28 -60.5 65t-39.5 79t-21.5 87t-6.5 90q0 70 10.5 137t27.5 133h214q-8 -37 -14.5 -66.5t-10.5 -55t-6 -49.5t-2 -49
q0 -43 10.5 -79t48.5 -65q30 -23 75.5 -35.5t114.5 -19.5t164.5 -8.5t224.5 -1.5q156 0 256.5 3.5t158 19t80 47.5t22.5 89v461zM888 1056h-235v211h235v-211zM1230 1056h-235v211h235v-211z" />
    <glyph glyph-name="uni062B" unicode="&#x62b;" horiz-adv-x="1881" arabic-form="isolated" 
d="M1497 855h213v-468q0 -97 -27.5 -166t-77.5 -115.5t-120.5 -74t-157.5 -42t-187 -18.5t-210 -4q-116 0 -218 2t-188 12.5t-155 31.5t-118 60q-36 28 -60.5 65t-39.5 79t-21.5 87t-6.5 90q0 70 10.5 137t27.5 133h214q-8 -37 -14.5 -66.5t-10.5 -55t-6 -49.5t-2 -49
q0 -43 10.5 -79t48.5 -65q30 -23 75.5 -35.5t114.5 -19.5t164.5 -8.5t224.5 -1.5q156 0 256.5 3.5t158 19t80 47.5t22.5 89v461zM887 1056h-235v211h235v-211zM1230 1056h-235v211h235v-211zM1059 1336h-235v211h235v-211z" />
    <glyph glyph-name="uni062C" unicode="&#x62c;" horiz-adv-x="1197" arabic-form="isolated" 
d="M703 642q-29 19 -56.5 31.5t-56.5 20t-62 10.5t-73 3q-73 0 -147 -9t-137 -26v252q66 20 127 31t130 11q75 0 132 -12.5t106 -31.5t94 -41t96.5 -41.5t114 -32.5t145.5 -14l-51 -287q-147 -40 -257.5 -81.5t-190.5 -84t-133 -86t-84.5 -86t-44.5 -84t-13 -81.5
q0 -45 17 -92.5t59.5 -86.5t115.5 -64t184 -25q94 0 192 20t217 63v-260q-63 -22 -117.5 -37.5t-104.5 -25.5t-98 -14.5t-98 -4.5q-146 0 -255 36.5t-181 102.5t-108 158t-36 203q0 91 26.5 185t92 181t176 162t279.5 129v9zM890 -39h-235v211h235v-211z" />
    <glyph glyph-name="uni062D" unicode="&#x62d;" horiz-adv-x="1197" arabic-form="isolated" 
d="M703 642q-29 19 -56.5 31.5t-56.5 20t-62 10.5t-73 3q-73 0 -147 -9t-137 -26v252q66 20 127 31t130 11q75 0 132 -12.5t106 -31.5t94 -41t96.5 -41.5t114 -32.5t145.5 -14l-51 -287q-147 -40 -257.5 -81.5t-190.5 -84t-133 -86t-84.5 -86t-44.5 -84t-13 -81.5
q0 -45 17 -92.5t59.5 -86.5t115.5 -64t184 -25q94 0 192 20t217 63v-260q-63 -22 -117.5 -37.5t-104.5 -25.5t-98 -14.5t-98 -4.5q-146 0 -255 36.5t-181 102.5t-108 158t-36 203q0 91 26.5 185t92 181t176 162t279.5 129v9z" />
    <glyph glyph-name="uni062E" unicode="&#x62e;" horiz-adv-x="1197" arabic-form="isolated" 
d="M703 642q-29 19 -56.5 31.5t-56.5 20t-62 10.5t-73 3q-73 0 -147 -9t-137 -26v252q66 20 127 31t130 11q75 0 132 -12.5t106 -31.5t94 -41t96.5 -41.5t114 -32.5t145.5 -14l-51 -287q-147 -40 -257.5 -81.5t-190.5 -84t-133 -86t-84.5 -86t-44.5 -84t-13 -81.5
q0 -45 17 -92.5t59.5 -86.5t115.5 -64t184 -25q94 0 192 20t217 63v-260q-63 -22 -117.5 -37.5t-104.5 -25.5t-98 -14.5t-98 -4.5q-146 0 -255 36.5t-181 102.5t-108 158t-36 203q0 91 26.5 185t92 181t176 162t279.5 129v9zM748 1146h-235v211h235v-211z" />
    <glyph glyph-name="uni062F" unicode="&#x62f;" horiz-adv-x="1026" arabic-form="isolated" 
d="M392 -29q-57 0 -134 6.5t-165 22.5l-54 275q112 -16 203.5 -24t163.5 -8q103 0 157.5 27t54.5 99q0 70 -28 144.5t-79 157.5t-121.5 176t-155.5 201h279q80 -90 143.5 -178.5t107.5 -174.5t67.5 -171t23.5 -167q0 -114 -36 -189t-98.5 -118.5t-147 -61t-181.5 -17.5z" />
    <glyph glyph-name="uni0630" unicode="&#x630;" horiz-adv-x="1026" arabic-form="isolated" 
d="M392 -29q-57 0 -134 6.5t-165 22.5l-54 275q112 -16 203.5 -24t163.5 -8q103 0 157.5 27t54.5 99q0 70 -28 144.5t-79 157.5t-121.5 176t-155.5 201h279q80 -90 143.5 -178.5t107.5 -174.5t67.5 -171t23.5 -167q0 -114 -36 -189t-98.5 -118.5t-147 -61t-181.5 -17.5z
M485 1257h-235v211h235v-211z" />
    <glyph glyph-name="uni0631" unicode="&#x631;" horiz-adv-x="855" arabic-form="isolated" 
d="M0 -211q69 -20 115.5 -28.5t85.5 -8.5q81 0 132 28.5t80 76.5t39.5 111t10.5 133q0 67 -9 133.5t-27 138.5t-44.5 152t-60.5 175h236q31 -77 54.5 -156t39.5 -158t24 -155t8 -146q0 -159 -38.5 -274t-104 -189.5t-151.5 -110t-182 -35.5q-48 0 -96.5 9.5t-111.5 32.5v271
z" />
    <glyph glyph-name="uni0632" unicode="&#x632;" horiz-adv-x="855" arabic-form="isolated" 
d="M0 -211q69 -20 115.5 -28.5t85.5 -8.5q81 0 132 28.5t80 76.5t39.5 111t10.5 133q0 67 -9 133.5t-27 138.5t-44.5 152t-60.5 175h236q31 -77 54.5 -156t39.5 -158t24 -155t8 -146q0 -159 -38.5 -274t-104 -189.5t-151.5 -110t-182 -35.5q-48 0 -96.5 9.5t-111.5 32.5v271
zM528 915h-235v211h235v-211z" />
    <glyph glyph-name="uni0633" unicode="&#x633;" horiz-adv-x="2394" arabic-form="isolated" 
d="M1189 28q-20 -276 -154.5 -414t-402.5 -138q-137 0 -232.5 35.5t-156 104t-88 169.5t-27.5 233q0 36 2 72t6.5 76t11.5 86t18 101h209q-10 -62 -16.5 -109t-10 -83.5t-5 -65t-1.5 -54.5q0 -74 13 -129t46 -91t90 -53.5t145 -17.5q101 0 169 23.5t108.5 73t57.5 125.5
t17 181q0 43 -2.5 87.5t-8.5 99t-14.5 124.5t-20.5 163h214q11 -96 20 -166.5t15 -127.5q3 -28 13.5 -45t30 -26t48.5 -12t68 -3q28 0 54 3.5t46.5 17t33 40t12.5 72.5v284h213v-215q0 -52 3 -90t17.5 -63t46 -37t88.5 -12q31 0 57.5 3t46 16.5t30.5 40t11 73.5v475h213
v-488q0 -118 -30 -194t-80 -120t-114.5 -61t-134.5 -17q-39 0 -77.5 5t-73 18.5t-63.5 37t-48 59.5h-6q-18 -29 -43.5 -51t-56.5 -37.5t-64.5 -23.5t-66.5 -8q-48 0 -91 11t-78 44z" />
    <glyph glyph-name="uni0634" unicode="&#x634;" horiz-adv-x="2394" arabic-form="isolated" 
d="M1189 28q-20 -276 -154.5 -414t-402.5 -138q-137 0 -232.5 35.5t-156 104t-88 169.5t-27.5 233q0 36 2 72t6.5 76t11.5 86t18 101h209q-10 -62 -16.5 -109t-10 -83.5t-5 -65t-1.5 -54.5q0 -74 13 -129t46 -91t90 -53.5t145 -17.5q101 0 169 23.5t108.5 73t57.5 125.5
t17 181q0 43 -2.5 87.5t-8.5 99t-14.5 124.5t-20.5 163h214q11 -96 20 -166.5t15 -127.5q3 -28 13.5 -45t30 -26t48.5 -12t68 -3q28 0 54 3.5t46.5 17t33 40t12.5 72.5v284h213v-215q0 -52 3 -90t17.5 -63t46 -37t88.5 -12q31 0 57.5 3t46 16.5t30.5 40t11 73.5v475h213
v-488q0 -118 -30 -194t-80 -120t-114.5 -61t-134.5 -17q-39 0 -77.5 5t-73 18.5t-63.5 37t-48 59.5h-6q-18 -29 -43.5 -51t-56.5 -37.5t-64.5 -23.5t-66.5 -8q-48 0 -91 11t-78 44zM1542 885h-235v211h235v-211zM1885 885h-235v211h235v-211zM1714 1165h-235v211h235v-211z
" />
    <glyph glyph-name="uni0635" unicode="&#x635;" horiz-adv-x="2737" arabic-form="isolated" 
d="M1192 50q-14 -287 -151.5 -430.5t-410.5 -143.5q-136 0 -231.5 35t-155.5 103.5t-87.5 170t-27.5 233.5q0 36 2 72t6.5 76.5t11.5 86t18 100.5h209q-9 -63 -15.5 -109.5t-10 -83t-5.5 -66t-2 -56.5q0 -73 13.5 -127t47 -90t91 -53.5t146.5 -17.5q102 0 168.5 23.5
t106.5 74t56 128.5t16 187q0 41 -2.5 87t-9.5 102t-19 123.5t-31 151.5h222q16 -91 27 -162t18 -119q3 -20 6 -35t13.5 -27t31.5 -20.5t59 -14.5q27 71 67 150.5t93 157t118 149t142.5 125.5t166.5 86.5t190 32.5q120 0 211 -41t152 -114t91.5 -174t30.5 -222
q0 -103 -23 -175.5t-65 -120.5t-101 -75t-130 -40.5t-152 -17t-168 -3.5q-118 0 -207 0.5t-156 1.5t-114.5 3t-81.5 6t-57.5 9.5t-42.5 13.5t-37.5 22t-32.5 29zM2062 676q-102 0 -187 -36.5t-153 -97t-120 -138.5t-88 -162q17 -1 48.5 -1.5t71.5 -1t84.5 -1t87 -0.5h80.5
h64q128 0 206.5 4t121.5 19t57.5 45t14.5 83q0 71 -20 125t-57.5 90t-90.5 54t-120 18z" />
    <glyph glyph-name="uni0636" unicode="&#x636;" horiz-adv-x="2737" arabic-form="isolated" 
d="M1192 50q-14 -287 -151.5 -430.5t-410.5 -143.5q-136 0 -231.5 35t-155.5 103.5t-87.5 170t-27.5 233.5q0 36 2 72t6.5 76.5t11.5 86t18 100.5h209q-9 -63 -15.5 -109.5t-10 -83t-5.5 -66t-2 -56.5q0 -73 13.5 -127t47 -90t91 -53.5t146.5 -17.5q102 0 168.5 23.5
t106.5 74t56 128.5t16 187q0 41 -2.5 87t-9.5 102t-19 123.5t-31 151.5h222q16 -91 27 -162t18 -119q3 -20 6 -35t13.5 -27t31.5 -20.5t59 -14.5q27 71 67 150.5t93 157t118 149t142.5 125.5t166.5 86.5t190 32.5q120 0 211 -41t152 -114t91.5 -174t30.5 -222
q0 -103 -23 -175.5t-65 -120.5t-101 -75t-130 -40.5t-152 -17t-168 -3.5q-118 0 -207 0.5t-156 1.5t-114.5 3t-81.5 6t-57.5 9.5t-42.5 13.5t-37.5 22t-32.5 29zM2062 676q-102 0 -187 -36.5t-153 -97t-120 -138.5t-88 -162q17 -1 48.5 -1.5t71.5 -1t84.5 -1t87 -0.5h80.5
h64q128 0 206.5 4t121.5 19t57.5 45t14.5 83q0 71 -20 125t-57.5 90t-90.5 54t-120 18zM1846 1086h-235v211h235v-211z" />
    <glyph glyph-name="uni0637" unicode="&#x637;" horiz-adv-x="1710" arabic-form="isolated" 
d="M298 247v1269h213v-873l6 -2q47 65 105 121.5t125.5 98t144.5 65.5t162 24q120 0 211 -41t152 -114t91.5 -174t30.5 -222q0 -103 -23 -175.5t-65 -120.5t-101 -75t-130 -40.5t-152 -17t-168 -3.5q-177 0 -308 2t-231 6.5t-175.5 10.5t-142.5 14l-53 275q34 -7 73.5 -12
t80 -8t80 -5t74.5 -3zM1037 676q-102 0 -187 -36.5t-153 -97t-120 -138.5t-88 -162q17 -1 48.5 -1.5t71.5 -1t84.5 -1t87 -0.5h80.5h64q128 0 206.5 4t121.5 19t57.5 45t14.5 83q0 71 -20 125t-57.5 90t-90.5 54t-120 18z" />
    <glyph glyph-name="uni0638" unicode="&#x638;" horiz-adv-x="1710" arabic-form="isolated" 
d="M298 247v1269h213v-873l6 -2q47 65 105 121.5t125.5 98t144.5 65.5t162 24q120 0 211 -41t152 -114t91.5 -174t30.5 -222q0 -103 -23 -175.5t-65 -120.5t-101 -75t-130 -40.5t-152 -17t-168 -3.5q-177 0 -308 2t-231 6.5t-175.5 10.5t-142.5 14l-53 275q34 -7 73.5 -12
t80 -8t80 -5t74.5 -3zM1037 676q-102 0 -187 -36.5t-153 -97t-120 -138.5t-88 -162q17 -1 48.5 -1.5t71.5 -1t84.5 -1t87 -0.5h80.5h64q128 0 206.5 4t121.5 19t57.5 45t14.5 83q0 71 -20 125t-57.5 90t-90.5 54t-120 18zM1115 1106h-235v211h235v-211z" />
    <glyph glyph-name="uni0639" unicode="&#x639;" horiz-adv-x="1026" arabic-form="isolated" 
d="M855 384q-167 -45 -272.5 -96t-165.5 -104t-82.5 -104.5t-22.5 -96.5q0 -41 17.5 -84.5t61.5 -80t119.5 -60t192.5 -23.5q85 0 178.5 14.5t196.5 46.5v-259q-106 -32 -197.5 -46.5t-182.5 -14.5q-153 0 -265.5 36t-186.5 101.5t-110.5 155.5t-36.5 198q0 135 52.5 238.5
t141.5 180.5q-54 68 -88 150t-34 179q0 101 39 182t106.5 138t156.5 88t190 31q27 0 56 -2.5t58 -7.5v-263q-34 4 -73 7.5t-76 3.5q-46 0 -89.5 -8.5t-78 -30t-55.5 -58.5t-21 -93q0 -52 18.5 -106.5t58.5 -96.5q91 48 189.5 82.5t204.5 61.5v-259z" />
    <glyph glyph-name="uni063A" unicode="&#x63a;" horiz-adv-x="1026" arabic-form="isolated" 
d="M855 384q-167 -45 -272.5 -96t-165.5 -104t-82.5 -104.5t-22.5 -96.5q0 -41 17.5 -84.5t61.5 -80t119.5 -60t192.5 -23.5q85 0 178.5 14.5t196.5 46.5v-259q-106 -32 -197.5 -46.5t-182.5 -14.5q-153 0 -265.5 36t-186.5 101.5t-110.5 155.5t-36.5 198q0 135 52.5 238.5
t141.5 180.5q-54 68 -88 150t-34 179q0 101 39 182t106.5 138t156.5 88t190 31q27 0 56 -2.5t58 -7.5v-263q-34 4 -73 7.5t-76 3.5q-46 0 -89.5 -8.5t-78 -30t-55.5 -58.5t-21 -93q0 -52 18.5 -106.5t58.5 -96.5q91 48 189.5 82.5t204.5 61.5v-259zM602 1307h-235v211h235
v-211z" />
    <glyph glyph-name="uni063B.init" unicode="&#x63b;" horiz-adv-x="1026" 
d="M0 1094l881 557v-287l-609 -372q120 -60 220.5 -125.5t174 -141t114.5 -163t41 -190.5q0 -44 -8 -90t-29 -90t-58.5 -83.5t-96.5 -69t-142.5 -47t-196.5 -17.5h-291q-35 0 -52.5 36.5t-17.5 99.5t17.5 99.5t52.5 36.5h294q91 0 151 4t96 16.5t51 35t15 59.5
q0 109 -151 229t-456 267v236zM235 1519h-235v211h235v-211zM577 1519h-235v211h235v-211z" />
    <glyph glyph-name="uni063B.medi" unicode="&#x63b;" horiz-adv-x="1026" 
d="M0 1094l881 557v-287l-609 -372q111 -56 206.5 -116.5t167.5 -129.5t117 -147.5t56 -170.5q4 -29 11 -54.5t24 -51.5q9 -14 22.5 -27.5t33.5 -24t48.5 -17t67.5 -6.5v-272h-22q-36 0 -73.5 8t-72 26t-64.5 46.5t-52 68.5h-6q-25 -32 -64 -59.5t-93.5 -47.5t-126 -31
t-161.5 -11h-291q-35 0 -52.5 36.5t-17.5 99.5t17.5 99.5t52.5 36.5h294q91 0 151 4t96 16.5t51 35t15 59.5q0 109 -151 229t-456 267v236zM203 1519h-235v211h235v-211zM545 1519h-235v211h235v-211z" />
    <glyph glyph-name="uni063B.fina" unicode="&#x63b;" horiz-adv-x="1881" 
d="M855 1094l881 557v-287l-609 -372q112 -56 207 -116.5t166.5 -129.5t116.5 -147.5t57 -170.5q4 -29 11 -54.5t24 -51.5q9 -14 22.5 -27.5t33.5 -24t48.5 -17t67.5 -6.5v-272h-22q-36 0 -73.5 8t-72 26t-64.5 46.5t-52 68.5h-6q-47 -56 -112.5 -87.5t-155.5 -47t-207 -19
t-268 -3.5q-89 0 -175.5 2.5t-164 13t-143.5 31.5t-114 59q-36 28 -60.5 65t-39.5 79t-21.5 88t-6.5 93q0 66 10.5 134.5t27.5 131.5h214q-8 -37 -14.5 -66.5t-10.5 -55t-6 -49.5t-2 -49q0 -78 33 -120.5t107 -62t194 -22.5t293 -3q117 0 215.5 3.5t165.5 21.5
q41 11 64 24.5t33.5 27.5t12.5 27.5t2 24.5q0 105 -151 226t-456 267v236zM1090 1519h-235v211h235v-211zM1432 1519h-235v211h235v-211z" />
    <glyph glyph-name="uni063C.init" unicode="&#x63c;" horiz-adv-x="1026" 
d="M0 1094l881 557v-287l-609 -372q120 -60 220.5 -125.5t174 -141t114.5 -163t41 -190.5q0 -44 -8 -90t-29 -90t-58.5 -83.5t-96.5 -69t-142.5 -47t-196.5 -17.5h-291q-35 0 -52.5 36.5t-17.5 99.5t17.5 99.5t52.5 36.5h294q91 0 151 4t96 16.5t51 35t15 59.5
q0 109 -151 229t-456 267v236zM481 -101h235v-211h-235v211zM138 -101h235v-211h-235v211zM309 -381h235v-211h-235v211z" />
    <glyph glyph-name="uni063C.medi" unicode="&#x63c;" horiz-adv-x="1026" 
d="M0 1094l881 557v-287l-609 -372q111 -56 206.5 -116.5t167.5 -129.5t117 -147.5t56 -170.5q4 -29 11 -54.5t24 -51.5q9 -14 22.5 -27.5t33.5 -24t48.5 -17t67.5 -6.5v-272h-22q-36 0 -73.5 8t-72 26t-64.5 46.5t-52 68.5h-6q-25 -32 -64 -59.5t-93.5 -47.5t-126 -31
t-161.5 -11h-291q-35 0 -52.5 36.5t-17.5 99.5t17.5 99.5t52.5 36.5h294q91 0 151 4t96 16.5t51 35t15 59.5q0 109 -151 229t-456 267v236zM481 -101h235v-211h-235v211zM138 -101h235v-211h-235v211zM309 -381h235v-211h-235v211z" />
    <glyph glyph-name="uni063C.fina" unicode="&#x63c;" horiz-adv-x="1881" 
d="M855 1094l881 557v-287l-609 -372q112 -56 207 -116.5t166.5 -129.5t116.5 -147.5t57 -170.5q4 -29 11 -54.5t24 -51.5q9 -14 22.5 -27.5t33.5 -24t48.5 -17t67.5 -6.5v-272h-22q-36 0 -73.5 8t-72 26t-64.5 46.5t-52 68.5h-6q-47 -56 -112.5 -87.5t-155.5 -47t-207 -19
t-268 -3.5q-89 0 -175.5 2.5t-164 13t-143.5 31.5t-114 59q-36 28 -60.5 65t-39.5 79t-21.5 88t-6.5 93q0 66 10.5 134.5t27.5 131.5h214q-8 -37 -14.5 -66.5t-10.5 -55t-6 -49.5t-2 -49q0 -78 33 -120.5t107 -62t194 -22.5t293 -3q117 0 215.5 3.5t165.5 21.5
q41 11 64 24.5t33.5 27.5t12.5 27.5t2 24.5q0 105 -151 226t-456 267v236zM995 -101h235v-211h-235v211zM652 -101h235v-211h-235v211zM823 -381h235v-211h-235v211z" />
    <glyph glyph-name="uni063D.init" unicode="&#x63d;" horiz-adv-x="684" 
d="M132 -25h-132q-35 0 -52.5 36.5t-17.5 99.5t17.5 99.5t52.5 36.5h142q40 0 70 3t49.5 16t29 39.5t9.5 74.5v475h213v-482q0 -122 -31.5 -199.5t-84 -121.5t-121.5 -60.5t-144 -16.5zM267 1058h-174l239 365h144l245 -365h-179l-139 206zM277 -371h-235v211h235v-211z
M619 -371h-235v211h235v-211z" />
    <glyph glyph-name="uni063D.medi" unicode="&#x63d;" horiz-adv-x="684" 
d="M132 -25h-132q-35 0 -52.5 36.5t-17.5 99.5t17.5 99.5t52.5 36.5h142q43 0 73 3.5t49 16.5t27.5 39.5t8.5 73.5v475h213v-406q0 -52 3 -90t19.5 -63t51 -37t97.5 -12v-272h-46q-87 0 -149 27.5t-91 87.5h-6q-26 -35 -58 -57t-66.5 -35t-69.5 -18t-66 -5zM267 1058h-174
l239 365h144l245 -365h-179l-139 206zM277 -371h-235v211h235v-211zM619 -371h-235v211h235v-211z" />
    <glyph glyph-name="uni063D.fina" unicode="&#x63d;" horiz-adv-x="1710" 
d="M1710 247v-272h-21q-92 0 -155.5 27.5t-108.5 68.5t-75 89t-56 89t-51.5 68.5t-60.5 27.5q-23 0 -37 -15.5t-14 -38.5t14 -43.5t33 -45.5q49 -65 49 -141q0 -90 -47.5 -154t-125 -104.5t-176 -59t-201.5 -18.5q-158 0 -263.5 44.5t-169 118.5t-90 170t-26.5 199
q0 82 13 163.5t33 156.5h216q-22 -78 -35 -146t-13 -144q0 -62 15.5 -115.5t56 -93t111.5 -62t182 -22.5q69 0 126.5 3.5t98.5 14t64 29t23 47.5q0 36 -16.5 64t-36.5 58q-41 63 -41 136q0 52 19.5 98t54 80t82.5 54t105 20q59 0 99 -15t68.5 -40t48 -56.5t38 -64t39 -64
t51 -56.5t73.5 -40t107 -15zM629 786h-174l239 365h144l245 -365h-179l-139 206z" />
    <glyph glyph-name="uni063E.init" unicode="&#x63e;" horiz-adv-x="684" 
d="M132 -25h-132q-35 0 -52.5 36.5t-17.5 99.5t17.5 99.5t52.5 36.5h142q40 0 70 3t49.5 16t29 39.5t9.5 74.5v475h213v-482q0 -122 -31.5 -199.5t-84 -121.5t-121.5 -60.5t-144 -16.5zM277 -371h-235v211h235v-211zM619 -371h-235v211h235v-211zM354 1056h-235v211h235
v-211zM696 1056h-235v211h235v-211z" />
    <glyph glyph-name="uni063E.medi" unicode="&#x63e;" horiz-adv-x="684" 
d="M132 -25h-132q-35 0 -52.5 36.5t-17.5 99.5t17.5 99.5t52.5 36.5h142q43 0 73 3.5t49 16.5t27.5 39.5t8.5 73.5v475h213v-406q0 -52 3 -90t19.5 -63t51 -37t97.5 -12v-272h-46q-87 0 -149 27.5t-91 87.5h-6q-26 -35 -58 -57t-66.5 -35t-69.5 -18t-66 -5zM277 -371h-235
v211h235v-211zM619 -371h-235v211h235v-211zM354 1056h-235v211h235v-211zM696 1056h-235v211h235v-211z" />
    <glyph glyph-name="uni063E.fina" unicode="&#x63e;" horiz-adv-x="1710" 
d="M1710 247v-272h-21q-92 0 -155.5 27.5t-108.5 68.5t-75 89t-56 89t-51.5 68.5t-60.5 27.5q-23 0 -37 -15.5t-14 -38.5t14 -43.5t33 -45.5q49 -65 49 -141q0 -90 -47.5 -154t-125 -104.5t-176 -59t-201.5 -18.5q-158 0 -263.5 44.5t-169 118.5t-90 170t-26.5 199
q0 82 13 163.5t33 156.5h216q-22 -78 -35 -146t-13 -144q0 -62 15.5 -115.5t56 -93t111.5 -62t182 -22.5q69 0 126.5 3.5t98.5 14t64 29t23 47.5q0 36 -16.5 64t-36.5 58q-41 63 -41 136q0 52 19.5 98t54 80t82.5 54t105 20q59 0 99 -15t68.5 -40t48 -56.5t38 -64t39 -64
t51 -56.5t73.5 -40t107 -15zM679 837h-235v211h235v-211zM1021 837h-235v211h235v-211z" />
    <glyph glyph-name="uni063F.init" unicode="&#x63f;" horiz-adv-x="684" 
d="M132 -25h-132q-35 0 -52.5 36.5t-17.5 99.5t17.5 99.5t52.5 36.5h142q40 0 70 3t49.5 16t29 39.5t9.5 74.5v475h213v-482q0 -122 -31.5 -199.5t-84 -121.5t-121.5 -60.5t-144 -16.5zM277 -371h-235v211h235v-211zM619 -371h-235v211h235v-211zM353 1056h-235v211h235
v-211zM696 1056h-235v211h235v-211zM525 1336h-235v211h235v-211z" />
    <glyph glyph-name="uni063F.medi" unicode="&#x63f;" horiz-adv-x="684" 
d="M132 -25h-132q-35 0 -52.5 36.5t-17.5 99.5t17.5 99.5t52.5 36.5h142q43 0 73 3.5t49 16.5t27.5 39.5t8.5 73.5v475h213v-406q0 -52 3 -90t19.5 -63t51 -37t97.5 -12v-272h-46q-87 0 -149 27.5t-91 87.5h-6q-26 -35 -58 -57t-66.5 -35t-69.5 -18t-66 -5zM277 -371h-235
v211h235v-211zM619 -371h-235v211h235v-211zM353 1056h-235v211h235v-211zM696 1056h-235v211h235v-211zM525 1336h-235v211h235v-211z" />
    <glyph glyph-name="uni063F.fina" unicode="&#x63f;" horiz-adv-x="1710" 
d="M1710 247v-272h-21q-92 0 -155.5 27.5t-108.5 68.5t-75 89t-56 89t-51.5 68.5t-60.5 27.5q-23 0 -37 -15.5t-14 -38.5t14 -43.5t33 -45.5q49 -65 49 -141q0 -90 -47.5 -154t-125 -104.5t-176 -59t-201.5 -18.5q-158 0 -263.5 44.5t-169 118.5t-90 170t-26.5 199
q0 82 13 163.5t33 156.5h216q-22 -78 -35 -146t-13 -144q0 -62 15.5 -115.5t56 -93t111.5 -62t182 -22.5q69 0 126.5 3.5t98.5 14t64 29t23 47.5q0 36 -16.5 64t-36.5 58q-41 63 -41 136q0 52 19.5 98t54 80t82.5 54t105 20q59 0 99 -15t68.5 -40t48 -56.5t38 -64t39 -64
t51 -56.5t73.5 -40t107 -15zM678 837h-235v211h235v-211zM1021 837h-235v211h235v-211zM850 1117h-235v211h235v-211z" />
    <glyph glyph-name="uni0641" unicode="&#x641;" horiz-adv-x="2052" arabic-form="isolated" 
d="M1492 715q-26 0 -50 -17.5t-42 -44t-28.5 -56.5t-10.5 -54q0 -18 9.5 -42.5t38 -55t81.5 -67t140 -78.5q11 9 18 23.5t11.5 30.5t6 32t1.5 28q0 38 -14.5 90t-39 99t-56 79.5t-65.5 32.5zM375 664q-8 -37 -14.5 -66.5t-10.5 -55t-6 -49.5t-2 -49q0 -78 32.5 -120.5
t107.5 -62t197 -23t301 -3.5h141.5t91 0.5t56 1.5t36.5 2l3 8q-75 57 -117 131t-42 165q0 53 13 106.5t37 103.5t57 94t72 76.5t84 51t92 18.5q55 0 104.5 -25t91.5 -68.5t75.5 -101.5t57 -123.5t36 -135t12.5 -136.5q0 -97 -27 -167t-77.5 -118.5t-123.5 -78t-164 -45.5
t-198.5 -21.5t-228.5 -5.5h-93q-128 0 -236 1.5t-196.5 11t-158 29.5t-118.5 57q-40 30 -66.5 68t-42 80.5t-22 88.5t-6.5 91q0 70 10.5 137t27.5 133h214zM1600 1200h-235v211h235v-211z" />
    <glyph glyph-name="uni0642" unicode="&#x642;" horiz-adv-x="1539" arabic-form="isolated" 
d="M372 327q-9 -55 -14.5 -97.5t-9 -75.5t-4.5 -58.5t-1 -47.5q0 -72 16 -128.5t59 -95t118.5 -59t194.5 -20.5q128 0 207.5 21t125.5 57.5t64.5 84.5t24.5 102q-68 -25 -144 -25q-63 0 -127.5 19t-116.5 60t-85 107t-33 160q0 84 27 166t74 147t109.5 105t134.5 40
q78 0 142.5 -46.5t116.5 -133.5q60 -100 88.5 -223t28.5 -267q0 -172 -40.5 -294t-121 -199.5t-202 -113.5t-283.5 -36q-156 0 -269 32.5t-185.5 99.5t-107.5 169.5t-35 242.5q0 64 7.5 137t25.5 170h215zM979 511q-27 0 -50 -17.5t-39.5 -43.5t-25.5 -55t-9 -52
q0 -29 13.5 -48.5t37 -32.5t53.5 -18.5t63 -5.5q32 0 65 5.5t60 16.5q-8 37 -23 80.5t-37 81.5t-49 63.5t-59 25.5zM917 1009h-235v211h235v-211zM1259 1009h-235v211h235v-211z" />
    <glyph glyph-name="uni0643" unicode="&#x643;" horiz-adv-x="1710" arabic-form="isolated" 
d="M684 715q175 11 175 61q0 9 -11.5 16t-28 15t-36.5 18.5t-36.5 26t-28 37.5t-11.5 53q0 41 25.5 74t69 58.5t101 42.5t122.5 26v-129q-91 -12 -132 -29.5t-41 -40.5q0 -10 11.5 -17t28 -15t36.5 -17.5t36.5 -24.5t28 -35.5t11.5 -50.5q0 -33 -19.5 -66.5t-59 -61
t-100 -46.5t-141.5 -23v128zM862 -33q-93 0 -182.5 2.5t-169 13t-146 31.5t-113.5 59q-36 28 -60.5 65t-39.5 79t-21.5 87t-6.5 90q0 70 10.5 137t27.5 133h214q-8 -37 -14.5 -66.5t-10.5 -55t-6 -49.5t-2 -49q0 -43 10.5 -79t48.5 -65q26 -20 65 -33t96.5 -20t138 -9.5
t189.5 -2.5q132 0 216.5 3.5t133 19t67.5 47.5t19 89v1122h213v-1129q0 -97 -24 -166t-68 -115.5t-106 -74t-137 -42t-161.5 -18.5t-180.5 -4z" />
    <glyph glyph-name="uni0644" unicode="&#x644;" horiz-adv-x="1368" arabic-form="isolated" 
d="M622 -351q-134 0 -227.5 35t-153 104t-86.5 170.5t-27 235.5q0 68 8 143t28 179h210q-9 -60 -15 -105.5t-10 -81t-5.5 -63t-1.5 -52.5q0 -74 13 -129t46 -91t89.5 -53.5t144.5 -17.5q100 0 167 23.5t107.5 73.5t57.5 128.5t17 188.5v1179h213v-1199q0 -161 -31.5 -285.5
t-100.5 -209.5t-178 -129t-265 -44z" />
    <glyph glyph-name="uni0645" unicode="&#x645;" horiz-adv-x="1197" arabic-form="isolated" 
d="M696 807q57 0 106.5 -23t90.5 -61.5t73.5 -89t55 -106.5t34 -113t11.5 -109q0 -74 -23 -135t-65 -104.5t-100 -67.5t-128 -24q-49 0 -98.5 10t-97.5 22.5t-93 22.5t-84 10q-38 0 -62 -11t-37 -30.5t-17.5 -46.5t-4.5 -60q0 -29 3.5 -70.5t11.5 -93.5t22 -113t35 -128
h-224q-30 128 -46.5 227.5t-16.5 177.5q0 80 18 145t51 114t80 81t104 46q24 112 57 195t70 141.5t76 96.5t75.5 59.5t68 29.5t54.5 8zM750 235q19 0 38 3t34 11t24 23t9 39t-12.5 62.5t-35.5 75.5t-55.5 63.5t-72.5 26.5q-36 0 -64.5 -20t-52.5 -55t-43 -82.5t-35 -102.5
q33 -6 66 -13.5t66 -14t66 -11.5t68 -5z" />
    <glyph glyph-name="uni0646" unicode="&#x646;" horiz-adv-x="1368" arabic-form="isolated" 
d="M1156 544q21 -118 31 -214t10 -186q0 -161 -31 -285.5t-100 -209.5t-178 -129t-265 -44q-134 0 -228 35t-153.5 104t-86.5 171t-27 236q0 34 2 70.5t6.5 76.5t12 85.5t17.5 98.5h209q-10 -62 -16.5 -109t-10 -83.5t-5 -65t-1.5 -54.5q0 -74 13 -129t46 -91t89.5 -53.5
t143.5 -17.5q100 0 166.5 23.5t105.5 73.5t55 128.5t16 188.5q0 33 -2 70t-7 82t-13 101t-20 127h221zM789 714h-235v211h235v-211z" />
    <glyph glyph-name="uni0647" unicode="&#x647;" horiz-adv-x="1026" arabic-form="isolated" 
d="M268 920l142 180q125 -86 214.5 -179t146.5 -188.5t84 -191.5t27 -188q0 -85 -26 -154.5t-75 -119t-119.5 -77t-158.5 -27.5q-86 0 -153 23.5t-113 68t-70 107.5t-24 142q0 86 20.5 164t54 144t75.5 120t84 92q-25 21 -52 42t-57 42zM351 352q0 -32 12.5 -52t33.5 -32
t49.5 -16.5t60.5 -4.5q87 0 126.5 28t39.5 80q0 73 -36.5 159t-114.5 180q-35 -29 -66.5 -67.5t-54.5 -83t-36.5 -93.5t-13.5 -98z" />
    <glyph glyph-name="uni0648" unicode="&#x648;" horiz-adv-x="1026" arabic-form="isolated" 
d="M0 -174q53 -20 99 -34t87 -23t78.5 -13t73.5 -4q83 0 138 21.5t89 57t50.5 82t22.5 97.5q-69 -25 -143 -25q-63 0 -127.5 18.5t-116 60t-84.5 108.5t-33 163q0 81 27 162.5t73.5 146t108.5 105t133 40.5q78 0 141 -44.5t120 -135.5q60 -94 89 -222t29 -274
q0 -132 -30 -248t-93 -202.5t-160.5 -136.5t-233.5 -50q-41 0 -81 4.5t-81 14.5t-84.5 24t-91.5 34v273zM468 511q-28 0 -51 -17.5t-39.5 -43t-26 -53.5t-9.5 -49q0 -32 13.5 -53t36.5 -33.5t53.5 -18t63.5 -5.5q31 0 64 5.5t60 16.5q-8 37 -23.5 80.5t-37 81.5t-48 63.5
t-56.5 25.5z" />
    <glyph glyph-name="uni0649" unicode="&#x649;" horiz-adv-x="1539" arabic-form="isolated" 
d="M1426 885q-103 -14 -183.5 -29t-135.5 -33.5t-84 -41.5t-29 -54q0 -21 13 -36.5t35.5 -29t51.5 -27t61 -28.5q49 -24 88.5 -49.5t67 -57.5t42.5 -72t15 -92q0 -95 -49.5 -187.5t-140.5 -166t-221 -118.5t-290 -45q-148 0 -251.5 39t-168.5 109.5t-94.5 168.5t-29.5 217
q0 103 22.5 207t60.5 219h213q-20 -74 -34.5 -132t-24 -105.5t-14 -87t-4.5 -77.5q0 -52 11.5 -102.5t48 -91t104 -65.5t179.5 -25q91 0 176.5 17t151.5 44t105.5 61t39.5 69q0 22 -15 39t-39 31t-53 27t-57 27q-42 21 -79 48t-65 62t-44.5 80.5t-16.5 103.5q0 93 44 167.5
t126.5 131t200.5 94.5t266 58v-267z" />
    <glyph glyph-name="uni064A" unicode="&#x64a;" horiz-adv-x="1539" arabic-form="isolated" 
d="M1426 885q-103 -14 -183.5 -29t-135.5 -33.5t-84 -41.5t-29 -54q0 -21 13 -36.5t35.5 -29t51.5 -27t61 -28.5q49 -24 88.5 -49.5t67 -57.5t42.5 -72t15 -92q0 -95 -49.5 -187.5t-140.5 -166t-221 -118.5t-290 -45q-148 0 -251.5 39t-168.5 109.5t-94.5 168.5t-29.5 217
q0 103 22.5 207t60.5 219h213q-20 -74 -34.5 -132t-24 -105.5t-14 -87t-4.5 -77.5q0 -52 11.5 -102.5t48 -91t104 -65.5t179.5 -25q91 0 176.5 17t151.5 44t105.5 61t39.5 69q0 22 -15 39t-39 31t-53 27t-57 27q-42 21 -79 48t-65 62t-44.5 80.5t-16.5 103.5q0 93 44 167.5
t126.5 131t200.5 94.5t266 58v-267zM716 -542h-235v211h235v-211zM1058 -542h-235v211h235v-211z" />
    <glyph glyph-name="uni066E.init" unicode="&#x66e;" horiz-adv-x="684" 
d="M132 -25h-132q-35 0 -52.5 36.5t-17.5 99.5t17.5 99.5t52.5 36.5h142q40 0 70 3t49.5 16t29 39.5t9.5 74.5v475h213v-482q0 -122 -31.5 -199.5t-84 -121.5t-121.5 -60.5t-144 -16.5z" />
    <glyph glyph-name="uni066E.medi" unicode="&#x66e;" horiz-adv-x="684" 
d="M132 -25h-132q-35 0 -52.5 36.5t-17.5 99.5t17.5 99.5t52.5 36.5h142q43 0 73 3.5t49 16.5t27.5 39.5t8.5 73.5v475h213v-406q0 -52 3 -90t19.5 -63t51 -37t97.5 -12v-272h-46q-87 0 -149 27.5t-91 87.5h-6q-26 -35 -58 -57t-66.5 -35t-69.5 -18t-66 -5z" />
    <glyph glyph-name="uni066E.fina" unicode="&#x66e;" horiz-adv-x="1881" 
d="M1710 449q0 -52 3 -90t19.5 -63t51 -37t97.5 -12v-272h-46q-85 0 -144.5 29.5t-88.5 89.5h-6q-50 -45 -117 -70t-153 -38t-190.5 -16t-228.5 -3q-101 0 -197.5 2t-182 12.5t-156.5 31.5t-120 60q-36 28 -60.5 65t-39.5 79t-21.5 87t-6.5 90q0 70 10.5 137t27.5 133h214
q-8 -37 -14 -66.5t-10.5 -55t-6.5 -49.5t-2 -49q0 -43 10.5 -79t48.5 -65q30 -23 75.5 -35.5t114 -19.5t164 -8.5t225.5 -1.5q156 0 256.5 3.5t158 19t80 47.5t22.5 89v461h213v-406z" />
    <glyph glyph-name="uni066F.init" unicode="&#x66f;" horiz-adv-x="1026" 
d="M282 247q-75 57 -117 131.5t-42 164.5q0 52 13 106t37 104t57 93.5t72 76.5t84 51.5t92 18.5q55 0 104.5 -25t91.5 -68.5t75.5 -101t57 -123t36 -135.5t12.5 -137q0 -100 -29.5 -170t-80.5 -117.5t-118 -75.5t-143 -42.5t-155.5 -18.5t-154.5 -4h-174q-35 0 -52.5 36.5
t-17.5 99.5t17.5 99.5t52.5 36.5h100q19 0 46 -1.5t53.5 -3t48.5 -2.5t31 -1zM466 715q-26 0 -50 -18t-42 -44.5t-28.5 -56t-10.5 -53.5q0 -18 9.5 -42.5t38 -55t81.5 -67t140 -78.5q11 9 18 23.5t11.5 30.5t6 32t1.5 28q0 38 -14.5 90t-39 99t-56 79.5t-65.5 32.5z" />
    <glyph glyph-name="uni066F.medi" unicode="&#x66f;" horiz-adv-x="1026" 
d="M282 247q-75 57 -117 131.5t-42 164.5q0 52 13 106t37 104t57 93.5t72 76.5t84 51.5t92 18.5q55 0 104.5 -25t91.5 -68.5t75.5 -101t57 -123t36 -135.5t12.5 -137q0 -83 -25 -150q21 -2 41 -3t42.5 -2t49.5 -1h63v-272h-35q-44 0 -93.5 3.5t-99.5 10.5t-98.5 18.5
t-90.5 27.5q-53 -21 -110.5 -33t-114.5 -18t-111 -7.5t-99 -1.5h-174q-35 0 -52.5 36.5t-17.5 99.5t17.5 99.5t52.5 36.5h100q19 0 46 -1.5t53.5 -3t48.5 -2.5t31 -1zM466 715q-26 0 -50 -18t-42 -44.5t-28.5 -56t-10.5 -53.5q0 -18 9.5 -42.5t38 -55t81.5 -67t140 -78.5
q11 9 18 23.5t11.5 30.5t6 32t1.5 28q0 38 -14.5 90t-39 99t-56 79.5t-65.5 32.5z" />
    <glyph glyph-name="uni066F.fina" unicode="&#x66f;" horiz-adv-x="1539" 
d="M1150 -20h-94q-199 0 -304 91.5t-105 263.5q0 81 27.5 162.5t74 146t109 105t131.5 40.5q78 0 141 -44t121 -138q45 -72 72.5 -163t38.5 -197h177v-272h-178q-16 -133 -64 -227.5t-128.5 -155t-192 -88.5t-255.5 -28q-156 0 -269 32.5t-185.5 99.5t-107.5 169.5
t-35 242.5q0 64 7.5 137t25.5 170h215q-9 -55 -14.5 -97.5t-9 -75.5t-4.5 -58.5t-1 -47.5q0 -72 16 -128.5t59 -95t118.5 -59t194.5 -20.5t196.5 18.5t124 50.5t68.5 75t30 91zM1130 319q-12 36 -28 70.5t-35 61.5t-41 43.5t-45 16.5q-26 0 -49 -17.5t-40 -42t-27 -52
t-10 -48.5q0 -66 47 -88t140 -22h106q-4 18 -8 39t-10 39z" />
    <glyph glyph-name="uni0671" unicode="&#x671;" horiz-adv-x="513" arabic-form="isolated" 
d="M129 0v1516h213v-1516h-213zM-143 1740q28 19 52 33t45.5 23t43.5 13t48 4h8t12 -1q36 111 98 163t143 52q43 0 77 -14t56.5 -37.5t34.5 -54.5t12 -64q0 -41 -18 -78.5t-48 -66t-70.5 -45t-85.5 -16.5q-33 0 -64.5 8t-60.5 17.5t-54.5 17.5t-46.5 8q-20 0 -47.5 -11.5
t-73.5 -45.5zM260 1761q23 0 41 8t30 21.5t18.5 30.5t6.5 34q0 29 -16.5 45t-43.5 16q-35 0 -67.5 -30.5t-60.5 -103.5q25 -10 49 -15.5t43 -5.5z" />
    <glyph glyph-name="uni0672.fina" unicode="&#x672;" horiz-adv-x="513" 
d="M468 -25q-102 0 -167.5 33t-104 89.5t-53 132t-14.5 160.5v1126h213v-1067q0 -56 5 -94.5t22 -62.5t51 -34.5t93 -10.5v-272h-45zM378 1901q-23 5 -43.5 8t-32.5 3q-37 0 -61.5 -15.5t-24.5 -53.5t28 -57t80 -19h100v-115h-226q-52 0 -84 7t-53.5 16t-36.5 16t-32 7
q-20 0 -39 -10.5t-46 -33.5l-3 1v101q29 25 53 34.5t47 9.5q16 0 29 -4t26.5 -9.5t29.5 -12.5t38 -13l1 4q-20 26 -30.5 50.5t-10.5 51.5q0 36 15 65.5t42.5 51.5t66 34t85.5 12q34 0 82 -9v-120z" />
    <glyph glyph-name="uni0673.fina" unicode="&#x673;" horiz-adv-x="513" 
d="M468 -25q-102 0 -167.5 33t-104 89.5t-53 132t-14.5 160.5v1126h213v-1067q0 -56 5 -94.5t22 -62.5t51 -34.5t93 -10.5v-272h-45zM378 -273q-23 5 -43.5 8t-32.5 3q-37 0 -61.5 -15.5t-24.5 -53.5t28 -57t80 -19h100v-115h-226q-52 0 -84 7t-53.5 16t-36.5 16t-32 7
q-20 0 -39 -10.5t-46 -33.5l-3 1v101q29 25 53 34.5t47 9.5q16 0 29 -4t26.5 -9.5t29.5 -12.5t38 -13l1 4q-20 26 -30.5 50.5t-10.5 51.5q0 36 15 65.5t42.5 51.5t66 34t85.5 12q34 0 82 -9v-120z" />
    <glyph glyph-name="uni0675.fina" unicode="&#x675;" horiz-adv-x="855" 
d="M468 -25q-102 0 -167.5 33t-104 89.5t-53 132t-14.5 160.5v1126h213v-1067q0 -56 5 -94.5t22 -62.5t51 -34.5t93 -10.5v-272h-45zM513 -25q-35 0 -52.5 36.5t-17.5 99.5t17.5 99.5t52.5 36.5h342v-272h-342zM750 1384q-23 5 -43.5 8t-32.5 3q-37 0 -61.5 -15.5
t-24.5 -53.5t28 -57t80 -19h100v-115h-377v109h80l1 4q-20 26 -30.5 50.5t-10.5 51.5q0 36 15 65.5t42.5 51.5t66 34t85.5 12q34 0 82 -9v-120z" />
    <glyph glyph-name="uni0676.fina" unicode="&#x676;" horiz-adv-x="1026" 
d="M0 -174q55 -21 102.5 -35t89.5 -23t80 -12.5t75 -3.5q69 0 117.5 16t81 42t51 59t27.5 67q2 7 4.5 19.5t4.5 24.5h-90q-199 0 -304 91.5t-105 263.5q0 81 27.5 162.5t74 146t109 105t131.5 40.5q78 0 141 -44t121 -138q45 -72 72.5 -163t38.5 -197h177v-272h-180
q-13 -108 -50 -199.5t-98.5 -158t-148.5 -104t-200 -37.5q-42 0 -83 4t-83.5 13.5t-87.5 24t-95 35.5v273zM617 319q-12 36 -28 70.5t-35 61.5t-41 43.5t-45 16.5q-26 0 -49 -17.5t-40 -42t-27 -52t-10 -48.5q0 -66 47 -88t140 -22h106q-4 18 -8 39t-10 39zM911 1213
q-23 5 -43.5 8t-32.5 3q-37 0 -61.5 -15.5t-24.5 -53.5t28 -57t80 -19h100v-115h-377v109h80l1 4q-20 26 -30.5 50.5t-10.5 51.5q0 36 15 65.5t42.5 51.5t66 34t85.5 12q34 0 82 -9v-120z" />
    <glyph glyph-name="uni0677" unicode="&#x677;" horiz-adv-x="1026" arabic-form="isolated" 
d="M0 -174q53 -20 99 -34t87 -23t78.5 -13t73.5 -4q83 0 138 21.5t89 57t50.5 82t22.5 97.5q-69 -25 -143 -25q-63 0 -127.5 18.5t-116 60t-84.5 108.5t-33 163q0 81 27 162.5t73.5 146t108.5 105t133 40.5q78 0 141 -44.5t120 -135.5q60 -94 89 -222t29 -274
q0 -132 -30 -248t-93 -202.5t-160.5 -136.5t-233.5 -50q-41 0 -81 4.5t-81 14.5t-84.5 24t-91.5 34v273zM468 511q-28 0 -51 -17.5t-39.5 -43t-26 -53.5t-9.5 -49q0 -32 13.5 -53t36.5 -33.5t53.5 -18t63.5 -5.5q31 0 64 5.5t60 16.5q-8 37 -23.5 80.5t-37 81.5t-48 63.5
t-56.5 25.5zM911 1213q-23 5 -43.5 8t-32.5 3q-37 0 -61.5 -15.5t-24.5 -53.5t28 -57t80 -19h100v-115h-377v109h80l1 4q-20 26 -30.5 50.5t-10.5 51.5q0 36 15 65.5t42.5 51.5t66 34t85.5 12q34 0 82 -9v-120zM345 919q-31 23 -54 41.5t-37 32.5q-9 -2 -20.5 -3t-22 -1.5
t-19 -0.5h-10.5q-66 0 -120 7.5t-116 24.5l22 102q58 -15 106.5 -23.5t97.5 -9.5q-23 32 -34 63.5t-11 61.5q0 40 16.5 71t43.5 52.5t61.5 32.5t70.5 11q34 0 66.5 -10.5t58 -31.5t41 -53.5t15.5 -75.5q0 -63 -32 -107t-92 -72q4 -5 10 -10.5t28 -21.5zM377 1209
q0 35 -19 50.5t-42 15.5q-24 0 -44.5 -15.5t-20.5 -47.5q0 -25 13 -51t35 -51q35 14 56.5 38t21.5 61z" />
    <glyph glyph-name="uni0678.init" unicode="&#x678;" horiz-adv-x="1026" 
d="M132 -25h-132q-35 0 -52.5 36.5t-17.5 99.5t17.5 99.5t52.5 36.5h142q40 0 70 3t49.5 16t29 39.5t9.5 74.5v475h213v-482q0 -122 -31.5 -199.5t-84 -121.5t-121.5 -60.5t-144 -16.5zM911 1263q-23 5 -43.5 8t-32.5 3q-37 0 -61.5 -15.5t-24.5 -53.5t28 -57t80 -19h100
v-115h-377v109h80l1 4q-20 26 -30.5 50.5t-10.5 51.5q0 36 15 65.5t42.5 51.5t66 34t85.5 12q34 0 82 -9v-120z" />
    <glyph glyph-name="uni0678.medi" unicode="&#x678;" horiz-adv-x="1026" 
d="M132 -25h-132q-35 0 -52.5 36.5t-17.5 99.5t17.5 99.5t52.5 36.5h142q43 0 73 3.5t49 16.5t27.5 39.5t8.5 73.5v475h213v-406q0 -52 3 -90t19.5 -63t51 -37t97.5 -12v-272h-46q-87 0 -149 27.5t-91 87.5h-6q-26 -35 -58 -57t-66.5 -35t-69.5 -18t-66 -5zM911 1263
q-23 5 -43.5 8t-32.5 3q-37 0 -61.5 -15.5t-24.5 -53.5t28 -57t80 -19h100v-115h-377v109h80l1 4q-20 26 -30.5 50.5t-10.5 51.5q0 36 15 65.5t42.5 51.5t66 34t85.5 12q34 0 82 -9v-120zM684 -25q-35 0 -52.5 36.5t-17.5 99.5t17.5 99.5t52.5 36.5h342v-272h-342z" />
    <glyph glyph-name="uni0678.fina" unicode="&#x678;" horiz-adv-x="1710" 
d="M1710 247v-272h-21q-92 0 -155.5 27.5t-108.5 68.5t-75 89t-56 89t-51.5 68.5t-60.5 27.5q-23 0 -37 -15.5t-14 -38.5t14 -43.5t33 -45.5q49 -65 49 -141q0 -90 -47.5 -154t-125 -104.5t-176 -59t-201.5 -18.5q-158 0 -263.5 44.5t-169 118.5t-90 170t-26.5 199
q0 82 13 163.5t33 156.5h216q-22 -78 -35 -146t-13 -144q0 -62 15.5 -115.5t56 -93t111.5 -62t182 -22.5q69 0 126.5 3.5t98.5 14t64 29t23 47.5q0 36 -16.5 64t-36.5 58q-41 63 -41 136q0 52 19.5 98t54 80t82.5 54t105 20q59 0 99 -15t68.5 -40t48 -56.5t38 -64t39 -64
t51 -56.5t73.5 -40t107 -15zM1746 1213q-23 5 -43.5 8t-32.5 3q-37 0 -61.5 -15.5t-24.5 -53.5t28 -57t80 -19h100v-115h-377v109h80l1 4q-20 26 -30.5 50.5t-10.5 51.5q0 36 15 65.5t42.5 51.5t66 34t85.5 12q34 0 82 -9v-120z" />
    <glyph glyph-name="uni0679" unicode="&#x679;" horiz-adv-x="1881" arabic-form="isolated" 
d="M1497 855h213v-468q0 -97 -27.5 -166t-77.5 -115.5t-120.5 -74t-157.5 -42t-187 -18.5t-210 -4q-116 0 -218 2t-188 12.5t-155 31.5t-118 60q-36 28 -60.5 65t-39.5 79t-21.5 87t-6.5 90q0 70 10.5 137t27.5 133h214q-8 -37 -14.5 -66.5t-10.5 -55t-6 -49.5t-2 -49
q0 -43 10.5 -79t48.5 -65q30 -23 75.5 -35.5t114.5 -19.5t164.5 -8.5t224.5 -1.5q156 0 256.5 3.5t158 19t80 47.5t22.5 89v461zM609 1028q33 -4 64 -5.5t62 -1.5v492h125v-314l4 -1q38 49 82.5 81t107.5 32q52 0 89.5 -20t61.5 -53.5t35.5 -76t11.5 -87.5
q0 -66 -20.5 -102.5t-56.5 -53.5t-85 -20t-106 -3q-71 0 -125.5 1t-97 2.5t-75.5 4t-61 5.5zM972 1018q46 0 77 1t49.5 6.5t26.5 17.5t8 33q0 54 -26.5 83.5t-63.5 29.5q-29 0 -55 -15t-49 -39t-42 -54.5t-34 -62.5h109z" />
    <glyph glyph-name="uni067A" unicode="&#x67a;" horiz-adv-x="1881" arabic-form="isolated" 
d="M1497 855h213v-468q0 -97 -27.5 -166t-77.5 -115.5t-120.5 -74t-157.5 -42t-187 -18.5t-210 -4q-116 0 -218 2t-188 12.5t-155 31.5t-118 60q-36 28 -60.5 65t-39.5 79t-21.5 87t-6.5 90q0 70 10.5 137t27.5 133h214q-8 -37 -14.5 -66.5t-10.5 -55t-6 -49.5t-2 -49
q0 -43 10.5 -79t48.5 -65q30 -23 75.5 -35.5t114.5 -19.5t164.5 -8.5t224.5 -1.5q156 0 256.5 3.5t158 19t80 47.5t22.5 89v461zM1059 1056h-235v211h235v-211zM1059 1336h-235v211h235v-211z" />
    <glyph glyph-name="uni067B" unicode="&#x67b;" horiz-adv-x="1881" arabic-form="isolated" 
d="M1497 855h213v-468q0 -97 -27.5 -166t-77.5 -115.5t-120.5 -74t-157.5 -42t-187 -18.5t-210 -4q-116 0 -218 2t-188 12.5t-155 31.5t-118 60q-36 28 -60.5 65t-39.5 79t-21.5 87t-6.5 90q0 70 10.5 137t27.5 133h214q-8 -37 -14.5 -66.5t-10.5 -55t-6 -49.5t-2 -49
q0 -43 10.5 -79t48.5 -65q30 -23 75.5 -35.5t114.5 -19.5t164.5 -8.5t224.5 -1.5q156 0 256.5 3.5t158 19t80 47.5t22.5 89v461zM1059 -592h-235v211h235v-211zM1059 -312h-235v211h235v-211z" />
    <glyph glyph-name="uni067C.init" unicode="&#x67c;" horiz-adv-x="684" 
d="M132 -25h-132q-35 0 -52.5 36.5t-17.5 99.5t17.5 99.5t52.5 36.5h142q40 0 70 3t49.5 16t29 39.5t9.5 74.5v475h213v-482q0 -122 -31.5 -199.5t-84 -121.5t-121.5 -60.5t-144 -16.5zM285 71q36 0 67 -13t54 -36t36.5 -55t13.5 -69q0 -35 -13.5 -65.5t-36.5 -53.5
t-54 -36.5t-67 -13.5q-38 0 -70 13.5t-55 36.5t-36.5 53.5t-13.5 65.5q0 37 13 69t36 55t55 36t71 13zM285 -186q33 0 54 24.5t21 59.5q0 38 -21 63t-54 25q-35 0 -57 -25t-22 -63q0 -35 22 -59.5t57 -24.5zM354 1056h-235v211h235v-211zM696 1056h-235v211h235v-211z" />
    <glyph glyph-name="uni067C.medi" unicode="&#x67c;" horiz-adv-x="684" 
d="M132 -25h-132q-35 0 -52.5 36.5t-17.5 99.5t17.5 99.5t52.5 36.5h142q43 0 73 3.5t49 16.5t27.5 39.5t8.5 73.5v475h213v-406q0 -52 3 -90t19.5 -63t51 -37t97.5 -12v-272h-46q-87 0 -149 27.5t-91 87.5h-6q-26 -35 -58 -57t-66.5 -35t-69.5 -18t-66 -5zM275 71
q36 0 67 -13t54 -36t36.5 -55t13.5 -69q0 -35 -13.5 -65.5t-36.5 -53.5t-54 -36.5t-67 -13.5q-38 0 -70 13.5t-55 36.5t-36.5 53.5t-13.5 65.5q0 37 13 69t36 55t55 36t71 13zM275 -186q33 0 54 24.5t21 59.5q0 38 -21 63t-54 25q-35 0 -57 -25t-22 -63q0 -35 22 -59.5
t57 -24.5zM354 1056h-235v211h235v-211zM696 1056h-235v211h235v-211z" />
    <glyph glyph-name="uni067C.fina" unicode="&#x67c;" horiz-adv-x="1881" 
d="M1710 449q0 -52 3 -90t19.5 -63t51 -37t97.5 -12v-272h-46q-85 0 -144.5 29.5t-88.5 89.5h-6q-50 -45 -117 -70t-153 -38t-190.5 -16t-228.5 -3q-101 0 -197.5 2t-182 12.5t-156.5 31.5t-120 60q-36 28 -60.5 65t-39.5 79t-21.5 87t-6.5 90q0 70 10.5 137t27.5 133h214
q-8 -37 -14 -66.5t-10.5 -55t-6.5 -49.5t-2 -49q0 -43 10.5 -79t48.5 -65q30 -23 75.5 -35.5t114 -19.5t164 -8.5t225.5 -1.5q156 0 256.5 3.5t158 19t80 47.5t22.5 89v461h213v-406zM944 47q36 0 67 -13t54 -36t36.5 -55t13.5 -69q0 -35 -13.5 -65.5t-36.5 -53.5t-54 -36.5
t-67 -13.5q-38 0 -70 13.5t-55 36.5t-36.5 53.5t-13.5 65.5q0 37 13 69t36 55t55 36t71 13zM944 -210q33 0 54 24.5t21 59.5q0 38 -21 63t-54 25q-35 0 -57 -25t-22 -63q0 -35 22 -59.5t57 -24.5zM888 1056h-235v211h235v-211zM1230 1056h-235v211h235v-211z" />
    <glyph glyph-name="uni067D.init" unicode="&#x67d;" horiz-adv-x="684" 
d="M132 -25h-132q-35 0 -52.5 36.5t-17.5 99.5t17.5 99.5t52.5 36.5h142q40 0 70 3t49.5 16t29 39.5t9.5 74.5v475h213v-482q0 -122 -31.5 -199.5t-84 -121.5t-121.5 -60.5t-144 -16.5zM461 1547h235v-211h-235v211zM118 1547h235v-211h-235v211zM289 1267h235v-211h-235
v211z" />
    <glyph glyph-name="uni067D.medi" unicode="&#x67d;" horiz-adv-x="684" 
d="M132 -25h-132q-35 0 -52.5 36.5t-17.5 99.5t17.5 99.5t52.5 36.5h142q43 0 73 3.5t49 16.5t27.5 39.5t8.5 73.5v475h213v-406q0 -52 3 -90t19.5 -63t51 -37t97.5 -12v-272h-46q-87 0 -149 27.5t-91 87.5h-6q-26 -35 -58 -57t-66.5 -35t-69.5 -18t-66 -5zM461 1547h235
v-211h-235v211zM118 1547h235v-211h-235v211zM289 1267h235v-211h-235v211z" />
    <glyph glyph-name="uni067D.fina" unicode="&#x67d;" horiz-adv-x="1881" 
d="M1710 449q0 -52 3 -90t19.5 -63t51 -37t97.5 -12v-272h-46q-85 0 -144.5 29.5t-88.5 89.5h-6q-50 -45 -117 -70t-153 -38t-190.5 -16t-228.5 -3q-101 0 -197.5 2t-182 12.5t-156.5 31.5t-120 60q-36 28 -60.5 65t-39.5 79t-21.5 87t-6.5 90q0 70 10.5 137t27.5 133h214
q-8 -37 -14 -66.5t-10.5 -55t-6.5 -49.5t-2 -49q0 -43 10.5 -79t48.5 -65q30 -23 75.5 -35.5t114 -19.5t164 -8.5t225.5 -1.5q156 0 256.5 3.5t158 19t80 47.5t22.5 89v461h213v-406zM995 1547h235v-211h-235v211zM652 1547h235v-211h-235v211zM823 1267h235v-211h-235v211z
" />
    <glyph glyph-name="uni067E" unicode="&#x67e;" horiz-adv-x="1881" arabic-form="isolated" 
d="M1497 855h213v-468q0 -97 -27.5 -166t-77.5 -115.5t-120.5 -74t-157.5 -42t-187 -18.5t-210 -4q-116 0 -218 2t-188 12.5t-155 31.5t-118 60q-36 28 -60.5 65t-39.5 79t-21.5 87t-6.5 90q0 70 10.5 137t27.5 133h214q-8 -37 -14.5 -66.5t-10.5 -55t-6 -49.5t-2 -49
q0 -43 10.5 -79t48.5 -65q30 -23 75.5 -35.5t114.5 -19.5t164.5 -8.5t224.5 -1.5q156 0 256.5 3.5t158 19t80 47.5t22.5 89v461zM995 -101h235v-211h-235v211zM652 -101h235v-211h-235v211zM823 -381h235v-211h-235v211z" />
    <glyph glyph-name="uni067F" unicode="&#x67f;" horiz-adv-x="1881" arabic-form="isolated" 
d="M1497 855h213v-468q0 -97 -27.5 -166t-77.5 -115.5t-120.5 -74t-157.5 -42t-187 -18.5t-210 -4q-116 0 -218 2t-188 12.5t-155 31.5t-118 60q-36 28 -60.5 65t-39.5 79t-21.5 87t-6.5 90q0 70 10.5 137t27.5 133h214q-8 -37 -14.5 -66.5t-10.5 -55t-6 -49.5t-2 -49
q0 -43 10.5 -79t48.5 -65q30 -23 75.5 -35.5t114.5 -19.5t164.5 -8.5t224.5 -1.5q156 0 256.5 3.5t158 19t80 47.5t22.5 89v461zM887 1056h-235v211h235v-211zM1230 1056h-235v211h235v-211zM887 1336h-235v211h235v-211zM1230 1336h-235v211h235v-211z" />
    <glyph glyph-name="uni0680" unicode="&#x680;" horiz-adv-x="1881" arabic-form="isolated" 
d="M1497 855h213v-468q0 -97 -27.5 -166t-77.5 -115.5t-120.5 -74t-157.5 -42t-187 -18.5t-210 -4q-116 0 -218 2t-188 12.5t-155 31.5t-118 60q-36 28 -60.5 65t-39.5 79t-21.5 87t-6.5 90q0 70 10.5 137t27.5 133h214q-8 -37 -14.5 -66.5t-10.5 -55t-6 -49.5t-2 -49
q0 -43 10.5 -79t48.5 -65q30 -23 75.5 -35.5t114.5 -19.5t164.5 -8.5t224.5 -1.5q156 0 256.5 3.5t158 19t80 47.5t22.5 89v461zM887 -592h-235v211h235v-211zM1230 -592h-235v211h235v-211zM887 -312h-235v211h235v-211zM1230 -312h-235v211h235v-211z" />
    <glyph glyph-name="uni0681.init" unicode="&#x681;" horiz-adv-x="1197" 
d="M816 527q-44 27 -85.5 46t-86.5 31t-95.5 17.5t-112.5 5.5q-72 0 -135 -8t-130 -26v252q72 20 136.5 31t139.5 11q79 0 140 -14t113 -36t99 -48t97 -51q25 -12 52 -21t59.5 -15t71.5 -10t88 -7l-49 -291q-50 -12 -109.5 -47.5t-131 -82t-157.5 -97.5t-189 -93.5
t-224.5 -70.5t-263.5 -28h-43q-35 0 -52.5 36.5t-17.5 99.5t17.5 99.5t52.5 36.5h52q117 0 221 23.5t198 62t179.5 87t165.5 99.5v8zM750 1288q-23 5 -43.5 8t-32.5 3q-37 0 -61.5 -15.5t-24.5 -53.5t28 -57t80 -19h100v-115h-377v109h80l1 4q-20 26 -30.5 50.5t-10.5 51.5
q0 36 15 65.5t42.5 51.5t66 34t85.5 12q34 0 82 -9v-120z" />
    <glyph glyph-name="uni0681.medi" unicode="&#x681;" horiz-adv-x="1197" 
d="M816 527q-44 27 -85.5 46t-86.5 31t-95.5 17.5t-112.5 5.5q-72 0 -135 -8t-130 -26v252q72 20 136.5 31t139.5 11q79 0 140 -14t113 -36t99 -48t97 -51q25 -12 52 -21t59.5 -15t71.5 -10t88 -7l-49 -291q-39 -10 -84.5 -34.5t-97.5 -57.5q4 -19 12 -30t22.5 -16.5
t37.5 -7t58 -1.5h131v-272h-64q-89 0 -148 17.5t-96.5 49t-57.5 75.5t-30 98q-69 -43 -149.5 -85.5t-174 -77t-202 -56t-232.5 -21.5h-43q-35 0 -52.5 36.5t-17.5 99.5t17.5 99.5t52.5 36.5h52q117 0 221 23.5t198 62t179.5 87t165.5 99.5v8zM750 1288q-23 5 -43.5 8
t-32.5 3q-37 0 -61.5 -15.5t-24.5 -53.5t28 -57t80 -19h100v-115h-377v109h80l1 4q-20 26 -30.5 50.5t-10.5 51.5q0 36 15 65.5t42.5 51.5t66 34t85.5 12q34 0 82 -9v-120z" />
    <glyph glyph-name="uni0681.fina" unicode="&#x681;" horiz-adv-x="1197" 
d="M703 642q-29 19 -56.5 31.5t-56.5 20t-62 10.5t-73 3q-73 0 -147 -9t-137 -26v252q66 20 127 31t130 11q75 0 132 -12.5t106 -31.5t94 -41t96.5 -41.5t114 -32.5t145.5 -14l-51 -287l-103 -30q10 -78 28.5 -123.5t47 -69t68 -30t91.5 -6.5v-272h-30q-83 0 -147.5 22.5
t-110.5 74.5t-75 136.5t-42 209.5q-134 -51 -221 -104t-138 -106t-71 -104.5t-20 -100.5q0 -45 17 -92.5t59.5 -86.5t115.5 -64t184 -25q94 0 192 20t217 63v-260q-63 -22 -117.5 -37.5t-104.5 -25.5t-98 -14.5t-98 -4.5q-146 0 -255 36.5t-181 102.5t-108 158t-36 203
q0 91 26.5 185t92 181t176 162t279.5 129v9zM770 1394q-23 5 -43.5 8t-32.5 3q-37 0 -61.5 -15.5t-24.5 -53.5t28 -57t80 -19h100v-115h-377v109h80l1 4q-20 26 -30.5 50.5t-10.5 51.5q0 36 15 65.5t42.5 51.5t66 34t85.5 12q34 0 82 -9v-120z" />
    <glyph glyph-name="uni0682.init" unicode="&#x682;" horiz-adv-x="1197" 
d="M816 527q-44 27 -85.5 46t-86.5 31t-95.5 17.5t-112.5 5.5q-72 0 -135 -8t-130 -26v252q72 20 136.5 31t139.5 11q79 0 140 -14t113 -36t99 -48t97 -51q25 -12 52 -21t59.5 -15t71.5 -10t88 -7l-49 -291q-50 -12 -109.5 -47.5t-131 -82t-157.5 -97.5t-189 -93.5
t-224.5 -70.5t-263.5 -28h-43q-35 0 -52.5 36.5t-17.5 99.5t17.5 99.5t52.5 36.5h52q117 0 221 23.5t198 62t179.5 87t165.5 99.5v8zM716 1035h-235v211h235v-211zM716 1315h-235v211h235v-211z" />
    <glyph glyph-name="uni0682.medi" unicode="&#x682;" horiz-adv-x="1197" 
d="M816 527q-44 27 -85.5 46t-86.5 31t-95.5 17.5t-112.5 5.5q-72 0 -135 -8t-130 -26v252q72 20 136.5 31t139.5 11q79 0 140 -14t113 -36t99 -48t97 -51q25 -12 52 -21t59.5 -15t71.5 -10t88 -7l-49 -291q-39 -10 -84.5 -34.5t-97.5 -57.5q4 -19 12 -30t22.5 -16.5
t37.5 -7t58 -1.5h131v-272h-64q-89 0 -148 17.5t-96.5 49t-57.5 75.5t-30 98q-69 -43 -149.5 -85.5t-174 -77t-202 -56t-232.5 -21.5h-43q-35 0 -52.5 36.5t-17.5 99.5t17.5 99.5t52.5 36.5h52q117 0 221 23.5t198 62t179.5 87t165.5 99.5v8zM716 1035h-235v211h235v-211z
M716 1315h-235v211h235v-211z" />
    <glyph glyph-name="uni0682.fina" unicode="&#x682;" horiz-adv-x="1197" 
d="M703 642q-29 19 -56.5 31.5t-56.5 20t-62 10.5t-73 3q-73 0 -147 -9t-137 -26v252q66 20 127 31t130 11q75 0 132 -12.5t106 -31.5t94 -41t96.5 -41.5t114 -32.5t145.5 -14l-51 -287l-103 -30q10 -78 28.5 -123.5t47 -69t68 -30t91.5 -6.5v-272h-30q-83 0 -147.5 22.5
t-110.5 74.5t-75 136.5t-42 209.5q-134 -51 -221 -104t-138 -106t-71 -104.5t-20 -100.5q0 -45 17 -92.5t59.5 -86.5t115.5 -64t184 -25q94 0 192 20t217 63v-260q-63 -22 -117.5 -37.5t-104.5 -25.5t-98 -14.5t-98 -4.5q-146 0 -255 36.5t-181 102.5t-108 158t-36 203
q0 91 26.5 185t92 181t176 162t279.5 129v9zM748 1146h-235v211h235v-211zM748 1426h-235v211h235v-211z" />
    <glyph glyph-name="uni0683" unicode="&#x683;" horiz-adv-x="1198" arabic-form="isolated" 
d="M707 -50h-205v211h205v-211zM1023 -50h-205v211h205v-211zM703 642q-29 19 -56.5 31.5t-56.5 20t-62 10.5t-73 3q-73 0 -147 -9t-137 -26v252q66 20 127 31t130 11q75 0 132 -12.5t106 -31.5t94 -41t96.5 -41.5t114 -32.5t145.5 -14l-49 -277q-220 -60 -362 -123.5
t-225 -128.5t-115.5 -131t-32.5 -130q0 -49 18.5 -98.5t63 -89.5t119 -65t185.5 -25q94 0 192 20t217 63v-250q-63 -22 -117.5 -37.5t-104.5 -25.5t-98 -14.5t-98 -4.5q-146 0 -255 36.5t-181 102.5t-108 158t-36 203q0 91 26.5 185t92 181t176 162t279.5 129v9z" />
    <glyph glyph-name="uni0684" unicode="&#x684;" horiz-adv-x="1197" arabic-form="isolated" 
d="M836 82h-221v179h221v-179zM836 -178h-221v179h221v-179zM703 642q-29 19 -56.5 31.5t-56.5 20t-62 10.5t-73 3q-73 0 -147 -9t-137 -26v252q66 20 127 31t130 11q75 0 132 -12.5t106 -31.5t94 -41t96.5 -41.5t114 -32.5t145.5 -14l-51 -287q-147 -40 -257.5 -81.5
t-190.5 -84t-133 -86t-84.5 -86t-44.5 -84t-13 -81.5q0 -45 17 -92.5t59.5 -86.5t115.5 -64t184 -25q94 0 192 20t217 63v-260q-63 -22 -117.5 -37.5t-104.5 -25.5t-98 -14.5t-98 -4.5q-146 0 -255 36.5t-181 102.5t-108 158t-36 203q0 91 26.5 185t92 181t176 162
t279.5 129v9z" />
    <glyph glyph-name="uni0685.init" unicode="&#x685;" horiz-adv-x="1197" 
d="M816 527q-44 27 -85.5 46t-86.5 31t-95.5 17.5t-112.5 5.5q-72 0 -135 -8t-130 -26v252q72 20 136.5 31t139.5 11q79 0 140 -14t113 -36t99 -48t97 -51q25 -12 52 -21t59.5 -15t71.5 -10t88 -7l-49 -291q-50 -12 -109.5 -47.5t-131 -82t-157.5 -97.5t-189 -93.5
t-224.5 -70.5t-263.5 -28h-43q-35 0 -52.5 36.5t-17.5 99.5t17.5 99.5t52.5 36.5h52q117 0 221 23.5t198 62t179.5 87t165.5 99.5v8zM544 1035h-235v211h235v-211zM887 1035h-235v211h235v-211zM716 1315h-235v211h235v-211z" />
    <glyph glyph-name="uni0685.medi" unicode="&#x685;" horiz-adv-x="1197" 
d="M816 527q-44 27 -85.5 46t-86.5 31t-95.5 17.5t-112.5 5.5q-72 0 -135 -8t-130 -26v252q72 20 136.5 31t139.5 11q79 0 140 -14t113 -36t99 -48t97 -51q25 -12 52 -21t59.5 -15t71.5 -10t88 -7l-49 -291q-39 -10 -84.5 -34.5t-97.5 -57.5q4 -19 12 -30t22.5 -16.5
t37.5 -7t58 -1.5h131v-272h-64q-89 0 -148 17.5t-96.5 49t-57.5 75.5t-30 98q-69 -43 -149.5 -85.5t-174 -77t-202 -56t-232.5 -21.5h-43q-35 0 -52.5 36.5t-17.5 99.5t17.5 99.5t52.5 36.5h52q117 0 221 23.5t198 62t179.5 87t165.5 99.5v8zM544 1035h-235v211h235v-211z
M887 1035h-235v211h235v-211zM716 1315h-235v211h235v-211z" />
    <glyph glyph-name="uni0685.fina" unicode="&#x685;" horiz-adv-x="1197" 
d="M703 642q-29 19 -56.5 31.5t-56.5 20t-62 10.5t-73 3q-73 0 -147 -9t-137 -26v252q66 20 127 31t130 11q75 0 132 -12.5t106 -31.5t94 -41t96.5 -41.5t114 -32.5t145.5 -14l-51 -287l-103 -30q10 -78 28.5 -123.5t47 -69t68 -30t91.5 -6.5v-272h-30q-83 0 -147.5 22.5
t-110.5 74.5t-75 136.5t-42 209.5q-134 -51 -221 -104t-138 -106t-71 -104.5t-20 -100.5q0 -45 17 -92.5t59.5 -86.5t115.5 -64t184 -25q94 0 192 20t217 63v-260q-63 -22 -117.5 -37.5t-104.5 -25.5t-98 -14.5t-98 -4.5q-146 0 -255 36.5t-181 102.5t-108 158t-36 203
q0 91 26.5 185t92 181t176 162t279.5 129v9zM574 1146h-235v211h235v-211zM917 1146h-235v211h235v-211zM746 1426h-235v211h235v-211z" />
    <glyph glyph-name="uni0686" unicode="&#x686;" horiz-adv-x="1197" arabic-form="isolated" 
d="M707 62h-181v179h181v-179zM999 62h-181v179h181v-179zM853 -198h-181v179h181v-179zM703 642q-29 19 -56.5 31.5t-56.5 20t-62 10.5t-73 3q-73 0 -147 -9t-137 -26v252q66 20 127 31t130 11q75 0 132 -12.5t106 -31.5t94 -41t96.5 -41.5t114 -32.5t145.5 -14l-49 -277
q-220 -60 -362 -123.5t-225 -128.5t-115.5 -131t-32.5 -130q0 -49 18.5 -98.5t63 -89.5t119 -65t185.5 -25q94 0 192 20t217 63v-250q-63 -22 -117.5 -37.5t-104.5 -25.5t-98 -14.5t-98 -4.5q-146 0 -255 36.5t-181 102.5t-108 158t-36 203q0 91 26.5 185t92 181t176 162
t279.5 129v9z" />
    <glyph glyph-name="uni0687" unicode="&#x687;" horiz-adv-x="1197" arabic-form="isolated" 
d="M707 72h-181v179h181v-179zM999 72h-181v179h181v-179zM703 642q-29 19 -56.5 31.5t-56.5 20t-62 10.5t-73 3q-73 0 -147 -9t-137 -26v252q66 20 127 31t130 11q75 0 132 -12.5t106 -31.5t94 -41t96.5 -41.5t114 -32.5t145.5 -14l-49 -277q-220 -60 -362 -123.5
t-225 -128.5t-115.5 -131t-32.5 -130q0 -49 18.5 -98.5t63 -89.5t119 -65t185.5 -25q94 0 192 20t217 63v-250q-63 -22 -117.5 -37.5t-104.5 -25.5t-98 -14.5t-98 -4.5q-146 0 -255 36.5t-181 102.5t-108 158t-36 203q0 91 26.5 185t92 181t176 162t279.5 129v9zM707 -188
h-181v179h181v-179zM999 -188h-181v179h181v-179z" />
    <glyph glyph-name="uni0688" unicode="&#x688;" horiz-adv-x="1026" arabic-form="isolated" 
d="M392 -29q-57 0 -134 6.5t-165 22.5l-54 275q112 -16 203.5 -24t163.5 -8q103 0 157.5 27t54.5 99q0 70 -28 144.5t-79 157.5t-121.5 176t-155.5 201h279q80 -90 143.5 -178.5t107.5 -174.5t67.5 -171t23.5 -167q0 -114 -36 -189t-98.5 -118.5t-147 -61t-181.5 -17.5z
M35 1400q33 -4 64 -5.5t62 -1.5v492h125v-314l4 -1q38 49 82.5 81t107.5 32q52 0 89.5 -20t61.5 -53.5t35.5 -76t11.5 -87.5q0 -66 -20.5 -102.5t-56.5 -53.5t-85 -20t-106 -3q-71 0 -125.5 1t-97 2.5t-75.5 4t-61 5.5zM398 1390q46 0 77 1t49.5 6.5t26.5 17.5t8 33
q0 54 -26.5 83.5t-63.5 29.5q-29 0 -55 -15t-49 -39t-42 -54.5t-34 -62.5h109z" />
    <glyph glyph-name="uni0689.fina" unicode="&#x689;" horiz-adv-x="1026" 
d="M392 -29q-57 0 -134 6.5t-165 22.5l-54 275q112 -16 201 -24t161 -8q69 0 109.5 9.5t62 28t27.5 45.5t6 62q0 46 -15 119t-40 161.5t-58 186t-69 192.5h252q57 -168 95 -309.5t67 -270.5q9 -39 19 -78t29.5 -70.5t52.5 -51.5t87 -20v-272h-30q-31 0 -60.5 7t-56.5 22.5
t-50.5 41.5t-42.5 65h-5q-32 -41 -75 -67.5t-93.5 -43t-106.5 -23t-114 -6.5zM430 56q36 0 67 -13t54 -36t36.5 -55t13.5 -69q0 -35 -13.5 -65.5t-36.5 -53.5t-54 -36.5t-67 -13.5q-38 0 -70 13.5t-55 36.5t-36.5 53.5t-13.5 65.5q0 37 13 69t36 55t55 36t71 13zM430 -201
q33 0 54 24.5t21 59.5q0 38 -21 63t-54 25q-35 0 -57 -25t-22 -63q0 -35 22 -59.5t57 -24.5z" />
    <glyph glyph-name="uni068A.fina" unicode="&#x68a;" horiz-adv-x="1026" 
d="M392 -29q-57 0 -134 6.5t-165 22.5l-54 275q112 -16 201 -24t161 -8q69 0 109.5 9.5t62 28t27.5 45.5t6 62q0 46 -15 119t-40 161.5t-58 186t-69 192.5h252q57 -168 95 -309.5t67 -270.5q9 -39 19 -78t29.5 -70.5t52.5 -51.5t87 -20v-272h-30q-31 0 -60.5 7t-56.5 22.5
t-50.5 41.5t-42.5 65h-5q-32 -41 -75 -67.5t-93.5 -43t-106.5 -23t-114 -6.5zM149 1400q33 -4 64 -5.5t62 -1.5v492h125v-314l4 -1q38 49 82.5 81t107.5 32q52 0 89.5 -20t61.5 -53.5t35.5 -76t11.5 -87.5q0 -66 -20.5 -102.5t-56.5 -53.5t-85 -20t-106 -3q-71 0 -125.5 1
t-97 2.5t-75.5 4t-61 5.5zM512 1390q46 0 77 1t49.5 6.5t26.5 17.5t8 33q0 54 -26.5 83.5t-63.5 29.5q-29 0 -55 -15t-49 -39t-42 -54.5t-34 -62.5h109zM545 -371h-235v211h235v-211z" />
    <glyph glyph-name="uni068B.fina" unicode="&#x68b;" horiz-adv-x="1026" 
d="M392 -29q-57 0 -134 6.5t-165 22.5l-54 275q112 -16 201 -24t161 -8q69 0 109.5 9.5t62 28t27.5 45.5t6 62q0 46 -15 119t-40 161.5t-58 186t-69 192.5h252q57 -168 95 -309.5t67 -270.5q9 -39 19 -78t29.5 -70.5t52.5 -51.5t87 -20v-272h-30q-31 0 -60.5 7t-56.5 22.5
t-50.5 41.5t-42.5 65h-5q-32 -41 -75 -67.5t-93.5 -43t-106.5 -23t-114 -6.5zM545 -371h-235v211h235v-211zM599 1257h-235v211h235v-211z" />
    <glyph glyph-name="uni068C" unicode="&#x68c;" horiz-adv-x="1026" arabic-form="isolated" 
d="M392 -29q-57 0 -134 6.5t-165 22.5l-54 275q112 -16 203.5 -24t163.5 -8q103 0 157.5 27t54.5 99q0 70 -28 144.5t-79 157.5t-121.5 176t-155.5 201h279q80 -90 143.5 -178.5t107.5 -174.5t67.5 -171t23.5 -167q0 -114 -36 -189t-98.5 -118.5t-147 -61t-181.5 -17.5z
M314 1257h-235v211h235v-211zM656 1257h-235v211h235v-211z" />
    <glyph glyph-name="uni068D" unicode="&#x68d;" horiz-adv-x="1026" arabic-form="isolated" 
d="M392 -29q-57 0 -134 6.5t-165 22.5l-54 275q112 -16 203.5 -24t163.5 -8q103 0 157.5 27t54.5 99q0 70 -28 144.5t-79 157.5t-121.5 176t-155.5 201h279q80 -90 143.5 -178.5t107.5 -174.5t67.5 -171t23.5 -167q0 -114 -36 -189t-98.5 -118.5t-147 -61t-181.5 -17.5z
M374 -371h-235v211h235v-211zM716 -371h-235v211h235v-211z" />
    <glyph glyph-name="uni068E" unicode="&#x68e;" horiz-adv-x="1026" arabic-form="isolated" 
d="M392 -29q-57 0 -134 6.5t-165 22.5l-54 275q112 -16 203.5 -24t163.5 -8q103 0 157.5 27t54.5 99q0 70 -28 144.5t-79 157.5t-121.5 176t-155.5 201h279q80 -90 143.5 -178.5t107.5 -174.5t67.5 -171t23.5 -167q0 -114 -36 -189t-98.5 -118.5t-147 -61t-181.5 -17.5z
M313 1257h-235v211h235v-211zM656 1257h-235v211h235v-211zM485 1537h-235v211h235v-211z" />
    <glyph glyph-name="uni068F.fina" unicode="&#x68f;" horiz-adv-x="1026" 
d="M392 -29q-57 0 -134 6.5t-165 22.5l-54 275q112 -16 201 -24t161 -8q69 0 109.5 9.5t62 28t27.5 45.5t6 62q0 46 -15 119t-40 161.5t-58 186t-69 192.5h252q57 -168 95 -309.5t67 -270.5q9 -39 19 -78t29.5 -70.5t52.5 -51.5t87 -20v-272h-30q-31 0 -60.5 7t-56.5 22.5
t-50.5 41.5t-42.5 65h-5q-32 -41 -75 -67.5t-93.5 -43t-106.5 -23t-114 -6.5zM535 1748h235v-211h-235v211zM192 1748h235v-211h-235v211zM363 1468h235v-211h-235v211z" />
    <glyph glyph-name="uni0690.fina" unicode="&#x690;" horiz-adv-x="1026" 
d="M392 -29q-57 0 -134 6.5t-165 22.5l-54 275q112 -16 201 -24t161 -8q69 0 109.5 9.5t62 28t27.5 45.5t6 62q0 46 -15 119t-40 161.5t-58 186t-69 192.5h252q57 -168 95 -309.5t67 -270.5q9 -39 19 -78t29.5 -70.5t52.5 -51.5t87 -20v-272h-30q-31 0 -60.5 7t-56.5 22.5
t-50.5 41.5t-42.5 65h-5q-32 -41 -75 -67.5t-93.5 -43t-106.5 -23t-114 -6.5zM427 1257h-235v211h235v-211zM770 1257h-235v211h235v-211zM427 1537h-235v211h235v-211zM770 1537h-235v211h235v-211z" />
    <glyph glyph-name="uni0691" unicode="&#x691;" horiz-adv-x="855" arabic-form="isolated" 
d="M0 -211q69 -20 115.5 -28.5t85.5 -8.5q81 0 132 28.5t80 76.5t39.5 111t10.5 133q0 67 -9 133.5t-27 138.5t-44.5 152t-60.5 175h236q31 -77 54.5 -156t39.5 -158t24 -155t8 -146q0 -159 -38.5 -274t-104 -189.5t-151.5 -110t-182 -35.5q-48 0 -96.5 9.5t-111.5 32.5v271
zM78 1058q33 -4 64 -5.5t62 -1.5v492h125v-314l4 -1q38 49 82.5 81t107.5 32q52 0 89.5 -20t61.5 -53.5t35.5 -76t11.5 -87.5q0 -66 -20.5 -102.5t-56.5 -53.5t-85 -20t-106 -3q-71 0 -125.5 1t-97 2.5t-75.5 4t-61 5.5zM441 1048q46 0 77 1t49.5 6.5t26.5 17.5t8 33
q0 54 -26.5 83.5t-63.5 29.5q-29 0 -55 -15t-49 -39t-42 -54.5t-34 -62.5h109z" />
    <glyph glyph-name="uni0692.fina" unicode="&#x692;" horiz-adv-x="855" 
d="M0 -211q69 -20 115.5 -28.5t85.5 -8.5q81 0 132 28.5t80 76.5t39.5 111t10.5 133q0 67 -9 133.5t-27 138.5t-44.5 152t-60.5 175h236q35 -88 60.5 -178.5t41.5 -179.5q4 -20 13.5 -37t31 -30t57.5 -20.5t93 -7.5v-272h-26q-29 0 -50 4t-37.5 11t-29 17.5t-24.5 24.5
l-5 -1q-7 -145 -47.5 -249.5t-105 -172.5t-148 -100.5t-174.5 -32.5q-48 0 -96.5 9.5t-111.5 32.5v271zM550 1282h174l-239 -365h-144l-245 365h179l139 -206z" />
    <glyph glyph-name="uni0693.fina" unicode="&#x693;" horiz-adv-x="855" 
d="M0 -211q69 -20 115.5 -28.5t85.5 -8.5q81 0 132 28.5t80 76.5t39.5 111t10.5 133q0 67 -9 133.5t-27 138.5t-44.5 152t-60.5 175h236q35 -88 60.5 -178.5t41.5 -179.5q4 -20 13.5 -37t31 -30t57.5 -20.5t93 -7.5v-272h-26q-29 0 -50 4t-37.5 11t-29 17.5t-24.5 24.5
l-5 -1q-7 -145 -47.5 -249.5t-105 -172.5t-148 -100.5t-174.5 -32.5q-48 0 -96.5 9.5t-111.5 32.5v271zM659 -185q36 0 67 -13t54 -36t36.5 -55t13.5 -69q0 -35 -13.5 -65.5t-36.5 -53.5t-54 -36.5t-67 -13.5q-38 0 -70 13.5t-55 36.5t-36.5 53.5t-13.5 65.5q0 37 13 69
t36 55t55 36t71 13zM659 -442q33 0 54 24.5t21 59.5q0 38 -21 63t-54 25q-35 0 -57 -25t-22 -63q0 -35 22 -59.5t57 -24.5z" />
    <glyph glyph-name="uni0694.fina" unicode="&#x694;" horiz-adv-x="855" 
d="M0 -211q69 -20 115.5 -28.5t85.5 -8.5q81 0 132 28.5t80 76.5t39.5 111t10.5 133q0 67 -9 133.5t-27 138.5t-44.5 152t-60.5 175h236q35 -88 60.5 -178.5t41.5 -179.5q4 -20 13.5 -37t31 -30t57.5 -20.5t93 -7.5v-272h-26q-29 0 -50 4t-37.5 11t-29 17.5t-24.5 24.5
l-5 -1q-7 -145 -47.5 -249.5t-105 -172.5t-148 -100.5t-174.5 -32.5q-48 0 -96.5 9.5t-111.5 32.5v271zM872 -542h-235v211h235v-211z" />
    <glyph glyph-name="uni0695.fina" unicode="&#x695;" horiz-adv-x="855" 
d="M0 -211q69 -20 115.5 -28.5t85.5 -8.5q81 0 132 28.5t80 76.5t39.5 111t10.5 133q0 67 -9 133.5t-27 138.5t-44.5 152t-60.5 175h236q35 -88 60.5 -178.5t41.5 -179.5q4 -20 13.5 -37t31 -30t57.5 -20.5t93 -7.5v-272h-26q-29 0 -50 4t-37.5 11t-29 17.5t-24.5 24.5
l-5 -1q-7 -145 -47.5 -249.5t-105 -172.5t-148 -100.5t-174.5 -32.5q-48 0 -96.5 9.5t-111.5 32.5v271zM917 -198h174l-239 -365h-144l-245 365h179l139 -206z" />
    <glyph glyph-name="uni0696.fina" unicode="&#x696;" horiz-adv-x="855" 
d="M0 -211q69 -20 115.5 -28.5t85.5 -8.5q81 0 132 28.5t80 76.5t39.5 111t10.5 133q0 67 -9 133.5t-27 138.5t-44.5 152t-60.5 175h236q35 -88 60.5 -178.5t41.5 -179.5q4 -20 13.5 -37t31 -30t57.5 -20.5t93 -7.5v-272h-26q-29 0 -50 4t-37.5 11t-29 17.5t-24.5 24.5
l-5 -1q-7 -145 -47.5 -249.5t-105 -172.5t-148 -100.5t-174.5 -32.5q-48 0 -96.5 9.5t-111.5 32.5v271zM872 -542h-235v211h235v-211zM304 0h-235v211h235v-211z" />
    <glyph glyph-name="uni0697.fina" unicode="&#x697;" horiz-adv-x="855" 
d="M0 -211q69 -20 115.5 -28.5t85.5 -8.5q81 0 132 28.5t80 76.5t39.5 111t10.5 133q0 67 -9 133.5t-27 138.5t-44.5 152t-60.5 175h236q35 -88 60.5 -178.5t41.5 -179.5q4 -20 13.5 -37t31 -30t57.5 -20.5t93 -7.5v-272h-26q-29 0 -50 4t-37.5 11t-29 17.5t-24.5 24.5
l-5 -1q-7 -145 -47.5 -249.5t-105 -172.5t-148 -100.5t-174.5 -32.5q-48 0 -96.5 9.5t-111.5 32.5v271zM357 915h-235v211h235v-211zM699 915h-235v211h235v-211z" />
    <glyph glyph-name="uni0698" unicode="&#x698;" horiz-adv-x="855" arabic-form="isolated" 
d="M0 -211q69 -20 115.5 -28.5t85.5 -8.5q81 0 132 28.5t80 76.5t39.5 111t10.5 133q0 67 -9 133.5t-27 138.5t-44.5 152t-60.5 175h236q31 -77 54.5 -156t39.5 -158t24 -155t8 -146q0 -159 -38.5 -274t-104 -189.5t-151.5 -110t-182 -35.5q-48 0 -96.5 9.5t-111.5 32.5v271
zM356 915h-235v211h235v-211zM699 915h-235v211h235v-211zM528 1195h-235v211h235v-211z" />
    <glyph glyph-name="uni0699.fina" unicode="&#x699;" horiz-adv-x="855" 
d="M0 -211q69 -20 115.5 -28.5t85.5 -8.5q81 0 132 28.5t80 76.5t39.5 111t10.5 133q0 67 -9 133.5t-27 138.5t-44.5 152t-60.5 175h236q35 -88 60.5 -178.5t41.5 -179.5q4 -20 13.5 -37t31 -30t57.5 -20.5t93 -7.5v-272h-26q-29 0 -50 4t-37.5 11t-29 17.5t-24.5 24.5
l-5 -1q-7 -145 -47.5 -249.5t-105 -172.5t-148 -100.5t-174.5 -32.5q-48 0 -96.5 9.5t-111.5 32.5v271zM356 915h-235v211h235v-211zM699 915h-235v211h235v-211zM356 1195h-235v211h235v-211zM699 1195h-235v211h235v-211z" />
    <glyph glyph-name="uni069A.init" unicode="&#x69a;" horiz-adv-x="1710" 
d="M392 88q-28 -32 -61.5 -54t-69 -35t-71 -18.5t-67.5 -5.5h-123q-35 0 -52.5 36.5t-17.5 99.5t17.5 99.5t52.5 36.5h133q25 0 54.5 4t54.5 18t42 40.5t17 70.5v284h212v-218q0 -51 3 -88.5t17 -62t43 -36.5t81 -12q30 0 58 3.5t49.5 16.5t35 39.5t13.5 73.5v284h213v-215
q0 -52 3 -90t17.5 -63t46 -37t88.5 -12q31 0 57.5 3t46 16.5t30.5 40t11 73.5v475h213v-488q0 -118 -30 -194t-80 -120t-115 -61t-135 -17q-39 0 -77 5.5t-72 18t-63 34.5t-50 55h-4q-27 -32 -60.5 -54t-69 -35t-70.5 -18.5t-66 -5.5q-90 0 -151.5 26t-99.5 87h-4zM1040 885
h-235v211h235v-211zM1040 -371h-235v211h235v-211z" />
    <glyph glyph-name="uni069A.medi" unicode="&#x69a;" horiz-adv-x="1710" 
d="M392 88q-28 -32 -61.5 -54t-69 -35t-71 -18.5t-67.5 -5.5h-123q-35 0 -52.5 36.5t-17.5 99.5t17.5 99.5t52.5 36.5h133q25 0 54.5 4t54.5 18t42 40.5t17 70.5v284h212v-218q0 -51 3 -88.5t17 -62t43 -36.5t81 -12q30 0 58 3.5t49.5 16.5t35 39.5t13.5 73.5v284h213v-215
q0 -52 3 -90t17.5 -63t46 -37t88.5 -12q31 0 57.5 3t46 16.5t30.5 40t11 73.5v475h213v-400q0 -53 3 -92t19.5 -64.5t51 -38.5t97.5 -13v-272h-46q-82 0 -138 23t-92 80q-26 -31 -56.5 -51t-63.5 -31.5t-67.5 -16t-67.5 -4.5q-39 0 -77 5.5t-72 18t-63 34.5t-50 55h-4
q-27 -32 -60.5 -54t-69 -35t-70.5 -18.5t-66 -5.5q-91 0 -152 26t-99 87h-4zM1040 885h-235v211h235v-211zM1040 -371h-235v211h235v-211z" />
    <glyph glyph-name="uni069A.fina" unicode="&#x69a;" horiz-adv-x="2394" 
d="M1189 28q-20 -276 -154.5 -414t-402.5 -138q-137 0 -232.5 35.5t-156 104t-88 169.5t-27.5 233q0 36 2 72t6.5 76t11.5 86t18 101h209q-10 -62 -16.5 -109t-10 -83.5t-5 -65t-1.5 -54.5q0 -74 13 -129t46 -91t90 -53.5t145 -17.5q101 0 169 23.5t108.5 73t57.5 125.5
t17 181q0 43 -2.5 87.5t-8.5 99t-14.5 124.5t-20.5 163h214q11 -96 20 -166.5t15 -127.5q3 -28 13.5 -45t30 -26t48.5 -12t68 -3q28 0 54 3.5t46.5 17t33 40t12.5 72.5v284h213v-215q0 -52 3 -90t17.5 -63t46 -37t88.5 -12q31 0 57.5 3t46 16.5t30.5 40t11 73.5v475h213
v-400q0 -53 3 -92t19.5 -64.5t51 -38.5t97.5 -13v-272h-46q-82 0 -138 23t-92 80q-26 -31 -56.5 -51t-63.5 -31.5t-67.5 -16t-67.5 -4.5q-39 0 -77.5 5t-73 18.5t-63 37t-47.5 59.5h-6q-18 -29 -43.5 -51t-56.5 -37.5t-64.5 -23.5t-66.5 -8q-48 0 -91 11t-78 44zM1724 885
h-235v211h235v-211zM1724 -371h-235v211h235v-211z" />
    <glyph glyph-name="uni069B.init" unicode="&#x69b;" horiz-adv-x="1710" 
d="M392 88q-28 -32 -61.5 -54t-69 -35t-71 -18.5t-67.5 -5.5h-123q-35 0 -52.5 36.5t-17.5 99.5t17.5 99.5t52.5 36.5h133q25 0 54.5 4t54.5 18t42 40.5t17 70.5v284h212v-218q0 -51 3 -88.5t17 -62t43 -36.5t81 -12q30 0 58 3.5t49.5 16.5t35 39.5t13.5 73.5v284h213v-215
q0 -52 3 -90t17.5 -63t46 -37t88.5 -12q31 0 57.5 3t46 16.5t30.5 40t11 73.5v475h213v-488q0 -118 -30 -194t-80 -120t-115 -61t-135 -17q-39 0 -77 5.5t-72 18t-63 34.5t-50 55h-4q-27 -32 -60.5 -54t-69 -35t-70.5 -18.5t-66 -5.5q-90 0 -151.5 26t-99.5 87h-4zM976 -101
h235v-211h-235v211zM633 -101h235v-211h-235v211zM804 -381h235v-211h-235v211z" />
    <glyph glyph-name="uni069B.medi" unicode="&#x69b;" horiz-adv-x="1710" 
d="M392 88q-28 -32 -61.5 -54t-69 -35t-71 -18.5t-67.5 -5.5h-123q-35 0 -52.5 36.5t-17.5 99.5t17.5 99.5t52.5 36.5h133q25 0 54.5 4t54.5 18t42 40.5t17 70.5v284h212v-218q0 -51 3 -88.5t17 -62t43 -36.5t81 -12q30 0 58 3.5t49.5 16.5t35 39.5t13.5 73.5v284h213v-215
q0 -52 3 -90t17.5 -63t46 -37t88.5 -12q31 0 57.5 3t46 16.5t30.5 40t11 73.5v475h213v-400q0 -53 3 -92t19.5 -64.5t51 -38.5t97.5 -13v-272h-46q-82 0 -138 23t-92 80q-26 -31 -56.5 -51t-63.5 -31.5t-67.5 -16t-67.5 -4.5q-39 0 -77 5.5t-72 18t-63 34.5t-50 55h-4
q-27 -32 -60.5 -54t-69 -35t-70.5 -18.5t-66 -5.5q-91 0 -152 26t-99 87h-4zM976 -101h235v-211h-235v211zM633 -101h235v-211h-235v211zM804 -381h235v-211h-235v211z" />
    <glyph glyph-name="uni069B.fina" unicode="&#x69b;" horiz-adv-x="2394" 
d="M1189 28q-20 -276 -154.5 -414t-402.5 -138q-137 0 -232.5 35.5t-156 104t-88 169.5t-27.5 233q0 36 2 72t6.5 76t11.5 86t18 101h209q-10 -62 -16.5 -109t-10 -83.5t-5 -65t-1.5 -54.5q0 -74 13 -129t46 -91t90 -53.5t145 -17.5q101 0 169 23.5t108.5 73t57.5 125.5
t17 181q0 43 -2.5 87.5t-8.5 99t-14.5 124.5t-20.5 163h214q11 -96 20 -166.5t15 -127.5q3 -28 13.5 -45t30 -26t48.5 -12t68 -3q28 0 54 3.5t46.5 17t33 40t12.5 72.5v284h213v-215q0 -52 3 -90t17.5 -63t46 -37t88.5 -12q31 0 57.5 3t46 16.5t30.5 40t11 73.5v475h213
v-400q0 -53 3 -92t19.5 -64.5t51 -38.5t97.5 -13v-272h-46q-82 0 -138 23t-92 80q-26 -31 -56.5 -51t-63.5 -31.5t-67.5 -16t-67.5 -4.5q-39 0 -77.5 5t-73 18.5t-63 37t-47.5 59.5h-6q-18 -29 -43.5 -51t-56.5 -37.5t-64.5 -23.5t-66.5 -8q-48 0 -91 11t-78 44zM1660 -101
h235v-211h-235v211zM1317 -101h235v-211h-235v211zM1488 -381h235v-211h-235v211z" />
    <glyph glyph-name="uni069C.init" unicode="&#x69c;" horiz-adv-x="1710" 
d="M392 88q-28 -32 -61.5 -54t-69 -35t-71 -18.5t-67.5 -5.5h-123q-35 0 -52.5 36.5t-17.5 99.5t17.5 99.5t52.5 36.5h133q25 0 54.5 4t54.5 18t42 40.5t17 70.5v284h212v-218q0 -51 3 -88.5t17 -62t43 -36.5t81 -12q30 0 58 3.5t49.5 16.5t35 39.5t13.5 73.5v284h213v-215
q0 -52 3 -90t17.5 -63t46 -37t88.5 -12q31 0 57.5 3t46 16.5t30.5 40t11 73.5v475h213v-488q0 -118 -30 -194t-80 -120t-115 -61t-135 -17q-39 0 -77 5.5t-72 18t-63 34.5t-50 55h-4q-27 -32 -60.5 -54t-69 -35t-70.5 -18.5t-66 -5.5q-90 0 -151.5 26t-99.5 87h-4zM976 -101
h235v-211h-235v211zM633 -101h235v-211h-235v211zM804 -381h235v-211h-235v211zM868 885h-235v211h235v-211zM1211 885h-235v211h235v-211zM1040 1165h-235v211h235v-211z" />
    <glyph glyph-name="uni069C.medi" unicode="&#x69c;" horiz-adv-x="1710" 
d="M392 88q-28 -32 -61.5 -54t-69 -35t-71 -18.5t-67.5 -5.5h-123q-35 0 -52.5 36.5t-17.5 99.5t17.5 99.5t52.5 36.5h133q25 0 54.5 4t54.5 18t42 40.5t17 70.5v284h212v-218q0 -51 3 -88.5t17 -62t43 -36.5t81 -12q30 0 58 3.5t49.5 16.5t35 39.5t13.5 73.5v284h213v-215
q0 -52 3 -90t17.5 -63t46 -37t88.5 -12q31 0 57.5 3t46 16.5t30.5 40t11 73.5v475h213v-400q0 -53 3 -92t19.5 -64.5t51 -38.5t97.5 -13v-272h-46q-82 0 -138 23t-92 80q-26 -31 -56.5 -51t-63.5 -31.5t-67.5 -16t-67.5 -4.5q-39 0 -77 5.5t-72 18t-63 34.5t-50 55h-4
q-27 -32 -60.5 -54t-69 -35t-70.5 -18.5t-66 -5.5q-91 0 -152 26t-99 87h-4zM976 -101h235v-211h-235v211zM633 -101h235v-211h-235v211zM804 -381h235v-211h-235v211zM868 885h-235v211h235v-211zM1211 885h-235v211h235v-211zM1040 1165h-235v211h235v-211z" />
    <glyph glyph-name="uni069C.fina" unicode="&#x69c;" horiz-adv-x="2394" 
d="M1189 28q-20 -276 -154.5 -414t-402.5 -138q-137 0 -232.5 35.5t-156 104t-88 169.5t-27.5 233q0 36 2 72t6.5 76t11.5 86t18 101h209q-10 -62 -16.5 -109t-10 -83.5t-5 -65t-1.5 -54.5q0 -74 13 -129t46 -91t90 -53.5t145 -17.5q101 0 169 23.5t108.5 73t57.5 125.5
t17 181q0 43 -2.5 87.5t-8.5 99t-14.5 124.5t-20.5 163h214q11 -96 20 -166.5t15 -127.5q3 -28 13.5 -45t30 -26t48.5 -12t68 -3q28 0 54 3.5t46.5 17t33 40t12.5 72.5v284h213v-215q0 -52 3 -90t17.5 -63t46 -37t88.5 -12q31 0 57.5 3t46 16.5t30.5 40t11 73.5v475h213
v-400q0 -53 3 -92t19.5 -64.5t51 -38.5t97.5 -13v-272h-46q-82 0 -138 23t-92 80q-26 -31 -56.5 -51t-63.5 -31.5t-67.5 -16t-67.5 -4.5q-39 0 -77.5 5t-73 18.5t-63 37t-47.5 59.5h-6q-18 -29 -43.5 -51t-56.5 -37.5t-64.5 -23.5t-66.5 -8q-48 0 -91 11t-78 44zM1660 -101
h235v-211h-235v211zM1317 -101h235v-211h-235v211zM1488 -381h235v-211h-235v211zM1542 885h-235v211h235v-211zM1885 885h-235v211h235v-211zM1714 1165h-235v211h235v-211z" />
    <glyph glyph-name="uni069D.init" unicode="&#x69d;" horiz-adv-x="2052" 
d="M393 95q-24 -35 -55.5 -58t-66 -37t-69.5 -19.5t-65 -5.5h-137q-35 0 -52.5 36.5t-17.5 99.5t17.5 99.5t52.5 36.5h143q31 0 57.5 5.5t46 16t30.5 27t11 39.5q0 20 -2.5 47t-8.5 62t-14.5 80.5t-20.5 102.5h222q16 -91 27 -163.5t19 -130.5q1 -9 4.5 -22t15 -25.5
t32.5 -23t57 -13.5q27 71 67 150.5t93 157t118 149t142.5 125.5t166.5 86.5t190 32.5q120 0 211 -41t152 -114t91.5 -174t30.5 -222q0 -103 -23 -175.5t-65 -120.5t-101 -75t-130 -40.5t-152 -17t-168 -3.5q-180 0 -309 1t-217 4t-141 10t-81 19q-32 14 -55 36t-41 58h-5z
M1379 676q-102 0 -187 -36.5t-153 -97t-120 -138.5t-88 -162q17 -1 48.5 -1.5t71.5 -1t84.5 -1t87 -0.5h80.5h64q128 0 206.5 4t121.5 19t57.5 45t14.5 83q0 71 -20 125t-57.5 90t-90.5 54t-120 18zM1105 -371h-235v211h235v-211zM1447 -371h-235v211h235v-211z" />
    <glyph glyph-name="uni069D.medi" unicode="&#x69d;" horiz-adv-x="2052" 
d="M393 95q-24 -35 -55.5 -58t-66 -37t-69.5 -19.5t-65 -5.5h-137q-35 0 -52.5 36.5t-17.5 99.5t17.5 99.5t52.5 36.5h143q31 0 57.5 5.5t46 16t30.5 27t11 39.5q0 20 -2.5 47t-8.5 62t-14.5 80.5t-20.5 102.5h222q16 -91 27 -163.5t19 -130.5q1 -9 4.5 -22t15 -25.5
t32.5 -23t57 -13.5q27 71 67 150.5t93 157t118 149t142.5 125.5t166.5 86.5t190 32.5q118 0 207.5 -39.5t150 -110t92.5 -168t35 -214.5q1 -41 6 -73t22 -54t50.5 -33t92.5 -11v-272h-46q-80 0 -140.5 26.5t-88.5 97.5h-6q-39 -48 -97 -75t-127.5 -39.5t-147.5 -15
t-157 -2.5q-180 0 -309 0.5t-217 4t-141 10.5t-81 19q-31 14 -54.5 36t-41.5 58h-5zM1379 676q-102 0 -187 -36.5t-153 -97t-120 -138.5t-88 -162q17 -1 48.5 -1.5t71.5 -1t84.5 -1t87 -0.5h80.5h64q128 0 206.5 4t121.5 19t57.5 45t14.5 83q0 71 -20 125t-57.5 90t-90.5 54
t-120 18zM1105 -371h-235v211h235v-211zM1447 -371h-235v211h235v-211z" />
    <glyph glyph-name="uni069D.fina" unicode="&#x69d;" horiz-adv-x="2736" 
d="M1192 50q-14 -287 -151.5 -430.5t-410.5 -143.5q-136 0 -231.5 35t-155.5 103.5t-87.5 170t-27.5 233.5q0 36 2 72t6.5 76.5t11.5 86t18 100.5h209q-9 -63 -15.5 -109.5t-10 -83t-5.5 -66t-2 -56.5q0 -73 13.5 -127t47 -90t91 -53.5t146.5 -17.5q102 0 168.5 23.5
t106.5 74t56 128.5t16 187q0 41 -2.5 87t-9.5 102t-19 123.5t-31 151.5h222q16 -91 27 -162t18 -119q3 -20 6 -35t13.5 -27t31.5 -20.5t59 -14.5q27 71 67 150.5t93 157t118 149t142.5 125.5t166.5 86.5t190 32.5q118 0 207.5 -39.5t150 -110t92.5 -168t35 -214.5
q1 -41 6 -73t22 -54t50.5 -33t93.5 -11v-272h-47q-80 0 -140.5 26.5t-88.5 97.5h-6q-39 -48 -97 -75t-127.5 -39.5t-147.5 -15t-157 -2.5q-118 0 -207 0.5t-156 1.5t-114.5 3t-81.5 6t-57.5 9.5t-42.5 13.5t-37.5 22t-32.5 29zM2062 676q-102 0 -187 -36.5t-153 -97
t-120 -138.5t-88 -162q17 -1 48.5 -1.5t71.5 -1t84.5 -1t87 -0.5h80.5h64q128 0 206.5 4t121.5 19t57.5 45t14.5 83q0 71 -20 125t-57.5 90t-90.5 54t-120 18zM1799 -371h-235v211h235v-211zM2141 -371h-235v211h235v-211z" />
    <glyph glyph-name="uni069E.init" unicode="&#x69e;" horiz-adv-x="2052" 
d="M393 95q-24 -35 -55.5 -58t-66 -37t-69.5 -19.5t-65 -5.5h-137q-35 0 -52.5 36.5t-17.5 99.5t17.5 99.5t52.5 36.5h143q31 0 57.5 5.5t46 16t30.5 27t11 39.5q0 20 -2.5 47t-8.5 62t-14.5 80.5t-20.5 102.5h222q16 -91 27 -163.5t19 -130.5q1 -9 4.5 -22t15 -25.5
t32.5 -23t57 -13.5q27 71 67 150.5t93 157t118 149t142.5 125.5t166.5 86.5t190 32.5q120 0 211 -41t152 -114t91.5 -174t30.5 -222q0 -103 -23 -175.5t-65 -120.5t-101 -75t-130 -40.5t-152 -17t-168 -3.5q-180 0 -309 1t-217 4t-141 10t-81 19q-32 14 -55 36t-41 58h-5z
M1379 676q-102 0 -187 -36.5t-153 -97t-120 -138.5t-88 -162q17 -1 48.5 -1.5t71.5 -1t84.5 -1t87 -0.5h80.5h64q128 0 206.5 4t121.5 19t57.5 45t14.5 83q0 71 -20 125t-57.5 90t-90.5 54t-120 18zM990 1086h-235v211h235v-211zM1333 1086h-235v211h235v-211zM1162 1366
h-235v211h235v-211z" />
    <glyph glyph-name="uni069E.medi" unicode="&#x69e;" horiz-adv-x="2052" 
d="M393 95q-24 -35 -55.5 -58t-66 -37t-69.5 -19.5t-65 -5.5h-137q-35 0 -52.5 36.5t-17.5 99.5t17.5 99.5t52.5 36.5h143q31 0 57.5 5.5t46 16t30.5 27t11 39.5q0 20 -2.5 47t-8.5 62t-14.5 80.5t-20.5 102.5h222q16 -91 27 -163.5t19 -130.5q1 -9 4.5 -22t15 -25.5
t32.5 -23t57 -13.5q27 71 67 150.5t93 157t118 149t142.5 125.5t166.5 86.5t190 32.5q118 0 207.5 -39.5t150 -110t92.5 -168t35 -214.5q1 -41 6 -73t22 -54t50.5 -33t92.5 -11v-272h-46q-80 0 -140.5 26.5t-88.5 97.5h-6q-39 -48 -97 -75t-127.5 -39.5t-147.5 -15
t-157 -2.5q-180 0 -309 0.5t-217 4t-141 10.5t-81 19q-31 14 -54.5 36t-41.5 58h-5zM1379 676q-102 0 -187 -36.5t-153 -97t-120 -138.5t-88 -162q17 -1 48.5 -1.5t71.5 -1t84.5 -1t87 -0.5h80.5h64q128 0 206.5 4t121.5 19t57.5 45t14.5 83q0 71 -20 125t-57.5 90t-90.5 54
t-120 18zM990 1086h-235v211h235v-211zM1333 1086h-235v211h235v-211zM1162 1366h-235v211h235v-211z" />
    <glyph glyph-name="uni069E.fina" unicode="&#x69e;" horiz-adv-x="2736" 
d="M1192 50q-14 -287 -151.5 -430.5t-410.5 -143.5q-136 0 -231.5 35t-155.5 103.5t-87.5 170t-27.5 233.5q0 36 2 72t6.5 76.5t11.5 86t18 100.5h209q-9 -63 -15.5 -109.5t-10 -83t-5.5 -66t-2 -56.5q0 -73 13.5 -127t47 -90t91 -53.5t146.5 -17.5q102 0 168.5 23.5
t106.5 74t56 128.5t16 187q0 41 -2.5 87t-9.5 102t-19 123.5t-31 151.5h222q16 -91 27 -162t18 -119q3 -20 6 -35t13.5 -27t31.5 -20.5t59 -14.5q27 71 67 150.5t93 157t118 149t142.5 125.5t166.5 86.5t190 32.5q118 0 207.5 -39.5t150 -110t92.5 -168t35 -214.5
q1 -41 6 -73t22 -54t50.5 -33t93.5 -11v-272h-47q-80 0 -140.5 26.5t-88.5 97.5h-6q-39 -48 -97 -75t-127.5 -39.5t-147.5 -15t-157 -2.5q-118 0 -207 0.5t-156 1.5t-114.5 3t-81.5 6t-57.5 9.5t-42.5 13.5t-37.5 22t-32.5 29zM2062 676q-102 0 -187 -36.5t-153 -97
t-120 -138.5t-88 -162q17 -1 48.5 -1.5t71.5 -1t84.5 -1t87 -0.5h80.5h64q128 0 206.5 4t121.5 19t57.5 45t14.5 83q0 71 -20 125t-57.5 90t-90.5 54t-120 18zM1674 1086h-235v211h235v-211zM2017 1086h-235v211h235v-211zM1846 1366h-235v211h235v-211z" />
    <glyph glyph-name="uni069F.init" unicode="&#x69f;" horiz-adv-x="1710" 
d="M900 -33q-81 0 -188.5 1t-224.5 2.5l-234 3t-217 1.5h-36q-35 0 -52.5 36.5t-17.5 99.5t17.5 99.5t52.5 36.5h298v1269h213v-873l6 -2q47 65 105 121.5t125.5 98t144.5 65.5t162 24q120 0 211 -41t152 -114t91.5 -174t30.5 -222q0 -103 -23 -175.5t-65 -120.5t-101 -75
t-130 -40.5t-152 -17t-168 -3.5zM1037 676q-102 0 -187 -36.5t-153 -97t-120 -138.5t-88 -162q17 -1 48.5 -1.5t71.5 -1t84.5 -1t87 -0.5h80.5h64q128 0 206.5 4t121.5 19t57.5 45t14.5 83q0 71 -20 125t-57.5 90t-90.5 54t-120 18zM943 1096h-235v211h235v-211zM1286 1096
h-235v211h235v-211zM1115 1376h-235v211h235v-211z" />
    <glyph glyph-name="uni069F.medi" unicode="&#x69f;" horiz-adv-x="1710" 
d="M1054 950q118 0 207.5 -39.5t150 -110t92.5 -168t35 -214.5q1 -41 6 -73t22 -54t50.5 -33t92.5 -11v-272h-30q-85 0 -147 26t-94 92h-6q-42 -46 -101 -71.5t-128.5 -37.5t-147 -14.5t-156.5 -2.5q-81 0 -188.5 1t-224.5 2.5l-234 3t-217 1.5h-36q-35 0 -52.5 36.5
t-17.5 99.5t17.5 99.5t52.5 36.5h298v1269h213v-873l6 -2q47 65 105 121.5t125.5 98t144.5 65.5t162 24zM1037 676q-102 0 -187 -36.5t-153 -97t-120 -138.5t-88 -162q17 -1 48.5 -1.5t71.5 -1t84.5 -1t87 -0.5h80.5h64q128 0 206.5 4t121.5 19t57.5 45t14.5 83
q0 71 -20 125t-57.5 90t-90.5 54t-120 18zM943 1096h-235v211h235v-211zM1286 1096h-235v211h235v-211zM1115 1376h-235v211h235v-211z" />
    <glyph glyph-name="uni069F.fina" unicode="&#x69f;" horiz-adv-x="1710" 
d="M298 247v1269h213v-873l6 -2q47 65 105 121.5t125.5 98t144.5 65.5t162 24q118 0 207.5 -39.5t150 -110t92.5 -168t35 -214.5q1 -41 6 -73t22 -54t50.5 -33t92.5 -11v-272h-30q-85 0 -147 26t-94 92h-6q-42 -46 -101 -71.5t-128.5 -37.5t-147 -14.5t-156.5 -2.5
q-177 0 -308 2t-231 6.5t-175.5 10.5t-142.5 14l-53 275q34 -7 73.5 -12t80 -8t80 -5t74.5 -3zM1037 676q-102 0 -187 -36.5t-153 -97t-120 -138.5t-88 -162q17 -1 48.5 -1.5t71.5 -1t84.5 -1t87 -0.5h80.5h64q128 0 206.5 4t121.5 19t57.5 45t14.5 83q0 71 -20 125
t-57.5 90t-90.5 54t-120 18zM943 1096h-235v211h235v-211zM1286 1096h-235v211h235v-211zM1115 1376h-235v211h235v-211z" />
    <glyph glyph-name="uni06A0.init" unicode="&#x6a0;" horiz-adv-x="1198" 
d="M1087 156q-125 -54 -235 -89t-212.5 -55.5t-201.5 -28.5t-202 -8h-236q-35 0 -52.5 36.5t-17.5 99.5t17.5 99.5t52.5 36.5h261l2 6q-41 39 -67 77t-41 74.5t-20.5 71.5t-5.5 70q0 99 40.5 178.5t113.5 135.5t173 86t219 30q37 0 80 -3.5t101 -13.5v-274
q-57 9 -106.5 13.5t-97.5 4.5q-59 0 -114.5 -4t-99 -21t-70 -51t-26.5 -94q0 -16 7.5 -42.5t31 -60t67.5 -74t116 -83.5q61 12 122 28t124.5 37t131.5 48t145 62v-292zM487 1136h-235v211h235v-211zM830 1136h-235v211h235v-211zM659 1416h-235v211h235v-211z" />
    <glyph glyph-name="uni06A0.medi" unicode="&#x6a0;" horiz-adv-x="1197" 
d="M1129 -25q-136 0 -252.5 36t-208.5 108h-6q-102 -67 -232.5 -105.5t-301.5 -38.5h-91q-35 0 -52.5 36.5t-17.5 99.5t17.5 99.5t52.5 36.5h101q97 0 173 11.5t140 32.5q-44 39 -83 78.5t-75.5 82t-71.5 88.5t-70 98v257q49 9 110 19.5t125.5 20t129.5 15.5t124 6
q40 0 84.5 -4t87.5 -14t82 -28.5t68 -47.5t46.5 -70t17.5 -96q0 -41 -9.5 -89.5t-28 -100.5t-46 -104.5t-63.5 -100.5q69 -27 145.5 -40.5t172.5 -13.5v-272h-68zM671 412q33 27 59 59t44.5 63t28.5 58t10 44q0 41 -46 57t-129 16q-57 0 -122.5 -6.5t-122.5 -17.5v-8
q58 -78 125.5 -143t148.5 -122h4zM544 1116h-235v211h235v-211zM887 1116h-235v211h235v-211zM716 1396h-235v211h235v-211z" />
    <glyph glyph-name="uni06A0.fina" unicode="&#x6a0;" horiz-adv-x="1197" 
d="M1197 -13h-49q-89 0 -172.5 18.5t-162 53t-151 82t-139.5 106.5q-82 -38 -134 -76t-81.5 -74.5t-40.5 -70.5t-11 -65q0 -49 23.5 -90.5t73 -71.5t127 -47t185.5 -17q49 0 95.5 3.5t95.5 12t101 22t112 33.5v-261q-59 -19 -110.5 -32t-100 -21.5t-96 -12t-98.5 -3.5
q-304 0 -460.5 120t-156.5 349q0 72 16.5 138t52.5 125.5t94 113.5t141 103q-54 67 -103 138.5t-97 159.5v257q42 7 100.5 18t124.5 21t134.5 17t130.5 7q41 0 85.5 -3.5t87.5 -14t81.5 -28.5t67.5 -47t46 -70.5t17 -97.5q0 -39 -11 -89.5t-39.5 -105.5t-77.5 -111
t-126 -105q89 -57 198 -84.5t227 -27.5v-272zM393 764q41 -68 85.5 -126t94.5 -111q71 34 117 64.5t73 56t37.5 46.5t10.5 36q0 35 -43.5 50.5t-128.5 15.5q-58 0 -123.5 -6.5t-122.5 -17.5v-8zM544 1206h-235v211h235v-211zM887 1206h-235v211h235v-211zM716 1486h-235v211
h235v-211z" />
    <glyph glyph-name="uni06A1.init" unicode="&#x6a1;" horiz-adv-x="1026" 
d="M282 247q-75 57 -117 131.5t-42 164.5q0 52 13 106t37 104t57 93.5t72 76.5t84 51.5t92 18.5q55 0 104.5 -25t91.5 -68.5t75.5 -101t57 -123t36 -135.5t12.5 -137q0 -100 -29.5 -170t-80.5 -117.5t-118 -75.5t-143 -42.5t-155.5 -18.5t-154.5 -4h-174q-35 0 -52.5 36.5
t-17.5 99.5t17.5 99.5t52.5 36.5h100q19 0 46 -1.5t53.5 -3t48.5 -2.5t31 -1zM466 715q-26 0 -50 -18t-42 -44.5t-28.5 -56t-10.5 -53.5q0 -18 9.5 -42.5t38 -55t81.5 -67t140 -78.5q11 9 18 23.5t11.5 30.5t6 32t1.5 28q0 38 -14.5 90t-39 99t-56 79.5t-65.5 32.5z" />
    <glyph glyph-name="uni06A1.medi" unicode="&#x6a1;" horiz-adv-x="1026" 
d="M282 247q-75 57 -117 131.5t-42 164.5q0 52 13 106t37 104t57 93.5t72 76.5t84 51.5t92 18.5q55 0 104.5 -25t91.5 -68.5t75.5 -101t57 -123t36 -135.5t12.5 -137q0 -83 -25 -150q21 -2 41 -3t42.5 -2t49.5 -1h63v-272h-35q-44 0 -93.5 3.5t-99.5 10.5t-98.5 18.5
t-90.5 27.5q-53 -21 -110.5 -33t-114.5 -18t-111 -7.5t-99 -1.5h-174q-35 0 -52.5 36.5t-17.5 99.5t17.5 99.5t52.5 36.5h100q19 0 46 -1.5t53.5 -3t48.5 -2.5t31 -1zM466 715q-26 0 -50 -18t-42 -44.5t-28.5 -56t-10.5 -53.5q0 -18 9.5 -42.5t38 -55t81.5 -67t140 -78.5
q11 9 18 23.5t11.5 30.5t6 32t1.5 28q0 38 -14.5 90t-39 99t-56 79.5t-65.5 32.5z" />
    <glyph glyph-name="uni06A1.fina" unicode="&#x6a1;" horiz-adv-x="2052" 
d="M375 664q-8 -37 -14.5 -66.5t-10.5 -55t-6 -49.5t-2 -49q0 -78 32.5 -120.5t107.5 -62t197 -23t301 -3.5h141.5t91 0.5t56 1.5t36.5 2l3 8q-75 57 -117 131t-42 165q0 53 13 106.5t37 103.5t57 94t72 76.5t84 51t92 18.5q55 0 104.5 -25t91.5 -68.5t75.5 -101.5
t57 -123.5t36 -135t12.5 -136.5q0 -42 -6.5 -78.5t-19.5 -71.5q21 -2 41 -3t43 -2t50.5 -1h62.5v-272h-35q-44 0 -94.5 3.5t-101.5 10.5t-99.5 18.5t-87.5 26.5q-54 -22 -120.5 -35.5t-140 -20.5t-153 -9t-158.5 -2h-93q-128 0 -236 1.5t-196.5 11t-158 29.5t-118.5 57
q-40 30 -66.5 68t-42 80.5t-22 88.5t-6.5 91q0 70 10.5 137t27.5 133h214zM1492 715q-26 0 -50 -17.5t-42 -44t-28.5 -56.5t-10.5 -54q0 -18 9.5 -42.5t38 -55t81.5 -67t140 -78.5q11 9 18 23.5t11.5 30.5t6 32t1.5 28q0 38 -14.5 90t-39 99t-56 79.5t-65.5 32.5z" />
    <glyph glyph-name="uni06A2.init" unicode="&#x6a2;" horiz-adv-x="1026" 
d="M282 247q-75 57 -117 131.5t-42 164.5q0 52 13 106t37 104t57 93.5t72 76.5t84 51.5t92 18.5q55 0 104.5 -25t91.5 -68.5t75.5 -101t57 -123t36 -135.5t12.5 -137q0 -100 -29.5 -170t-80.5 -117.5t-118 -75.5t-143 -42.5t-155.5 -18.5t-154.5 -4h-174q-35 0 -52.5 36.5
t-17.5 99.5t17.5 99.5t52.5 36.5h100q19 0 46 -1.5t53.5 -3t48.5 -2.5t31 -1zM466 715q-26 0 -50 -18t-42 -44.5t-28.5 -56t-10.5 -53.5q0 -18 9.5 -42.5t38 -55t81.5 -67t140 -78.5q11 9 18 23.5t11.5 30.5t6 32t1.5 28q0 38 -14.5 90t-39 99t-56 79.5t-65.5 32.5z
M644 -371h-235v211h235v-211z" />
    <glyph glyph-name="uni06A2.medi" unicode="&#x6a2;" horiz-adv-x="1026" 
d="M282 247q-75 57 -117 131.5t-42 164.5q0 52 13 106t37 104t57 93.5t72 76.5t84 51.5t92 18.5q55 0 104.5 -25t91.5 -68.5t75.5 -101t57 -123t36 -135.5t12.5 -137q0 -83 -25 -150q21 -2 41 -3t42.5 -2t49.5 -1h63v-272h-35q-44 0 -93.5 3.5t-99.5 10.5t-98.5 18.5
t-90.5 27.5q-53 -21 -110.5 -33t-114.5 -18t-111 -7.5t-99 -1.5h-174q-35 0 -52.5 36.5t-17.5 99.5t17.5 99.5t52.5 36.5h100q19 0 46 -1.5t53.5 -3t48.5 -2.5t31 -1zM466 715q-26 0 -50 -18t-42 -44.5t-28.5 -56t-10.5 -53.5q0 -18 9.5 -42.5t38 -55t81.5 -67t140 -78.5
q11 9 18 23.5t11.5 30.5t6 32t1.5 28q0 38 -14.5 90t-39 99t-56 79.5t-65.5 32.5zM644 -371h-235v211h235v-211z" />
    <glyph glyph-name="uni06A2.fina" unicode="&#x6a2;" horiz-adv-x="2052" 
d="M375 664q-8 -37 -14.5 -66.5t-10.5 -55t-6 -49.5t-2 -49q0 -78 32.5 -120.5t107.5 -62t197 -23t301 -3.5h141.5t91 0.5t56 1.5t36.5 2l3 8q-75 57 -117 131t-42 165q0 53 13 106.5t37 103.5t57 94t72 76.5t84 51t92 18.5q55 0 104.5 -25t91.5 -68.5t75.5 -101.5
t57 -123.5t36 -135t12.5 -136.5q0 -42 -6.5 -78.5t-19.5 -71.5q21 -2 41 -3t43 -2t50.5 -1h62.5v-272h-35q-44 0 -94.5 3.5t-101.5 10.5t-99.5 18.5t-87.5 26.5q-54 -22 -120.5 -35.5t-140 -20.5t-153 -9t-158.5 -2h-93q-128 0 -236 1.5t-196.5 11t-158 29.5t-118.5 57
q-40 30 -66.5 68t-42 80.5t-22 88.5t-6.5 91q0 70 10.5 137t27.5 133h214zM1492 715q-26 0 -50 -17.5t-42 -44t-28.5 -56.5t-10.5 -54q0 -18 9.5 -42.5t38 -55t81.5 -67t140 -78.5q11 9 18 23.5t11.5 30.5t6 32t1.5 28q0 38 -14.5 90t-39 99t-56 79.5t-65.5 32.5zM1670 -371
h-235v211h235v-211z" />
    <glyph glyph-name="uni06A3.init" unicode="&#x6a3;" horiz-adv-x="1026" 
d="M282 247q-75 57 -117 131.5t-42 164.5q0 52 13 106t37 104t57 93.5t72 76.5t84 51.5t92 18.5q55 0 104.5 -25t91.5 -68.5t75.5 -101t57 -123t36 -135.5t12.5 -137q0 -100 -29.5 -170t-80.5 -117.5t-118 -75.5t-143 -42.5t-155.5 -18.5t-154.5 -4h-174q-35 0 -52.5 36.5
t-17.5 99.5t17.5 99.5t52.5 36.5h100q19 0 46 -1.5t53.5 -3t48.5 -2.5t31 -1zM466 715q-26 0 -50 -18t-42 -44.5t-28.5 -56t-10.5 -53.5q0 -18 9.5 -42.5t38 -55t81.5 -67t140 -78.5q11 9 18 23.5t11.5 30.5t6 32t1.5 28q0 38 -14.5 90t-39 99t-56 79.5t-65.5 32.5z
M644 -371h-235v211h235v-211zM577 1200h-235v211h235v-211z" />
    <glyph glyph-name="uni06A3.medi" unicode="&#x6a3;" horiz-adv-x="1026" 
d="M282 247q-75 57 -117 131.5t-42 164.5q0 52 13 106t37 104t57 93.5t72 76.5t84 51.5t92 18.5q55 0 104.5 -25t91.5 -68.5t75.5 -101t57 -123t36 -135.5t12.5 -137q0 -83 -25 -150q21 -2 41 -3t42.5 -2t49.5 -1h63v-272h-35q-44 0 -93.5 3.5t-99.5 10.5t-98.5 18.5
t-90.5 27.5q-53 -21 -110.5 -33t-114.5 -18t-111 -7.5t-99 -1.5h-174q-35 0 -52.5 36.5t-17.5 99.5t17.5 99.5t52.5 36.5h100q19 0 46 -1.5t53.5 -3t48.5 -2.5t31 -1zM466 715q-26 0 -50 -18t-42 -44.5t-28.5 -56t-10.5 -53.5q0 -18 9.5 -42.5t38 -55t81.5 -67t140 -78.5
q11 9 18 23.5t11.5 30.5t6 32t1.5 28q0 38 -14.5 90t-39 99t-56 79.5t-65.5 32.5zM644 -371h-235v211h235v-211zM577 1200h-235v211h235v-211z" />
    <glyph glyph-name="uni06A3.fina" unicode="&#x6a3;" horiz-adv-x="2052" 
d="M375 664q-8 -37 -14.5 -66.5t-10.5 -55t-6 -49.5t-2 -49q0 -78 32.5 -120.5t107.5 -62t197 -23t301 -3.5h141.5t91 0.5t56 1.5t36.5 2l3 8q-75 57 -117 131t-42 165q0 53 13 106.5t37 103.5t57 94t72 76.5t84 51t92 18.5q55 0 104.5 -25t91.5 -68.5t75.5 -101.5
t57 -123.5t36 -135t12.5 -136.5q0 -42 -6.5 -78.5t-19.5 -71.5q21 -2 41 -3t43 -2t50.5 -1h62.5v-272h-35q-44 0 -94.5 3.5t-101.5 10.5t-99.5 18.5t-87.5 26.5q-54 -22 -120.5 -35.5t-140 -20.5t-153 -9t-158.5 -2h-93q-128 0 -236 1.5t-196.5 11t-158 29.5t-118.5 57
q-40 30 -66.5 68t-42 80.5t-22 88.5t-6.5 91q0 70 10.5 137t27.5 133h214zM1492 715q-26 0 -50 -17.5t-42 -44t-28.5 -56.5t-10.5 -54q0 -18 9.5 -42.5t38 -55t81.5 -67t140 -78.5q11 9 18 23.5t11.5 30.5t6 32t1.5 28q0 38 -14.5 90t-39 99t-56 79.5t-65.5 32.5zM1670 -371
h-235v211h235v-211zM1600 1200h-235v211h235v-211z" />
    <glyph glyph-name="uni06A4" unicode="&#x6a4;" horiz-adv-x="2052" arabic-form="isolated" 
d="M1492 715q-26 0 -50 -17.5t-42 -44t-28.5 -56.5t-10.5 -54q0 -18 9.5 -42.5t38 -55t81.5 -67t140 -78.5q11 9 18 23.5t11.5 30.5t6 32t1.5 28q0 38 -14.5 90t-39 99t-56 79.5t-65.5 32.5zM375 664q-8 -37 -14.5 -66.5t-10.5 -55t-6 -49.5t-2 -49q0 -78 32.5 -120.5
t107.5 -62t197 -23t301 -3.5h141.5t91 0.5t56 1.5t36.5 2l3 8q-75 57 -117 131t-42 165q0 53 13 106.5t37 103.5t57 94t72 76.5t84 51t92 18.5q55 0 104.5 -25t91.5 -68.5t75.5 -101.5t57 -123.5t36 -135t12.5 -136.5q0 -97 -27 -167t-77.5 -118.5t-123.5 -78t-164 -45.5
t-198.5 -21.5t-228.5 -5.5h-93q-128 0 -236 1.5t-196.5 11t-158 29.5t-118.5 57q-40 30 -66.5 68t-42 80.5t-22 88.5t-6.5 91q0 70 10.5 137t27.5 133h214zM1428 1200h-235v211h235v-211zM1771 1200h-235v211h235v-211zM1600 1480h-235v211h235v-211z" />
    <glyph glyph-name="uni06A5.init" unicode="&#x6a5;" horiz-adv-x="1026" 
d="M282 247q-75 57 -117 131.5t-42 164.5q0 52 13 106t37 104t57 93.5t72 76.5t84 51.5t92 18.5q55 0 104.5 -25t91.5 -68.5t75.5 -101t57 -123t36 -135.5t12.5 -137q0 -100 -29.5 -170t-80.5 -117.5t-118 -75.5t-143 -42.5t-155.5 -18.5t-154.5 -4h-174q-35 0 -52.5 36.5
t-17.5 99.5t17.5 99.5t52.5 36.5h100q19 0 46 -1.5t53.5 -3t48.5 -2.5t31 -1zM466 715q-26 0 -50 -18t-42 -44.5t-28.5 -56t-10.5 -53.5q0 -18 9.5 -42.5t38 -55t81.5 -67t140 -78.5q11 9 18 23.5t11.5 30.5t6 32t1.5 28q0 38 -14.5 90t-39 99t-56 79.5t-65.5 32.5z
M580 -101h235v-211h-235v211zM237 -101h235v-211h-235v211zM408 -381h235v-211h-235v211z" />
    <glyph glyph-name="uni06A5.medi" unicode="&#x6a5;" horiz-adv-x="1026" 
d="M282 247q-75 57 -117 131.5t-42 164.5q0 52 13 106t37 104t57 93.5t72 76.5t84 51.5t92 18.5q55 0 104.5 -25t91.5 -68.5t75.5 -101t57 -123t36 -135.5t12.5 -137q0 -83 -25 -150q21 -2 41 -3t42.5 -2t49.5 -1h63v-272h-35q-44 0 -93.5 3.5t-99.5 10.5t-98.5 18.5
t-90.5 27.5q-53 -21 -110.5 -33t-114.5 -18t-111 -7.5t-99 -1.5h-174q-35 0 -52.5 36.5t-17.5 99.5t17.5 99.5t52.5 36.5h100q19 0 46 -1.5t53.5 -3t48.5 -2.5t31 -1zM466 715q-26 0 -50 -18t-42 -44.5t-28.5 -56t-10.5 -53.5q0 -18 9.5 -42.5t38 -55t81.5 -67t140 -78.5
q11 9 18 23.5t11.5 30.5t6 32t1.5 28q0 38 -14.5 90t-39 99t-56 79.5t-65.5 32.5zM580 -101h235v-211h-235v211zM237 -101h235v-211h-235v211zM408 -381h235v-211h-235v211z" />
    <glyph glyph-name="uni06A5.fina" unicode="&#x6a5;" horiz-adv-x="2052" 
d="M375 664q-8 -37 -14.5 -66.5t-10.5 -55t-6 -49.5t-2 -49q0 -78 32.5 -120.5t107.5 -62t197 -23t301 -3.5h141.5t91 0.5t56 1.5t36.5 2l3 8q-75 57 -117 131t-42 165q0 53 13 106.5t37 103.5t57 94t72 76.5t84 51t92 18.5q55 0 104.5 -25t91.5 -68.5t75.5 -101.5
t57 -123.5t36 -135t12.5 -136.5q0 -42 -6.5 -78.5t-19.5 -71.5q21 -2 41 -3t43 -2t50.5 -1h62.5v-272h-35q-44 0 -94.5 3.5t-101.5 10.5t-99.5 18.5t-87.5 26.5q-54 -22 -120.5 -35.5t-140 -20.5t-153 -9t-158.5 -2h-93q-128 0 -236 1.5t-196.5 11t-158 29.5t-118.5 57
q-40 30 -66.5 68t-42 80.5t-22 88.5t-6.5 91q0 70 10.5 137t27.5 133h214zM1492 715q-26 0 -50 -17.5t-42 -44t-28.5 -56.5t-10.5 -54q0 -18 9.5 -42.5t38 -55t81.5 -67t140 -78.5q11 9 18 23.5t11.5 30.5t6 32t1.5 28q0 38 -14.5 90t-39 99t-56 79.5t-65.5 32.5zM1606 -101
h235v-211h-235v211zM1263 -101h235v-211h-235v211zM1434 -381h235v-211h-235v211z" />
    <glyph glyph-name="uni06A6" unicode="&#x6a6;" horiz-adv-x="2052" arabic-form="isolated" 
d="M1492 715q-26 0 -50 -17.5t-42 -44t-28.5 -56.5t-10.5 -54q0 -18 9.5 -42.5t38 -55t81.5 -67t140 -78.5q11 9 18 23.5t11.5 30.5t6 32t1.5 28q0 38 -14.5 90t-39 99t-56 79.5t-65.5 32.5zM375 664q-8 -37 -14.5 -66.5t-10.5 -55t-6 -49.5t-2 -49q0 -78 32.5 -120.5
t107.5 -62t197 -23t301 -3.5h141.5t91 0.5t56 1.5t36.5 2l3 8q-75 57 -117 131t-42 165q0 53 13 106.5t37 103.5t57 94t72 76.5t84 51t92 18.5q55 0 104.5 -25t91.5 -68.5t75.5 -101.5t57 -123.5t36 -135t12.5 -136.5q0 -97 -27 -167t-77.5 -118.5t-123.5 -78t-164 -45.5
t-198.5 -21.5t-228.5 -5.5h-93q-128 0 -236 1.5t-196.5 11t-158 29.5t-118.5 57q-40 30 -66.5 68t-42 80.5t-22 88.5t-6.5 91q0 70 10.5 137t27.5 133h214zM1428 1200h-235v211h235v-211zM1771 1200h-235v211h235v-211zM1428 1480h-235v211h235v-211zM1771 1480h-235v211
h235v-211z" />
    <glyph glyph-name="uni06A7.init" unicode="&#x6a7;" horiz-adv-x="1026" 
d="M282 247q-75 57 -117 131.5t-42 164.5q0 52 13 106t37 104t57 93.5t72 76.5t84 51.5t92 18.5q55 0 104.5 -25t91.5 -68.5t75.5 -101t57 -123t36 -135.5t12.5 -137q0 -100 -29.5 -170t-80.5 -117.5t-118 -75.5t-143 -42.5t-155.5 -18.5t-154.5 -4h-174q-35 0 -52.5 36.5
t-17.5 99.5t17.5 99.5t52.5 36.5h100q19 0 46 -1.5t53.5 -3t48.5 -2.5t31 -1zM466 715q-26 0 -50 -18t-42 -44.5t-28.5 -56t-10.5 -53.5q0 -18 9.5 -42.5t38 -55t81.5 -67t140 -78.5q11 9 18 23.5t11.5 30.5t6 32t1.5 28q0 38 -14.5 90t-39 99t-56 79.5t-65.5 32.5z
M577 1200h-235v211h235v-211z" />
    <glyph glyph-name="uni06A7.medi" unicode="&#x6a7;" horiz-adv-x="1026" 
d="M282 247q-75 57 -117 131.5t-42 164.5q0 52 13 106t37 104t57 93.5t72 76.5t84 51.5t92 18.5q55 0 104.5 -25t91.5 -68.5t75.5 -101t57 -123t36 -135.5t12.5 -137q0 -83 -25 -150q21 -2 41 -3t42.5 -2t49.5 -1h63v-272h-35q-44 0 -93.5 3.5t-99.5 10.5t-98.5 18.5
t-90.5 27.5q-53 -21 -110.5 -33t-114.5 -18t-111 -7.5t-99 -1.5h-174q-35 0 -52.5 36.5t-17.5 99.5t17.5 99.5t52.5 36.5h100q19 0 46 -1.5t53.5 -3t48.5 -2.5t31 -1zM466 715q-26 0 -50 -18t-42 -44.5t-28.5 -56t-10.5 -53.5q0 -18 9.5 -42.5t38 -55t81.5 -67t140 -78.5
q11 9 18 23.5t11.5 30.5t6 32t1.5 28q0 38 -14.5 90t-39 99t-56 79.5t-65.5 32.5zM577 1200h-235v211h235v-211z" />
    <glyph glyph-name="uni06A7.fina" unicode="&#x6a7;" horiz-adv-x="1539" 
d="M1150 -20h-94q-199 0 -304 91.5t-105 263.5q0 81 27.5 162.5t74 146t109 105t131.5 40.5q78 0 141 -44t121 -138q45 -72 72.5 -163t38.5 -197h177v-272h-178q-16 -133 -64 -227.5t-128.5 -155t-192 -88.5t-255.5 -28q-156 0 -269 32.5t-185.5 99.5t-107.5 169.5
t-35 242.5q0 64 7.5 137t25.5 170h215q-9 -55 -14.5 -97.5t-9 -75.5t-4.5 -58.5t-1 -47.5q0 -72 16 -128.5t59 -95t118.5 -59t194.5 -20.5t196.5 18.5t124 50.5t68.5 75t30 91zM1130 319q-12 36 -28 70.5t-35 61.5t-41 43.5t-45 16.5q-26 0 -49 -17.5t-40 -42t-27 -52
t-10 -48.5q0 -66 47 -88t140 -22h106q-4 18 -8 39t-10 39zM1088 1009h-235v211h235v-211z" />
    <glyph glyph-name="uni06A8.init" unicode="&#x6a8;" horiz-adv-x="1026" 
d="M282 247q-75 57 -117 131.5t-42 164.5q0 52 13 106t37 104t57 93.5t72 76.5t84 51.5t92 18.5q55 0 104.5 -25t91.5 -68.5t75.5 -101t57 -123t36 -135.5t12.5 -137q0 -100 -29.5 -170t-80.5 -117.5t-118 -75.5t-143 -42.5t-155.5 -18.5t-154.5 -4h-174q-35 0 -52.5 36.5
t-17.5 99.5t17.5 99.5t52.5 36.5h100q19 0 46 -1.5t53.5 -3t48.5 -2.5t31 -1zM466 715q-26 0 -50 -18t-42 -44.5t-28.5 -56t-10.5 -53.5q0 -18 9.5 -42.5t38 -55t81.5 -67t140 -78.5q11 9 18 23.5t11.5 30.5t6 32t1.5 28q0 38 -14.5 90t-39 99t-56 79.5t-65.5 32.5z
M405 1200h-235v211h235v-211zM748 1200h-235v211h235v-211zM577 1480h-235v211h235v-211z" />
    <glyph glyph-name="uni06A8.medi" unicode="&#x6a8;" horiz-adv-x="1026" 
d="M282 247q-75 57 -117 131.5t-42 164.5q0 52 13 106t37 104t57 93.5t72 76.5t84 51.5t92 18.5q55 0 104.5 -25t91.5 -68.5t75.5 -101t57 -123t36 -135.5t12.5 -137q0 -83 -25 -150q21 -2 41 -3t42.5 -2t49.5 -1h63v-272h-35q-44 0 -93.5 3.5t-99.5 10.5t-98.5 18.5
t-90.5 27.5q-53 -21 -110.5 -33t-114.5 -18t-111 -7.5t-99 -1.5h-174q-35 0 -52.5 36.5t-17.5 99.5t17.5 99.5t52.5 36.5h100q19 0 46 -1.5t53.5 -3t48.5 -2.5t31 -1zM466 715q-26 0 -50 -18t-42 -44.5t-28.5 -56t-10.5 -53.5q0 -18 9.5 -42.5t38 -55t81.5 -67t140 -78.5
q11 9 18 23.5t11.5 30.5t6 32t1.5 28q0 38 -14.5 90t-39 99t-56 79.5t-65.5 32.5zM405 1200h-235v211h235v-211zM748 1200h-235v211h235v-211zM577 1480h-235v211h235v-211z" />
    <glyph glyph-name="uni06A8.fina" unicode="&#x6a8;" horiz-adv-x="1539" 
d="M1150 -20h-94q-199 0 -304 91.5t-105 263.5q0 81 27.5 162.5t74 146t109 105t131.5 40.5q78 0 141 -44t121 -138q45 -72 72.5 -163t38.5 -197h177v-272h-178q-16 -133 -64 -227.5t-128.5 -155t-192 -88.5t-255.5 -28q-156 0 -269 32.5t-185.5 99.5t-107.5 169.5
t-35 242.5q0 64 7.5 137t25.5 170h215q-9 -55 -14.5 -97.5t-9 -75.5t-4.5 -58.5t-1 -47.5q0 -72 16 -128.5t59 -95t118.5 -59t194.5 -20.5t196.5 18.5t124 50.5t68.5 75t30 91zM1130 319q-12 36 -28 70.5t-35 61.5t-41 43.5t-45 16.5q-26 0 -49 -17.5t-40 -42t-27 -52
t-10 -48.5q0 -66 47 -88t140 -22h106q-4 18 -8 39t-10 39zM916 1009h-235v211h235v-211zM1259 1009h-235v211h235v-211zM1088 1289h-235v211h235v-211z" />
    <glyph glyph-name="uni06A9" unicode="&#x6a9;" horiz-adv-x="1881" arabic-form="isolated" 
d="M855 1094l881 557v-287l-609 -372q120 -60 221 -126t174 -141.5t114 -163t41 -191.5q0 -44 -10 -96.5t-39 -103t-82 -93.5t-139 -68q-93 -27 -231.5 -34.5t-327.5 -7.5q-89 0 -175.5 2.5t-164 13t-143.5 31.5t-114 59q-36 28 -60.5 65t-39.5 79t-21.5 88t-6.5 93
q0 66 10.5 134.5t27.5 131.5h214q-8 -37 -14.5 -66.5t-10.5 -55t-6 -49.5t-2 -49q0 -78 33 -120.5t107 -62t194 -22.5t293 -3q117 0 215.5 3.5t165.5 21.5q41 11 64 24.5t33.5 27.5t12.5 27.5t2 24.5q0 105 -151 226t-456 267v236z" />
    <glyph glyph-name="uni06AA.init" unicode="&#x6aa;" horiz-adv-x="2052" 
d="M1731 248q-3 46 -19 75t-41.5 45.5t-59 22t-70.5 5.5h-993q-94 0 -164.5 11t-118 38t-71 71.5t-23.5 110.5q0 102 56.5 194t164.5 168.5t265.5 135.5t359.5 95v-271q-127 -24 -243.5 -55.5t-206 -66t-142.5 -70.5t-53 -70q0 -12 10 -19t43 -11t94.5 -5t165.5 -1h876
q72 0 141 -22.5t122 -66.5t85.5 -109t32.5 -150q0 -42 -8.5 -87t-26 -87t-43.5 -78.5t-61 -61.5q-57 -5 -148.5 -9t-207.5 -7t-252.5 -4.5t-283.5 -1.5q-82 0 -172 0.5t-180.5 1.5t-175.5 2t-155.5 2t-121.5 1.5t-74 0.5h-32q-35 0 -52.5 36.5t-17.5 99.5t17.5 99.5
t52.5 36.5h44q33 0 119.5 -2t214.5 -4.5t290 -4.5t345 -2q247 0 423 2.5t295 11.5z" />
    <glyph glyph-name="uni06AA.medi" unicode="&#x6aa;" horiz-adv-x="2052" 
d="M1731 248q-3 46 -19 75t-41.5 45.5t-59 22t-70.5 5.5h-993q-94 0 -164.5 11t-118 38t-71 71.5t-23.5 110.5q0 102 56.5 194t164.5 168.5t265.5 135.5t359.5 95v-271q-127 -24 -243.5 -55.5t-206 -66t-142.5 -70.5t-53 -70q0 -12 10 -19t43 -11t94.5 -5t165.5 -1h876
q72 0 141 -22.5t122 -66.5t85.5 -109t32.5 -150q0 -26 -3 -53q26 -2 52 -2.5t61 -0.5v-272h-29q-53 0 -85.5 20.5t-60.5 64.5h-7q-30 -44 -67 -71q-57 -5 -148.5 -9t-207.5 -7t-252.5 -4.5t-283.5 -1.5q-82 0 -172.5 0.5t-180.5 1.5t-175 2t-155.5 2t-122 1.5t-73.5 0.5h-32
q-35 0 -52.5 36.5t-17.5 99.5t17.5 99.5t52.5 36.5h44q33 0 119.5 -2t214.5 -4.5t290 -4.5t345 -2q247 0 423 2.5t295 11.5z" />
    <glyph glyph-name="uni06AA.fina" unicode="&#x6aa;" horiz-adv-x="2223" 
d="M1902 248q-3 46 -19 75t-41.5 45.5t-59 22t-70.5 5.5h-993q-94 0 -164.5 11t-118 38t-71 71.5t-23.5 110.5q0 102 56.5 194t164.5 168.5t265.5 135.5t359.5 95v-271q-127 -24 -243.5 -55.5t-206 -66t-142.5 -70.5t-53 -70q0 -12 10 -19t43 -11t94.5 -5t165.5 -1h876
q72 0 141 -22.5t122 -66.5t85.5 -109t32.5 -150q0 -26 -3 -53q26 -2 52 -2.5t61 -0.5v-272h-29q-53 0 -85.5 20.5t-60.5 64.5h-7q-30 -44 -67 -71q-57 -5 -148.5 -9t-207.5 -7t-252.5 -4.5t-283.5 -1.5q-79 0 -172 0.5t-190 2.5l-194 4t-184 6t-160.5 8.5t-123.5 10.5
l-54 269q87 -11 208 -17.5t271 -10.5t326.5 -5t374.5 -1q247 0 423 2.5t295 11.5z" />
    <glyph glyph-name="uni06AB.init" unicode="&#x6ab;" horiz-adv-x="1026" 
d="M0 1094l881 557v-287l-609 -372q120 -60 220.5 -125.5t174 -141t114.5 -163t41 -190.5q0 -44 -8 -90t-29 -90t-58.5 -83.5t-96.5 -69t-142.5 -47t-196.5 -17.5h-291q-35 0 -52.5 36.5t-17.5 99.5t17.5 99.5t52.5 36.5h294q91 0 151 4t96 16.5t51 35t15 59.5
q0 109 -151 229t-456 267v236zM624 1278q36 0 67 -13t54 -36t36.5 -55t13.5 -69q0 -35 -13.5 -65.5t-36.5 -53.5t-54 -36.5t-67 -13.5q-38 0 -70 13.5t-55 36.5t-36.5 53.5t-13.5 65.5q0 37 13 69t36 55t55 36t71 13zM624 1021q33 0 54 24.5t21 59.5q0 38 -21 63t-54 25
q-35 0 -57 -25t-22 -63q0 -35 22 -59.5t57 -24.5z" />
    <glyph glyph-name="uni06AB.medi" unicode="&#x6ab;" horiz-adv-x="1026" 
d="M0 1094l881 557v-287l-609 -372q111 -56 206.5 -116.5t167.5 -129.5t117 -147.5t56 -170.5q4 -29 11 -54.5t24 -51.5q9 -14 22.5 -27.5t33.5 -24t48.5 -17t67.5 -6.5v-272h-22q-36 0 -73.5 8t-72 26t-64.5 46.5t-52 68.5h-6q-25 -32 -64 -59.5t-93.5 -47.5t-126 -31
t-161.5 -11h-291q-35 0 -52.5 36.5t-17.5 99.5t17.5 99.5t52.5 36.5h294q91 0 151 4t96 16.5t51 35t15 59.5q0 109 -151 229t-456 267v236zM624 1278q36 0 67 -13t54 -36t36.5 -55t13.5 -69q0 -35 -13.5 -65.5t-36.5 -53.5t-54 -36.5t-67 -13.5q-38 0 -70 13.5t-55 36.5
t-36.5 53.5t-13.5 65.5q0 37 13 69t36 55t55 36t71 13zM624 1021q33 0 54 24.5t21 59.5q0 38 -21 63t-54 25q-35 0 -57 -25t-22 -63q0 -35 22 -59.5t57 -24.5z" />
    <glyph glyph-name="uni06AB.fina" unicode="&#x6ab;" horiz-adv-x="1881" 
d="M855 1094l881 557v-287l-609 -372q112 -56 207 -116.5t166.5 -129.5t116.5 -147.5t57 -170.5q4 -29 11 -54.5t24 -51.5q9 -14 22.5 -27.5t33.5 -24t48.5 -17t67.5 -6.5v-272h-22q-36 0 -73.5 8t-72 26t-64.5 46.5t-52 68.5h-6q-47 -56 -112.5 -87.5t-155.5 -47t-207 -19
t-268 -3.5q-89 0 -175.5 2.5t-164 13t-143.5 31.5t-114 59q-36 28 -60.5 65t-39.5 79t-21.5 88t-6.5 93q0 66 10.5 134.5t27.5 131.5h214q-8 -37 -14.5 -66.5t-10.5 -55t-6 -49.5t-2 -49q0 -78 33 -120.5t107 -62t194 -22.5t293 -3q117 0 215.5 3.5t165.5 21.5
q41 11 64 24.5t33.5 27.5t12.5 27.5t2 24.5q0 105 -151 226t-456 267v236zM1479 1278q36 0 67 -13t54 -36t36.5 -55t13.5 -69q0 -35 -13.5 -65.5t-36.5 -53.5t-54 -36.5t-67 -13.5q-38 0 -70 13.5t-55 36.5t-36.5 53.5t-13.5 65.5q0 37 13 69t36 55t55 36t71 13zM1479 1021
q33 0 54 24.5t21 59.5q0 38 -21 63t-54 25q-35 0 -57 -25t-22 -63q0 -35 22 -59.5t57 -24.5z" />
    <glyph glyph-name="uni06AC.init" unicode="&#x6ac;" horiz-adv-x="1026" 
d="M0 1094l881 557v-287l-609 -372q120 -60 220.5 -125.5t174 -141t114.5 -163t41 -190.5q0 -44 -8 -90t-29 -90t-58.5 -83.5t-96.5 -69t-142.5 -47t-196.5 -17.5h-291q-35 0 -52.5 36.5t-17.5 99.5t17.5 99.5t52.5 36.5h294q91 0 151 4t96 16.5t51 35t15 59.5
q0 109 -151 229t-456 267v236zM421 1519h-235v211h235v-211z" />
    <glyph glyph-name="uni06AC.medi" unicode="&#x6ac;" horiz-adv-x="1026" 
d="M0 1094l881 557v-287l-609 -372q111 -56 206.5 -116.5t167.5 -129.5t117 -147.5t56 -170.5q4 -29 11 -54.5t24 -51.5q9 -14 22.5 -27.5t33.5 -24t48.5 -17t67.5 -6.5v-272h-22q-36 0 -73.5 8t-72 26t-64.5 46.5t-52 68.5h-6q-25 -32 -64 -59.5t-93.5 -47.5t-126 -31
t-161.5 -11h-291q-35 0 -52.5 36.5t-17.5 99.5t17.5 99.5t52.5 36.5h294q91 0 151 4t96 16.5t51 35t15 59.5q0 109 -151 229t-456 267v236zM421 1519h-235v211h235v-211z" />
    <glyph glyph-name="uni06AC.fina" unicode="&#x6ac;" horiz-adv-x="1710" 
d="M684 715q175 11 175 61q0 9 -11.5 16t-28 15t-36.5 18.5t-36.5 26t-28 37.5t-11.5 53q0 41 25.5 74t69 58.5t101 42.5t122.5 26v-129q-91 -12 -132 -29.5t-41 -40.5q0 -10 11.5 -17t28 -15t36.5 -17.5t36.5 -24.5t28 -35.5t11.5 -50.5q0 -33 -19.5 -66.5t-59 -61
t-100 -46.5t-141.5 -23v128zM1539 449q0 -52 3 -90t19.5 -63t51 -37t97.5 -12v-272h-46q-85 0 -144.5 29.5t-88.5 89.5h-6q-43 -45 -103 -70t-132 -38t-155 -16t-173 -3q-93 0 -182.5 2.5t-169 12.5t-146.5 31t-114 59q-36 28 -60 65.5t-39 79.5t-21.5 87t-6.5 90
q0 70 10.5 137t27.5 133h214q-8 -37 -14 -66.5t-10.5 -55t-6.5 -49.5t-2 -49q0 -43 10.5 -79t48.5 -65q26 -20 64.5 -33t96.5 -20t138 -9.5t190 -2.5q132 0 216.5 3.5t133 19t67.5 47.5t19 89v1122h213v-1067zM1001 1519h-235v211h235v-211z" />
    <glyph glyph-name="uni06AD" unicode="&#x6ad;" horiz-adv-x="1710" arabic-form="isolated" 
d="M684 715q175 11 175 61q0 9 -11.5 16t-28 15t-36.5 18.5t-36.5 26t-28 37.5t-11.5 53q0 41 25.5 74t69 58.5t101 42.5t122.5 26v-129q-91 -12 -132 -29.5t-41 -40.5q0 -10 11.5 -17t28 -15t36.5 -17.5t36.5 -24.5t28 -35.5t11.5 -50.5q0 -33 -19.5 -66.5t-59 -61
t-100 -46.5t-141.5 -23v128zM862 -33q-93 0 -182.5 2.5t-169 13t-146 31.5t-113.5 59q-36 28 -60.5 65t-39.5 79t-21.5 87t-6.5 90q0 70 10.5 137t27.5 133h214q-8 -37 -14.5 -66.5t-10.5 -55t-6 -49.5t-2 -49q0 -43 10.5 -79t48.5 -65q26 -20 65 -33t96.5 -20t138 -9.5
t189.5 -2.5q132 0 216.5 3.5t133 19t67.5 47.5t19 89v1122h213v-1129q0 -97 -24 -166t-68 -115.5t-106 -74t-137 -42t-161.5 -18.5t-180.5 -4zM829 1519h-235v211h235v-211zM1172 1519h-235v211h235v-211zM1001 1799h-235v211h235v-211z" />
    <glyph glyph-name="uni06AE.init" unicode="&#x6ae;" horiz-adv-x="1026" 
d="M0 1094l881 557v-287l-609 -372q120 -60 220.5 -125.5t174 -141t114.5 -163t41 -190.5q0 -44 -8 -90t-29 -90t-58.5 -83.5t-96.5 -69t-142.5 -47t-196.5 -17.5h-291q-35 0 -52.5 36.5t-17.5 99.5t17.5 99.5t52.5 36.5h294q91 0 151 4t96 16.5t51 35t15 59.5
q0 109 -151 229t-456 267v236zM481 -101h235v-211h-235v211zM138 -101h235v-211h-235v211zM309 -381h235v-211h-235v211z" />
    <glyph glyph-name="uni06AE.medi" unicode="&#x6ae;" horiz-adv-x="1026" 
d="M0 1094l881 557v-287l-609 -372q111 -56 206.5 -116.5t167.5 -129.5t117 -147.5t56 -170.5q4 -29 11 -54.5t24 -51.5q9 -14 22.5 -27.5t33.5 -24t48.5 -17t67.5 -6.5v-272h-22q-36 0 -73.5 8t-72 26t-64.5 46.5t-52 68.5h-6q-25 -32 -64 -59.5t-93.5 -47.5t-126 -31
t-161.5 -11h-291q-35 0 -52.5 36.5t-17.5 99.5t17.5 99.5t52.5 36.5h294q91 0 151 4t96 16.5t51 35t15 59.5q0 109 -151 229t-456 267v236zM481 -101h235v-211h-235v211zM138 -101h235v-211h-235v211zM309 -381h235v-211h-235v211z" />
    <glyph glyph-name="uni06AE.fina" unicode="&#x6ae;" horiz-adv-x="1710" 
d="M684 715q175 11 175 61q0 9 -11.5 16t-28 15t-36.5 18.5t-36.5 26t-28 37.5t-11.5 53q0 41 25.5 74t69 58.5t101 42.5t122.5 26v-129q-91 -12 -132 -29.5t-41 -40.5q0 -10 11.5 -17t28 -15t36.5 -17.5t36.5 -24.5t28 -35.5t11.5 -50.5q0 -33 -19.5 -66.5t-59 -61
t-100 -46.5t-141.5 -23v128zM1539 449q0 -52 3 -90t19.5 -63t51 -37t97.5 -12v-272h-46q-85 0 -144.5 29.5t-88.5 89.5h-6q-43 -45 -103 -70t-132 -38t-155 -16t-173 -3q-93 0 -182.5 2.5t-169 12.5t-146.5 31t-114 59q-36 28 -60 65.5t-39 79.5t-21.5 87t-6.5 90
q0 70 10.5 137t27.5 133h214q-8 -37 -14 -66.5t-10.5 -55t-6.5 -49.5t-2 -49q0 -43 10.5 -79t48.5 -65q26 -20 64.5 -33t96.5 -20t138 -9.5t190 -2.5q132 0 216.5 3.5t133 19t67.5 47.5t19 89v1122h213v-1067zM938 -101h235v-211h-235v211zM595 -101h235v-211h-235v211z
M766 -381h235v-211h-235v211z" />
    <glyph glyph-name="uni06AF" unicode="&#x6af;" horiz-adv-x="1881" arabic-form="isolated" 
d="M855 1094l881 557v-287l-609 -372q120 -60 221 -126t174 -141.5t114 -163t41 -191.5q0 -44 -10 -96.5t-39 -103t-82 -93.5t-139 -68q-93 -27 -231.5 -34.5t-327.5 -7.5q-89 0 -175.5 2.5t-164 13t-143.5 31.5t-114 59q-36 28 -60.5 65t-39.5 79t-21.5 88t-6.5 93
q0 66 10.5 134.5t27.5 131.5h214q-8 -37 -14.5 -66.5t-10.5 -55t-6 -49.5t-2 -49q0 -78 33 -120.5t107 -62t194 -22.5t293 -3q117 0 215.5 3.5t165.5 21.5q41 11 64 24.5t33.5 27.5t12.5 27.5t2 24.5q0 105 -151 226t-456 267v236zM855 1404l880 557v-178l-880 -557v178z
" />
    <glyph glyph-name="uni06B0.init" unicode="&#x6b0;" horiz-adv-x="1026" 
d="M0 1094l881 557v-287l-609 -372q120 -60 220.5 -125.5t174 -141t114.5 -163t41 -190.5q0 -44 -8 -90t-29 -90t-58.5 -83.5t-96.5 -69t-142.5 -47t-196.5 -17.5h-291q-35 0 -52.5 36.5t-17.5 99.5t17.5 99.5t52.5 36.5h294q91 0 151 4t96 16.5t51 35t15 59.5
q0 109 -151 229t-456 267v236zM624 1278q36 0 67 -13t54 -36t36.5 -55t13.5 -69q0 -35 -13.5 -65.5t-36.5 -53.5t-54 -36.5t-67 -13.5q-38 0 -70 13.5t-55 36.5t-36.5 53.5t-13.5 65.5q0 37 13 69t36 55t55 36t71 13zM624 1021q33 0 54 24.5t21 59.5q0 38 -21 63t-54 25
q-35 0 -57 -25t-22 -63q0 -35 22 -59.5t57 -24.5zM0 1404l880 557v-178l-880 -557v178z" />
    <glyph glyph-name="uni06B0.medi" unicode="&#x6b0;" horiz-adv-x="1026" 
d="M0 1094l881 557v-287l-609 -372q111 -56 206.5 -116.5t167.5 -129.5t117 -147.5t56 -170.5q4 -29 11 -54.5t24 -51.5q9 -14 22.5 -27.5t33.5 -24t48.5 -17t67.5 -6.5v-272h-22q-36 0 -73.5 8t-72 26t-64.5 46.5t-52 68.5h-6q-25 -32 -64 -59.5t-93.5 -47.5t-126 -31
t-161.5 -11h-291q-35 0 -52.5 36.5t-17.5 99.5t17.5 99.5t52.5 36.5h294q91 0 151 4t96 16.5t51 35t15 59.5q0 109 -151 229t-456 267v236zM624 1278q36 0 67 -13t54 -36t36.5 -55t13.5 -69q0 -35 -13.5 -65.5t-36.5 -53.5t-54 -36.5t-67 -13.5q-38 0 -70 13.5t-55 36.5
t-36.5 53.5t-13.5 65.5q0 37 13 69t36 55t55 36t71 13zM624 1021q33 0 54 24.5t21 59.5q0 38 -21 63t-54 25q-35 0 -57 -25t-22 -63q0 -35 22 -59.5t57 -24.5zM0 1404l880 557v-178l-880 -557v178z" />
    <glyph glyph-name="uni06B0.fina" unicode="&#x6b0;" horiz-adv-x="1881" 
d="M855 1094l881 557v-287l-609 -372q112 -56 207 -116.5t166.5 -129.5t116.5 -147.5t57 -170.5q4 -29 11 -54.5t24 -51.5q9 -14 22.5 -27.5t33.5 -24t48.5 -17t67.5 -6.5v-272h-22q-36 0 -73.5 8t-72 26t-64.5 46.5t-52 68.5h-6q-47 -56 -112.5 -87.5t-155.5 -47t-207 -19
t-268 -3.5q-89 0 -175.5 2.5t-164 13t-143.5 31.5t-114 59q-36 28 -60.5 65t-39.5 79t-21.5 88t-6.5 93q0 66 10.5 134.5t27.5 131.5h214q-8 -37 -14.5 -66.5t-10.5 -55t-6 -49.5t-2 -49q0 -78 33 -120.5t107 -62t194 -22.5t293 -3q117 0 215.5 3.5t165.5 21.5
q41 11 64 24.5t33.5 27.5t12.5 27.5t2 24.5q0 105 -151 226t-456 267v236zM1479 1278q36 0 67 -13t54 -36t36.5 -55t13.5 -69q0 -35 -13.5 -65.5t-36.5 -53.5t-54 -36.5t-67 -13.5q-38 0 -70 13.5t-55 36.5t-36.5 53.5t-13.5 65.5q0 37 13 69t36 55t55 36t71 13zM1479 1021
q33 0 54 24.5t21 59.5q0 38 -21 63t-54 25q-35 0 -57 -25t-22 -63q0 -35 22 -59.5t57 -24.5zM855 1404l880 557v-178l-880 -557v178z" />
    <glyph glyph-name="uni06B1" unicode="&#x6b1;" horiz-adv-x="1881" arabic-form="isolated" 
d="M855 1094l881 557v-287l-609 -372q120 -60 221 -126t174 -141.5t114 -163t41 -191.5q0 -44 -10 -96.5t-39 -103t-82 -93.5t-139 -68q-93 -27 -231.5 -34.5t-327.5 -7.5q-89 0 -175.5 2.5t-164 13t-143.5 31.5t-114 59q-36 28 -60.5 65t-39.5 79t-21.5 88t-6.5 93
q0 66 10.5 134.5t27.5 131.5h214q-8 -37 -14.5 -66.5t-10.5 -55t-6 -49.5t-2 -49q0 -78 33 -120.5t107 -62t194 -22.5t293 -3q117 0 215.5 3.5t165.5 21.5q41 11 64 24.5t33.5 27.5t12.5 27.5t2 24.5q0 105 -151 226t-456 267v236zM855 1404l880 557v-178l-880 -557v178z
M1090 1811h-235v211h235v-211zM1432 1811h-235v211h235v-211z" />
    <glyph glyph-name="uni06B2.init" unicode="&#x6b2;" horiz-adv-x="1026" 
d="M0 1094l881 557v-287l-609 -372q120 -60 220.5 -125.5t174 -141t114.5 -163t41 -190.5q0 -44 -8 -90t-29 -90t-58.5 -83.5t-96.5 -69t-142.5 -47t-196.5 -17.5h-291q-35 0 -52.5 36.5t-17.5 99.5t17.5 99.5t52.5 36.5h294q91 0 151 4t96 16.5t51 35t15 59.5
q0 109 -151 229t-456 267v236zM0 1404l880 557v-178l-880 -557v178zM374 -371h-235v211h235v-211zM716 -371h-235v211h235v-211z" />
    <glyph glyph-name="uni06B2.medi" unicode="&#x6b2;" horiz-adv-x="1026" 
d="M0 1094l881 557v-287l-609 -372q111 -56 206.5 -116.5t167.5 -129.5t117 -147.5t56 -170.5q4 -29 11 -54.5t24 -51.5q9 -14 22.5 -27.5t33.5 -24t48.5 -17t67.5 -6.5v-272h-22q-36 0 -73.5 8t-72 26t-64.5 46.5t-52 68.5h-6q-25 -32 -64 -59.5t-93.5 -47.5t-126 -31
t-161.5 -11h-291q-35 0 -52.5 36.5t-17.5 99.5t17.5 99.5t52.5 36.5h294q91 0 151 4t96 16.5t51 35t15 59.5q0 109 -151 229t-456 267v236zM0 1404l880 557v-178l-880 -557v178zM374 -371h-235v211h235v-211zM716 -371h-235v211h235v-211z" />
    <glyph glyph-name="uni06B2.fina" unicode="&#x6b2;" horiz-adv-x="1881" 
d="M855 1094l881 557v-287l-609 -372q112 -56 207 -116.5t166.5 -129.5t116.5 -147.5t57 -170.5q4 -29 11 -54.5t24 -51.5q9 -14 22.5 -27.5t33.5 -24t48.5 -17t67.5 -6.5v-272h-22q-36 0 -73.5 8t-72 26t-64.5 46.5t-52 68.5h-6q-47 -56 -112.5 -87.5t-155.5 -47t-207 -19
t-268 -3.5q-89 0 -175.5 2.5t-164 13t-143.5 31.5t-114 59q-36 28 -60.5 65t-39.5 79t-21.5 88t-6.5 93q0 66 10.5 134.5t27.5 131.5h214q-8 -37 -14.5 -66.5t-10.5 -55t-6 -49.5t-2 -49q0 -78 33 -120.5t107 -62t194 -22.5t293 -3q117 0 215.5 3.5t165.5 21.5
q41 11 64 24.5t33.5 27.5t12.5 27.5t2 24.5q0 105 -151 226t-456 267v236zM855 1404l880 557v-178l-880 -557v178zM888 -371h-235v211h235v-211zM1230 -371h-235v211h235v-211z" />
    <glyph glyph-name="uni06B3" unicode="&#x6b3;" horiz-adv-x="1881" arabic-form="isolated" 
d="M855 1094l881 557v-287l-609 -372q120 -60 221 -126t174 -141.5t114 -163t41 -191.5q0 -44 -10 -96.5t-39 -103t-82 -93.5t-139 -68q-93 -27 -231.5 -34.5t-327.5 -7.5q-89 0 -175.5 2.5t-164 13t-143.5 31.5t-114 59q-36 28 -60.5 65t-39.5 79t-21.5 88t-6.5 93
q0 66 10.5 134.5t27.5 131.5h214q-8 -37 -14.5 -66.5t-10.5 -55t-6 -49.5t-2 -49q0 -78 33 -120.5t107 -62t194 -22.5t293 -3q117 0 215.5 3.5t165.5 21.5q41 11 64 24.5t33.5 27.5t12.5 27.5t2 24.5q0 105 -151 226t-456 267v236zM1059 -592h-235v211h235v-211zM1059 -312
h-235v211h235v-211zM855 1404l880 557v-178l-880 -557v178z" />
    <glyph glyph-name="uni06B4.init" unicode="&#x6b4;" horiz-adv-x="1026" 
d="M0 1094l881 557v-287l-609 -372q120 -60 220.5 -125.5t174 -141t114.5 -163t41 -190.5q0 -44 -8 -90t-29 -90t-58.5 -83.5t-96.5 -69t-142.5 -47t-196.5 -17.5h-291q-35 0 -52.5 36.5t-17.5 99.5t17.5 99.5t52.5 36.5h294q91 0 151 4t96 16.5t51 35t15 59.5
q0 109 -151 229t-456 267v236zM0 1404l880 557v-178l-880 -557v178zM202 1781h-235v211h235v-211zM545 1781h-235v211h235v-211zM374 2061h-235v211h235v-211z" />
    <glyph glyph-name="uni06B4.medi" unicode="&#x6b4;" horiz-adv-x="1026" 
d="M0 1094l881 557v-287l-609 -372q111 -56 206.5 -116.5t167.5 -129.5t117 -147.5t56 -170.5q4 -29 11 -54.5t24 -51.5q9 -14 22.5 -27.5t33.5 -24t48.5 -17t67.5 -6.5v-272h-22q-36 0 -73.5 8t-72 26t-64.5 46.5t-52 68.5h-6q-25 -32 -64 -59.5t-93.5 -47.5t-126 -31
t-161.5 -11h-291q-35 0 -52.5 36.5t-17.5 99.5t17.5 99.5t52.5 36.5h294q91 0 151 4t96 16.5t51 35t15 59.5q0 109 -151 229t-456 267v236zM0 1404l880 557v-178l-880 -557v178zM202 1781h-235v211h235v-211zM545 1781h-235v211h235v-211zM374 2061h-235v211h235v-211z" />
    <glyph glyph-name="uni06B4.fina" unicode="&#x6b4;" horiz-adv-x="1881" 
d="M855 1094l881 557v-287l-609 -372q112 -56 207 -116.5t166.5 -129.5t116.5 -147.5t57 -170.5q4 -29 11 -54.5t24 -51.5q9 -14 22.5 -27.5t33.5 -24t48.5 -17t67.5 -6.5v-272h-22q-36 0 -73.5 8t-72 26t-64.5 46.5t-52 68.5h-6q-47 -56 -112.5 -87.5t-155.5 -47t-207 -19
t-268 -3.5q-89 0 -175.5 2.5t-164 13t-143.5 31.5t-114 59q-36 28 -60.5 65t-39.5 79t-21.5 88t-6.5 93q0 66 10.5 134.5t27.5 131.5h214q-8 -37 -14.5 -66.5t-10.5 -55t-6 -49.5t-2 -49q0 -78 33 -120.5t107 -62t194 -22.5t293 -3q117 0 215.5 3.5t165.5 21.5
q41 11 64 24.5t33.5 27.5t12.5 27.5t2 24.5q0 105 -151 226t-456 267v236zM855 1404l880 557v-178l-880 -557v178zM1057 1781h-235v211h235v-211zM1400 1781h-235v211h235v-211zM1229 2061h-235v211h235v-211z" />
    <glyph glyph-name="uni06B5.init" unicode="&#x6b5;" horiz-adv-x="684" 
d="M122 -25h-122q-35 0 -52.5 36.5t-17.5 99.5t17.5 99.5t52.5 36.5h132q40 0 71.5 3t53 16t32.5 39.5t11 74.5v1136h213v-1143q0 -122 -33 -199.5t-87.5 -121.5t-125 -60.5t-145.5 -16.5zM546 2065h174l-239 -365h-144l-245 365h179l139 -206z" />
    <glyph glyph-name="uni06B5.medi" unicode="&#x6b5;" horiz-adv-x="684" 
d="M132 -25h-132q-35 0 -52.5 36.5t-17.5 99.5t17.5 99.5t52.5 36.5h142q43 0 73 3.5t49 16.5t27.5 39.5t8.5 73.5v1136h213v-1067q0 -52 3 -90t19.5 -63t51 -37t97.5 -12v-272h-46q-87 0 -149 27.5t-91 87.5h-6q-26 -35 -58 -57t-66.5 -35t-69.5 -18t-66 -5zM542 2065h174
l-239 -365h-144l-245 365h179l139 -206z" />
    <glyph glyph-name="uni06B5.fina" unicode="&#x6b5;" horiz-adv-x="1368" 
d="M1157 65q-35 -212 -169 -314t-366 -102q-134 0 -228 35t-153 104t-86 170.5t-27 235.5q0 68 8 143t28 179h210q-10 -60 -16.5 -105.5t-10 -81t-4.5 -63t-1 -52.5q0 -74 13 -129t46 -91t89.5 -53.5t144.5 -17.5q100 0 167.5 23.5t107.5 73.5t57 128.5t17 188.5v1179h213
v-1063q0 -53 3 -91.5t19.5 -64t51 -38t97.5 -12.5v-272h-42q-54 0 -95.5 20.5t-65.5 69.5h-8zM1226 2065h174l-239 -365h-144l-245 365h179l139 -206z" />
    <glyph glyph-name="uni06B6.init" unicode="&#x6b6;" horiz-adv-x="684" 
d="M122 -25h-122q-35 0 -52.5 36.5t-17.5 99.5t17.5 99.5t52.5 36.5h132q40 0 71.5 3t53 16t32.5 39.5t11 74.5v1136h213v-1143q0 -122 -33 -199.5t-87.5 -121.5t-125 -60.5t-145.5 -16.5zM525 1699h-235v211h235v-211z" />
    <glyph glyph-name="uni06B6.medi" unicode="&#x6b6;" horiz-adv-x="684" 
d="M132 -25h-132q-35 0 -52.5 36.5t-17.5 99.5t17.5 99.5t52.5 36.5h142q43 0 73 3.5t49 16.5t27.5 39.5t8.5 73.5v1136h213v-1067q0 -52 3 -90t19.5 -63t51 -37t97.5 -12v-272h-46q-87 0 -149 27.5t-91 87.5h-6q-26 -35 -58 -57t-66.5 -35t-69.5 -18t-66 -5zM530 1699h-235
v211h235v-211z" />
    <glyph glyph-name="uni06B6.fina" unicode="&#x6b6;" horiz-adv-x="1368" 
d="M1157 65q-35 -212 -169 -314t-366 -102q-134 0 -228 35t-153 104t-86 170.5t-27 235.5q0 68 8 143t28 179h210q-10 -60 -16.5 -105.5t-10 -81t-4.5 -63t-1 -52.5q0 -74 13 -129t46 -91t89.5 -53.5t144.5 -17.5q100 0 167.5 23.5t107.5 73.5t57 128.5t17 188.5v1179h213
v-1063q0 -53 3 -91.5t19.5 -64t51 -38t97.5 -12.5v-272h-42q-54 0 -95.5 20.5t-65.5 69.5h-8zM1214 1699h-235v211h235v-211z" />
    <glyph glyph-name="uni06B7.init" unicode="&#x6b7;" horiz-adv-x="684" 
d="M122 -25h-122q-35 0 -52.5 36.5t-17.5 99.5t17.5 99.5t52.5 36.5h132q40 0 71.5 3t53 16t32.5 39.5t11 74.5v1136h213v-1143q0 -122 -33 -199.5t-87.5 -121.5t-125 -60.5t-145.5 -16.5zM353 1699h-235v211h235v-211zM696 1699h-235v211h235v-211zM525 1979h-235v211h235
v-211z" />
    <glyph glyph-name="uni06B7.medi" unicode="&#x6b7;" horiz-adv-x="684" 
d="M132 -25h-132q-35 0 -52.5 36.5t-17.5 99.5t17.5 99.5t52.5 36.5h142q43 0 73 3.5t49 16.5t27.5 39.5t8.5 73.5v1136h213v-1067q0 -52 3 -90t19.5 -63t51 -37t97.5 -12v-272h-46q-87 0 -149 27.5t-91 87.5h-6q-26 -35 -58 -57t-66.5 -35t-69.5 -18t-66 -5zM358 1699h-235
v211h235v-211zM701 1699h-235v211h235v-211zM530 1979h-235v211h235v-211z" />
    <glyph glyph-name="uni06B7.fina" unicode="&#x6b7;" horiz-adv-x="1368" 
d="M1157 65q-35 -212 -169 -314t-366 -102q-134 0 -228 35t-153 104t-86 170.5t-27 235.5q0 68 8 143t28 179h210q-10 -60 -16.5 -105.5t-10 -81t-4.5 -63t-1 -52.5q0 -74 13 -129t46 -91t89.5 -53.5t144.5 -17.5q100 0 167.5 23.5t107.5 73.5t57 128.5t17 188.5v1179h213
v-1063q0 -53 3 -91.5t19.5 -64t51 -38t97.5 -12.5v-272h-42q-54 0 -95.5 20.5t-65.5 69.5h-8zM1042 1699h-235v211h235v-211zM1385 1699h-235v211h235v-211zM1214 1979h-235v211h235v-211z" />
    <glyph glyph-name="uni06B8.init" unicode="&#x6b8;" horiz-adv-x="684" 
d="M122 -25h-122q-35 0 -52.5 36.5t-17.5 99.5t17.5 99.5t52.5 36.5h132q40 0 71.5 3t53 16t32.5 39.5t11 74.5v1136h213v-1143q0 -122 -33 -199.5t-87.5 -121.5t-125 -60.5t-145.5 -16.5zM384 -101h235v-211h-235v211zM41 -101h235v-211h-235v211zM212 -381h235v-211h-235
v211z" />
    <glyph glyph-name="uni06B8.medi" unicode="&#x6b8;" horiz-adv-x="684" 
d="M132 -25h-132q-35 0 -52.5 36.5t-17.5 99.5t17.5 99.5t52.5 36.5h142q43 0 73 3.5t49 16.5t27.5 39.5t8.5 73.5v1136h213v-1067q0 -52 3 -90t19.5 -63t51 -37t97.5 -12v-272h-46q-87 0 -149 27.5t-91 87.5h-6q-26 -35 -58 -57t-66.5 -35t-69.5 -18t-66 -5zM384 -101h235
v-211h-235v211zM41 -101h235v-211h-235v211zM212 -381h235v-211h-235v211z" />
    <glyph glyph-name="uni06B8.fina" unicode="&#x6b8;" horiz-adv-x="1368" 
d="M622 -33q-134 0 -227.5 35t-153 104t-86.5 170.5t-27 235.5q0 68 8 143t28 179h210q-9 -60 -15 -105.5t-10 -81t-5.5 -63t-1.5 -52.5q0 -74 13 -129t46 -91t89.5 -53.5t144.5 -17.5q100 0 167 23.5t107.5 73.5t57.5 128.5t17 188.5v861h213v-1063q0 -52 3 -91t19.5 -64.5
t51 -38t97.5 -12.5v-272h-33q-33 0 -70 6t-73 23.5t-68.5 49.5t-56.5 84h-6q-69 -85 -176.5 -128t-262.5 -43zM547 -373h235v-211h-235v211zM376 -93h235v-211h-235v211zM719 -93h235v-211h-235v211z" />
    <glyph glyph-name="uni06B9.init" unicode="&#x6b9;" horiz-adv-x="684" 
d="M132 -25h-132q-35 0 -52.5 36.5t-17.5 99.5t17.5 99.5t52.5 36.5h142q40 0 70 3t49.5 16t29 39.5t9.5 74.5v475h213v-482q0 -122 -31.5 -199.5t-84 -121.5t-121.5 -60.5t-144 -16.5zM525 1056h-235v211h235v-211zM505 -371h-235v211h235v-211z" />
    <glyph glyph-name="uni06B9.medi" unicode="&#x6b9;" horiz-adv-x="684" 
d="M132 -25h-132q-35 0 -52.5 36.5t-17.5 99.5t17.5 99.5t52.5 36.5h142q43 0 73 3.5t49 16.5t27.5 39.5t8.5 73.5v475h213v-406q0 -52 3 -90t19.5 -63t51 -37t97.5 -12v-272h-46q-87 0 -149 27.5t-91 87.5h-6q-26 -35 -58 -57t-66.5 -35t-69.5 -18t-66 -5zM525 1056h-235
v211h235v-211zM505 -371h-235v211h235v-211z" />
    <glyph glyph-name="uni06B9.fina" unicode="&#x6b9;" horiz-adv-x="1368" 
d="M1156 884q22 -118 31.5 -214t9.5 -186v-31q0 -56 3 -95t19.5 -64t51 -36t97.5 -11v-272h-27q-28 0 -56.5 4t-56 15t-52 30t-44.5 49l-12 1q-63 -126 -184.5 -192t-312.5 -66q-134 0 -228 35t-153.5 104t-86.5 171t-27 236q0 34 2 70.5t6.5 76.5t12 85.5t17.5 98.5h209
q-10 -62 -16.5 -109t-10 -83.5t-5 -65t-1.5 -54.5q0 -74 13 -129t46 -91t89.5 -53.5t143.5 -17.5q100 0 166.5 23.5t105.5 73.5t55 128.5t16 188.5q0 33 -2 70t-6.5 82.5t-13 101t-20.5 126.5h221zM789 -546h-235v211h235v-211zM789 1004h-235v211h235v-211z" />
    <glyph glyph-name="uni06BA" unicode="&#x6ba;" horiz-adv-x="1368" arabic-form="isolated" 
d="M1156 544q21 -118 31 -214t10 -186q0 -161 -31 -285.5t-100 -209.5t-178 -129t-265 -44q-134 0 -228 35t-153.5 104t-86.5 171t-27 236q0 34 2 70.5t6.5 76.5t12 85.5t17.5 98.5h209q-10 -62 -16.5 -109t-10 -83.5t-5 -65t-1.5 -54.5q0 -74 13 -129t46 -91t89.5 -53.5
t143.5 -17.5q100 0 166.5 23.5t105.5 73.5t55 128.5t16 188.5q0 33 -2 70t-7 82t-13 101t-20 127h221z" />
    <glyph glyph-name="uni06BB" unicode="&#x6bb;" horiz-adv-x="1368" arabic-form="isolated" 
d="M1156 544q21 -118 31 -214t10 -186q0 -161 -31 -285.5t-100 -209.5t-178 -129t-265 -44q-134 0 -228 35t-153.5 104t-86.5 171t-27 236q0 34 2 70.5t6.5 76.5t12 85.5t17.5 98.5h209q-10 -62 -16.5 -109t-10 -83.5t-5 -65t-1.5 -54.5q0 -74 13 -129t46 -91t89.5 -53.5
t143.5 -17.5q100 0 166.5 23.5t105.5 73.5t55 128.5t16 188.5q0 33 -2 70t-7 82t-13 101t-20 127h221zM339 857q33 -4 64 -5.5t62 -1.5v492h125v-314l4 -1q38 49 82.5 81t107.5 32q52 0 89.5 -20t61.5 -53.5t35.5 -76t11.5 -87.5q0 -66 -20.5 -102.5t-56.5 -53.5t-85 -20
t-106 -3q-71 0 -125.5 1t-97 2.5t-75.5 4t-61 5.5zM702 847q46 0 77 1t49.5 6.5t26.5 17.5t8 33q0 54 -26.5 83.5t-63.5 29.5q-29 0 -55 -15t-49 -39t-42 -54.5t-34 -62.5h109z" />
    <glyph glyph-name="uni06BC.init" unicode="&#x6bc;" horiz-adv-x="684" 
d="M132 -25h-132q-35 0 -52.5 36.5t-17.5 99.5t17.5 99.5t52.5 36.5h142q40 0 70 3t49.5 16t29 39.5t9.5 74.5v475h213v-482q0 -122 -31.5 -199.5t-84 -121.5t-121.5 -60.5t-144 -16.5zM285 71q36 0 67 -13t54 -36t36.5 -55t13.5 -69q0 -35 -13.5 -65.5t-36.5 -53.5
t-54 -36.5t-67 -13.5q-38 0 -70 13.5t-55 36.5t-36.5 53.5t-13.5 65.5q0 37 13 69t36 55t55 36t71 13zM285 -186q33 0 54 24.5t21 59.5q0 38 -21 63t-54 25q-35 0 -57 -25t-22 -63q0 -35 22 -59.5t57 -24.5zM525 1056h-235v211h235v-211z" />
    <glyph glyph-name="uni06BC.medi" unicode="&#x6bc;" horiz-adv-x="684" 
d="M132 -25h-132q-35 0 -52.5 36.5t-17.5 99.5t17.5 99.5t52.5 36.5h142q43 0 73 3.5t49 16.5t27.5 39.5t8.5 73.5v475h213v-406q0 -52 3 -90t19.5 -63t51 -37t97.5 -12v-272h-46q-87 0 -149 27.5t-91 87.5h-6q-26 -35 -58 -57t-66.5 -35t-69.5 -18t-66 -5zM525 1056h-235
v211h235v-211zM275 71q36 0 67 -13t54 -36t36.5 -55t13.5 -69q0 -35 -13.5 -65.5t-36.5 -53.5t-54 -36.5t-67 -13.5q-38 0 -70 13.5t-55 36.5t-36.5 53.5t-13.5 65.5q0 37 13 69t36 55t55 36t71 13zM275 -186q33 0 54 24.5t21 59.5q0 38 -21 63t-54 25q-35 0 -57 -25
t-22 -63q0 -35 22 -59.5t57 -24.5z" />
    <glyph glyph-name="uni06BC.fina" unicode="&#x6bc;" horiz-adv-x="1368" 
d="M1156 884q22 -118 31.5 -214t9.5 -186v-31q0 -56 3 -95t19.5 -64t51 -36t97.5 -11v-272h-27q-28 0 -56.5 4t-56 15t-52 30t-44.5 49l-12 1q-48 -94 -126 -154.5t-196 -86.5q15 -21 23.5 -47t8.5 -55q0 -35 -13.5 -65.5t-36.5 -53.5t-54 -36.5t-67 -13.5q-38 0 -70 13.5
t-55 36.5t-36.5 53.5t-13.5 65.5q0 52 24 93q-102 14 -174 55.5t-118 109t-67 161t-21 212.5q0 34 2 70.5t6.5 76.5t12 85.5t17.5 98.5h209q-10 -62 -16.5 -109t-10 -83.5t-5 -65t-1.5 -54.5q0 -74 13 -129t46 -91t89.5 -53.5t143.5 -17.5q100 0 166.5 23.5t105.5 73.5
t55 128.5t16 188.5q0 33 -2 70t-6.5 82.5t-13 101t-20.5 126.5h221zM789 1004h-235v211h235v-211zM659 -353q33 0 54 24.5t21 59.5q0 38 -21 63t-54 25q-35 0 -57 -25t-22 -63q0 -35 22 -59.5t57 -24.5z" />
    <glyph glyph-name="uni06BD.init" unicode="&#x6bd;" horiz-adv-x="684" 
d="M132 -25h-132q-35 0 -52.5 36.5t-17.5 99.5t17.5 99.5t52.5 36.5h142q40 0 70 3t49.5 16t29 39.5t9.5 74.5v475h213v-482q0 -122 -31.5 -199.5t-84 -121.5t-121.5 -60.5t-144 -16.5zM441 -101h235v-211h-235v211zM98 -101h235v-211h-235v211zM269 -381h235v-211h-235v211
z" />
    <glyph glyph-name="uni06BD.medi" unicode="&#x6bd;" horiz-adv-x="684" 
d="M132 -25h-132q-35 0 -52.5 36.5t-17.5 99.5t17.5 99.5t52.5 36.5h142q43 0 73 3.5t49 16.5t27.5 39.5t8.5 73.5v475h213v-406q0 -52 3 -90t19.5 -63t51 -37t97.5 -12v-272h-46q-87 0 -149 27.5t-91 87.5h-6q-26 -35 -58 -57t-66.5 -35t-69.5 -18t-66 -5zM441 -101h235
v-211h-235v211zM98 -101h235v-211h-235v211zM269 -381h235v-211h-235v211z" />
    <glyph glyph-name="uni06BD.fina" unicode="&#x6bd;" horiz-adv-x="1368" 
d="M1156 544q12 -67 18.5 -116t11.5 -94q2 -15 9.5 -30.5t27 -28t54 -20.5t91.5 -8v-272h-32q-28 0 -49 3.5t-37 10.5t-28.5 16t-24.5 20l-8 -3q-11 -132 -48 -234t-105 -171.5t-170 -105t-243 -35.5q-134 0 -228 35t-153.5 104t-86.5 171t-27 236q0 34 2 70.5t6.5 76.5
t12 85.5t17.5 98.5h209q-10 -62 -16.5 -109t-10 -83.5t-5 -65t-1.5 -54.5q0 -74 13 -129t46 -91t89.5 -53.5t143.5 -17.5q101 0 167.5 23.5t105.5 73.5t55 128.5t16 188.5q0 33 -1.5 70t-6 82t-13 101t-21.5 127h220zM617 714h-235v211h235v-211zM960 714h-235v211h235v-211
zM789 994h-235v211h235v-211z" />
    <glyph glyph-name="uni06BE" unicode="&#x6be;" horiz-adv-x="1539" arabic-form="isolated" 
d="M747 68q-78 -53 -180.5 -73t-212.5 -20q-77 0 -148 6.5t-115 12.5l-53 273q57 -7 107.5 -12.5t100.5 -9t102 -6t112 -2.5l2 5q-39 19 -67.5 48t-46.5 64.5t-27 75.5t-9 82q0 55 13.5 108.5t40 101.5t66 89.5t90.5 73.5l2 8l-36 22v306q207 -113 370.5 -236.5
t276.5 -245.5t173 -236.5t60 -209.5q0 -68 -11.5 -126.5t-31 -101t-45.5 -66.5t-54 -24q-53 0 -112.5 5t-121.5 16.5t-124.5 29t-120.5 42.5zM660 697q-27 0 -52.5 -19t-45 -46t-31 -56t-11.5 -50q0 -16 4 -36.5t23 -45t59 -53t112 -60.5q37 62 45.5 109.5t8.5 83.5
q0 28 -9 58.5t-24.5 56t-36 42t-42.5 16.5zM953 547q1 -10 1.5 -20t0.5 -20q0 -61 -10 -122t-36 -115q55 -17 114 -26t117 -13q5 12 6.5 20.5t1.5 16.5q0 33 -15 68t-40.5 70.5t-59.5 71.5t-73 72z" />
    <glyph glyph-name="uni06BF.init" unicode="&#x6bf;" horiz-adv-x="1197" 
d="M816 527q-44 27 -85.5 46t-86.5 31t-95.5 17.5t-112.5 5.5q-72 0 -135 -8t-130 -26v252q72 20 136.5 31t139.5 11q79 0 140 -14t113 -36t99 -48t97 -51q25 -12 52 -21t59.5 -15t71.5 -10t88 -7l-49 -291q-50 -12 -109.5 -47.5t-131 -82t-157.5 -97.5t-189 -93.5
t-224.5 -70.5t-263.5 -28h-43q-35 0 -52.5 36.5t-17.5 99.5t17.5 99.5t52.5 36.5h52q117 0 221 23.5t198 62t179.5 87t165.5 99.5v8zM652 -101h235v-211h-235v211zM309 -101h235v-211h-235v211zM480 -381h235v-211h-235v211zM716 1035h-235v211h235v-211z" />
    <glyph glyph-name="uni06BF.medi" unicode="&#x6bf;" horiz-adv-x="1197" 
d="M816 527q-44 27 -85.5 46t-86.5 31t-95.5 17.5t-112.5 5.5q-72 0 -135 -8t-130 -26v252q72 20 136.5 31t139.5 11q79 0 140 -14t113 -36t99 -48t97 -51q25 -12 52 -21t59.5 -15t71.5 -10t88 -7l-49 -291q-39 -10 -84.5 -34.5t-97.5 -57.5q4 -19 12 -30t22.5 -16.5
t37.5 -7t58 -1.5h131v-272h-64q-89 0 -148 17.5t-96.5 49t-57.5 75.5t-30 98q-69 -43 -149.5 -85.5t-174 -77t-202 -56t-232.5 -21.5h-43q-35 0 -52.5 36.5t-17.5 99.5t17.5 99.5t52.5 36.5h52q117 0 221 23.5t198 62t179.5 87t165.5 99.5v8zM652 -101h235v-211h-235v211z
M309 -101h235v-211h-235v211zM480 -381h235v-211h-235v211zM716 1035h-235v211h235v-211z" />
    <glyph glyph-name="uni06BF.fina" unicode="&#x6bf;" horiz-adv-x="1368" 
d="M677 62h-181v179h181v-179zM969 62h-181v179h181v-179zM823 -198h-181v179h181v-179zM703 642q-29 19 -56.5 31.5t-56.5 20t-62 10.5t-73 3q-73 0 -147 -9t-137 -26v252q66 20 127 31t130 11q75 0 132 -12.5t106 -31.5t94 -41t96.5 -41.5t114 -32.5t145.5 -14l-49 -277
q-220 -60 -362 -123.5t-225 -128.5t-115.5 -131t-32.5 -130q0 -49 18.5 -98.5t63 -89.5t119 -65t185.5 -25q94 0 192 20t217 63v-250q-63 -22 -117.5 -37.5t-104.5 -25.5t-98 -14.5t-98 -4.5q-146 0 -255 36.5t-181 102.5t-108 158t-36 203q0 91 26.5 185t92 181t176 162
t279.5 129v9zM1344 -25q-164 0 -258.5 102.5t-107.5 310.5q25 9 46.5 16t43 13t43.5 12t49 13q3 -52 15 -89t36 -60.5t62.5 -34.5t94.5 -11v-272h-24zM748 1146h-235v211h235v-211z" />
    <glyph glyph-name="uni06C0" unicode="&#x6c0;" horiz-adv-x="1026" arabic-form="isolated" 
d="M268 920l142 180q125 -86 214.5 -179t146.5 -188.5t84 -191.5t27 -188q0 -85 -26 -154.5t-75 -119t-119.5 -77t-158.5 -27.5q-86 0 -153 23.5t-113 68t-70 107.5t-24 142q0 86 20.5 164t54 144t75.5 120t84 92q-25 21 -52 42t-57 42zM351 352q0 -32 12.5 -52t33.5 -32
t49.5 -16.5t60.5 -4.5q87 0 126.5 28t39.5 80q0 73 -36.5 159t-114.5 180q-35 -29 -66.5 -67.5t-54.5 -83t-36.5 -93.5t-13.5 -98zM666 1525q-23 5 -43.5 8t-32.5 3q-37 0 -61.5 -15.5t-24.5 -53.5t28 -57t80 -19h100v-115h-377v109h80l1 4q-20 26 -30.5 50.5t-10.5 51.5
q0 36 15 65.5t42.5 51.5t66 34t85.5 12q34 0 82 -9v-120z" />
    <glyph glyph-name="uni06C1" unicode="&#x6c1;" horiz-adv-x="1026" arabic-form="isolated" 
d="M268 920l142 180q125 -86 214.5 -179t146.5 -188.5t84 -191.5t27 -188q0 -85 -26 -154.5t-75 -119t-119.5 -77t-158.5 -27.5q-86 0 -153 23.5t-113 68t-70 107.5t-24 142q0 86 20.5 164t54 144t75.5 120t84 92q-25 21 -52 42t-57 42zM351 352q0 -32 12.5 -52t33.5 -32
t49.5 -16.5t60.5 -4.5q87 0 126.5 28t39.5 80q0 73 -36.5 159t-114.5 180q-35 -29 -66.5 -67.5t-54.5 -83t-36.5 -93.5t-13.5 -98z" />
    <glyph glyph-name="uni06C2.fina" unicode="&#x6c2;" horiz-adv-x="1026" 
d="M1000 -25q-69 0 -125.5 20.5t-104.5 52t-89.5 67.5t-80.5 67.5t-77.5 52t-80.5 20.5q-36 0 -66.5 -13t-53.5 -45t-36 -87.5t-13 -140.5q0 -14 0.5 -29.5t1.5 -31.5h-196q-6 61 -6 116q0 139 34 235.5t88 155.5t120 85.5t131 26.5t120 -20.5t103 -52t91.5 -67.5t86 -67.5
t86.5 -52t93 -20.5v-272h-26zM559 1002q-23 5 -43.5 8t-32.5 3q-37 0 -61.5 -15.5t-24.5 -53.5t28 -57t80 -19h100v-115h-377v109h80l1 4q-20 26 -30.5 50.5t-10.5 51.5q0 36 15 65.5t42.5 51.5t66 34t85.5 12q34 0 82 -9v-120z" />
    <glyph glyph-name="uni06C3.fina" unicode="&#x6c3;" horiz-adv-x="1026" 
d="M1000 -25q-69 0 -125.5 20.5t-104.5 52t-89.5 67.5t-80.5 67.5t-77.5 52t-80.5 20.5q-36 0 -66.5 -13t-53.5 -45t-36 -87.5t-13 -140.5q0 -14 0.5 -29.5t1.5 -31.5h-196q-6 61 -6 116q0 139 34 235.5t88 155.5t120 85.5t131 26.5t120 -20.5t103 -52t91.5 -67.5t86 -67.5
t86.5 -52t93 -20.5v-272h-26zM374 754h-235v211h235v-211zM716 754h-235v211h235v-211z" />
    <glyph glyph-name="uni06C4.fina" unicode="&#x6c4;" horiz-adv-x="1026" 
d="M0 -174q55 -21 102.5 -35t89.5 -23t80 -12.5t75 -3.5q69 0 117.5 16t81 42t51 59t27.5 67q2 7 4.5 19.5t4.5 24.5h-90q-199 0 -304 91.5t-105 263.5q0 81 27.5 162.5t74 146t109 105t131.5 40.5q78 0 141 -44t121 -138q45 -72 72.5 -163t38.5 -197h177v-272h-180
q-13 -108 -50 -199.5t-98.5 -158t-148.5 -104t-200 -37.5q-42 0 -83 4t-83.5 13.5t-87.5 24t-95 35.5v273zM617 319q-12 36 -28 70.5t-35 61.5t-41 43.5t-45 16.5q-26 0 -49 -17.5t-40 -42t-27 -52t-10 -48.5q0 -66 47 -88t140 -22h106q-4 18 -8 39t-10 39zM229 19
q36 0 67 -13t54 -36t36.5 -55t13.5 -69q0 -35 -13.5 -65.5t-36.5 -53.5t-54 -36.5t-67 -13.5q-38 0 -70 13.5t-55 36.5t-36.5 53.5t-13.5 65.5q0 37 13 69t36 55t55 36t71 13zM229 -238q33 0 54 24.5t21 59.5q0 38 -21 63t-54 25q-35 0 -57 -25t-22 -63q0 -35 22 -59.5
t57 -24.5z" />
    <glyph glyph-name="uni06C5" unicode="&#x6c5;" horiz-adv-x="1026" arabic-form="isolated" 
d="M-23 -191q58 -23 107.5 -38t93 -23.5t83 -12t77.5 -3.5q93 0 152 22t93 75h-412v117h456q5 20 7.5 42.5t4.5 46.5q-35 -13 -71 -17.5t-73 -4.5q-63 0 -127.5 15.5t-116 53.5t-84.5 101t-33 158q0 80 27 160t73.5 144t108.5 104t133 40q78 0 140.5 -45t120.5 -135
q60 -94 89 -217.5t29 -268.5q0 -134 -30 -252t-93 -206t-160.5 -138.5t-233.5 -50.5q-44 0 -86 4t-85.5 13.5t-90.5 25t-99 37.5v253zM468 511q-28 0 -51 -17t-39.5 -41.5t-26 -51.5t-9.5 -47q0 -30 13.5 -50.5t36.5 -33t53.5 -17.5t63.5 -5q31 0 64 5t60 16q-8 36 -23.5 78
t-37 78.5t-48 61t-56.5 24.5z" />
    <glyph glyph-name="uni06C6" unicode="&#x6c6;" horiz-adv-x="1026" arabic-form="isolated" 
d="M0 -174q53 -20 99 -34t87 -23t78.5 -13t73.5 -4q83 0 138 21.5t89 57t50.5 82t22.5 97.5q-69 -25 -143 -25q-63 0 -127.5 18.5t-116 60t-84.5 108.5t-33 163q0 81 27 162.5t73.5 146t108.5 105t133 40.5q78 0 141 -44.5t120 -135.5q60 -94 89 -222t29 -274
q0 -132 -30 -248t-93 -202.5t-160.5 -136.5t-233.5 -50q-41 0 -81 4.5t-81 14.5t-84.5 24t-91.5 34v273zM468 511q-28 0 -51 -17.5t-39.5 -43t-26 -53.5t-9.5 -49q0 -32 13.5 -53t36.5 -33.5t53.5 -18t63.5 -5.5q31 0 64 5.5t60 16.5q-8 37 -23.5 80.5t-37 81.5t-48 63.5
t-56.5 25.5zM625 1412h174l-239 -365h-144l-245 365h179l139 -206z" />
    <glyph glyph-name="uni06C7" unicode="&#x6c7;" horiz-adv-x="1026" arabic-form="isolated" 
d="M0 -174q53 -20 99 -34t87 -23t78.5 -13t73.5 -4q83 0 138 21.5t89 57t50.5 82t22.5 97.5q-69 -25 -143 -25q-63 0 -127.5 18.5t-116 60t-84.5 108.5t-33 163q0 81 27 162.5t73.5 146t108.5 105t133 40.5q78 0 141 -44.5t120 -135.5q60 -94 89 -222t29 -274
q0 -132 -30 -248t-93 -202.5t-160.5 -136.5t-233.5 -50q-41 0 -81 4.5t-81 14.5t-84.5 24t-91.5 34v273zM468 511q-28 0 -51 -17.5t-39.5 -43t-26 -53.5t-9.5 -49q0 -32 13.5 -53t36.5 -33.5t53.5 -18t63.5 -5.5q31 0 64 5.5t60 16.5q-8 37 -23.5 80.5t-37 81.5t-48 63.5
t-56.5 25.5zM543 999q-31 23 -54 41.5t-37 32.5q-9 -2 -20.5 -3t-22 -1.5t-19 -0.5h-10.5q-66 0 -120 7.5t-116 24.5l22 102q58 -15 106.5 -23.5t97.5 -9.5q-23 32 -34 63.5t-11 61.5q0 40 16.5 71t43.5 52.5t61.5 32.5t70.5 11q34 0 66.5 -10.5t58 -31.5t41 -53.5
t15.5 -75.5q0 -63 -32 -107t-92 -72q4 -5 10 -10.5t28 -21.5zM575 1289q0 35 -19 50.5t-42 15.5q-24 0 -44.5 -15.5t-20.5 -47.5q0 -25 13 -51t35 -51q35 14 56.5 38t21.5 61z" />
    <glyph glyph-name="uni06C8" unicode="&#x6c8;" horiz-adv-x="1026" arabic-form="isolated" 
d="M0 -174q53 -20 99 -34t87 -23t78.5 -13t73.5 -4q83 0 138 21.5t89 57t50.5 82t22.5 97.5q-69 -25 -143 -25q-63 0 -127.5 18.5t-116 60t-84.5 108.5t-33 163q0 81 27 162.5t73.5 146t108.5 105t133 40.5q78 0 141 -44.5t120 -135.5q60 -94 89 -222t29 -274
q0 -132 -30 -248t-93 -202.5t-160.5 -136.5t-233.5 -50q-41 0 -81 4.5t-81 14.5t-84.5 24t-91.5 34v273zM468 511q-28 0 -51 -17.5t-39.5 -43t-26 -53.5t-9.5 -49q0 -32 13.5 -53t36.5 -33.5t53.5 -18t63.5 -5.5q31 0 64 5.5t60 16.5q-8 37 -23.5 80.5t-37 81.5t-48 63.5
t-56.5 25.5zM566 1045h-163v404h163v-404z" />
    <glyph glyph-name="uni06C9" unicode="&#x6c9;" horiz-adv-x="1026" arabic-form="isolated" 
d="M0 -174q53 -20 99 -34t87 -23t78.5 -13t73.5 -4q83 0 138 21.5t89 57t50.5 82t22.5 97.5q-69 -25 -143 -25q-63 0 -127.5 18.5t-116 60t-84.5 108.5t-33 163q0 81 27 162.5t73.5 146t108.5 105t133 40.5q78 0 141 -44.5t120 -135.5q60 -94 89 -222t29 -274
q0 -132 -30 -248t-93 -202.5t-160.5 -136.5t-233.5 -50q-41 0 -81 4.5t-81 14.5t-84.5 24t-91.5 34v273zM468 511q-28 0 -51 -17.5t-39.5 -43t-26 -53.5t-9.5 -49q0 -32 13.5 -53t36.5 -33.5t53.5 -18t63.5 -5.5q31 0 64 5.5t60 16.5q-8 37 -23.5 80.5t-37 81.5t-48 63.5
t-56.5 25.5zM345 1047h-174l239 365h144l245 -365h-179l-139 206z" />
    <glyph glyph-name="uni06CA.fina" unicode="&#x6ca;" horiz-adv-x="1026" 
d="M0 -174q55 -21 102.5 -35t89.5 -23t80 -12.5t75 -3.5q69 0 117.5 16t81 42t51 59t27.5 67q2 7 4.5 19.5t4.5 24.5h-90q-199 0 -304 91.5t-105 263.5q0 81 27.5 162.5t74 146t109 105t131.5 40.5q78 0 141 -44t121 -138q45 -72 72.5 -163t38.5 -197h177v-272h-180
q-13 -108 -50 -199.5t-98.5 -158t-148.5 -104t-200 -37.5q-42 0 -83 4t-83.5 13.5t-87.5 24t-95 35.5v273zM617 319q-12 36 -28 70.5t-35 61.5t-41 43.5t-45 16.5q-26 0 -49 -17.5t-40 -42t-27 -52t-10 -48.5q0 -66 47 -88t140 -22h106q-4 18 -8 39t-10 39zM416 1029h-235
v211h235v-211zM758 1029h-235v211h235v-211z" />
    <glyph glyph-name="uni06CB" unicode="&#x6cb;" horiz-adv-x="1026" arabic-form="isolated" 
d="M0 -174q53 -20 99 -34t87 -23t78.5 -13t73.5 -4q83 0 138 21.5t89 57t50.5 82t22.5 97.5q-69 -25 -143 -25q-63 0 -127.5 18.5t-116 60t-84.5 108.5t-33 163q0 81 27 162.5t73.5 146t108.5 105t133 40.5q78 0 141 -44.5t120 -135.5q60 -94 89 -222t29 -274
q0 -132 -30 -248t-93 -202.5t-160.5 -136.5t-233.5 -50q-41 0 -81 4.5t-81 14.5t-84.5 24t-91.5 34v273zM468 511q-28 0 -51 -17.5t-39.5 -43t-26 -53.5t-9.5 -49q0 -32 13.5 -53t36.5 -33.5t53.5 -18t63.5 -5.5q31 0 64 5.5t60 16.5q-8 37 -23.5 80.5t-37 81.5t-48 63.5
t-56.5 25.5zM415 1029h-235v211h235v-211zM758 1029h-235v211h235v-211zM587 1309h-235v211h235v-211z" />
    <glyph glyph-name="uni06CC" unicode="&#x6cc;" horiz-adv-x="1539" arabic-form="isolated" 
d="M1426 885q-103 -14 -183.5 -29t-135.5 -33.5t-84 -41.5t-29 -54q0 -21 13 -36.5t35.5 -29t51.5 -27t61 -28.5q49 -24 88.5 -49.5t67 -57.5t42.5 -72t15 -92q0 -95 -49.5 -187.5t-140.5 -166t-221 -118.5t-290 -45q-148 0 -251.5 39t-168.5 109.5t-94.5 168.5t-29.5 217
q0 103 22.5 207t60.5 219h213q-20 -74 -34.5 -132t-24 -105.5t-14 -87t-4.5 -77.5q0 -52 11.5 -102.5t48 -91t104 -65.5t179.5 -25q91 0 176.5 17t151.5 44t105.5 61t39.5 69q0 22 -15 39t-39 31t-53 27t-57 27q-42 21 -79 48t-65 62t-44.5 80.5t-16.5 103.5q0 93 44 167.5
t126.5 131t200.5 94.5t266 58v-267z" />
    <glyph glyph-name="uni06CD.fina" unicode="&#x6cd;" horiz-adv-x="1880" 
d="M1880 247v-272h-21q-92 0 -155.5 27.5t-108.5 68.5t-75 89t-56 89t-51.5 68.5t-60.5 27.5q-23 0 -37 -15.5t-14 -38.5t14 -43.5t33 -45.5q49 -65 49 -141q0 -90 -47.5 -154t-125 -104.5t-176 -59t-201.5 -18.5q-158 0 -262.5 43.5t-167 116.5t-88.5 169t-26 201
q0 23 1 45.5t3 45.5l-277 -86v160l530 157q-22 -78 -35 -146t-13 -144q0 -62 15.5 -115.5t56 -93t111.5 -62t182 -22.5q69 0 126.5 3.5t98.5 14t64 29t23 47.5q0 36 -16.5 64t-36.5 58q-41 63 -41 136q0 52 19.5 98t54 80t82.5 54t105 20q59 0 99 -15t68.5 -40t48 -56.5
t38 -64t39 -64t51 -56.5t73.5 -40t107 -15z" />
    <glyph glyph-name="uni06CE.init" unicode="&#x6ce;" horiz-adv-x="684" 
d="M132 -25h-132q-35 0 -52.5 36.5t-17.5 99.5t17.5 99.5t52.5 36.5h142q40 0 70 3t49.5 16t29 39.5t9.5 74.5v475h213v-482q0 -122 -31.5 -199.5t-84 -121.5t-121.5 -60.5t-144 -16.5zM542 1423h174l-239 -365h-144l-245 365h179l139 -206zM334 -371h-235v211h235v-211z
M676 -371h-235v211h235v-211z" />
    <glyph glyph-name="uni06CE.medi" unicode="&#x6ce;" horiz-adv-x="684" 
d="M132 -25h-132q-35 0 -52.5 36.5t-17.5 99.5t17.5 99.5t52.5 36.5h142q43 0 73 3.5t49 16.5t27.5 39.5t8.5 73.5v475h213v-406q0 -52 3 -90t19.5 -63t51 -37t97.5 -12v-272h-46q-87 0 -149 27.5t-91 87.5h-6q-26 -35 -58 -57t-66.5 -35t-69.5 -18t-66 -5zM547 1423h174
l-239 -365h-144l-245 365h179l139 -206zM277 -371h-235v211h235v-211zM619 -371h-235v211h235v-211z" />
    <glyph glyph-name="uni06CE.fina" unicode="&#x6ce;" horiz-adv-x="1710" 
d="M1710 247v-272h-21q-92 0 -155.5 27.5t-108.5 68.5t-75 89t-56 89t-51.5 68.5t-60.5 27.5q-23 0 -37 -15.5t-14 -38.5t14 -43.5t33 -45.5q49 -65 49 -141q0 -90 -47.5 -154t-125 -104.5t-176 -59t-201.5 -18.5q-158 0 -263.5 44.5t-169 118.5t-90 170t-26.5 199
q0 82 13 163.5t33 156.5h216q-22 -78 -35 -146t-13 -144q0 -62 15.5 -115.5t56 -93t111.5 -62t182 -22.5q69 0 126.5 3.5t98.5 14t64 29t23 47.5q0 36 -16.5 64t-36.5 58q-41 63 -41 136q0 52 19.5 98t54 80t82.5 54t105 20q59 0 99 -15t68.5 -40t48 -56.5t38 -64t39 -64
t51 -56.5t73.5 -40t107 -15zM909 1151h174l-239 -365h-144l-245 365h179l139 -206z" />
    <glyph glyph-name="uni06CF.fina" unicode="&#x6cf;" horiz-adv-x="1026" 
d="M0 -174q55 -21 102.5 -35t89.5 -23t80 -12.5t75 -3.5q69 0 117.5 16t81 42t51 59t27.5 67q2 7 4.5 19.5t4.5 24.5h-90q-199 0 -304 91.5t-105 263.5q0 81 27.5 162.5t74 146t109 105t131.5 40.5q78 0 141 -44t121 -138q45 -72 72.5 -163t38.5 -197h177v-272h-180
q-13 -108 -50 -199.5t-98.5 -158t-148.5 -104t-200 -37.5q-42 0 -83 4t-83.5 13.5t-87.5 24t-95 35.5v273zM617 319q-12 36 -28 70.5t-35 61.5t-41 43.5t-45 16.5q-26 0 -49 -17.5t-40 -42t-27 -52t-10 -48.5q0 -66 47 -88t140 -22h106q-4 18 -8 39t-10 39zM587 1029h-235
v211h235v-211z" />
    <glyph glyph-name="uni06D0" unicode="&#x6d0;" horiz-adv-x="1539" arabic-form="isolated" 
d="M1426 1034q-103 -14 -183.5 -29t-135.5 -33.5t-84 -41.5t-29 -54q0 -21 13 -36.5t35.5 -29t51.5 -27t61 -28.5q49 -24 88.5 -49.5t67 -57.5t42.5 -72t15 -92q0 -95 -49.5 -187.5t-140.5 -166t-221 -118.5t-290 -45q-148 0 -251.5 39t-168.5 109.5t-94.5 168.5t-29.5 217
q0 103 22.5 207t60.5 219h213q-20 -74 -34.5 -132t-24 -105.5t-14 -87t-4.5 -77.5q0 -52 11.5 -102.5t48 -91t104 -65.5t179.5 -25q91 0 176.5 17t151.5 44t105.5 61t39.5 69q0 22 -15 39t-39 31t-53 27t-57 27q-42 21 -79 48t-65 62t-44.5 80.5t-16.5 103.5q0 93 44 167.5
t126.5 131t200.5 94.5t266 58v-267zM887 -592h-235v211h235v-211zM887 -312h-235v211h235v-211z" />
    <glyph glyph-name="uni06D1.init" unicode="&#x6d1;" horiz-adv-x="684" 
d="M132 -25h-132q-35 0 -52.5 36.5t-17.5 99.5t17.5 99.5t52.5 36.5h142q40 0 70 3t49.5 16t29 39.5t9.5 74.5v475h213v-482q0 -122 -31.5 -199.5t-84 -121.5t-121.5 -60.5t-144 -16.5zM441 -101h235v-211h-235v211zM98 -101h235v-211h-235v211zM269 -381h235v-211h-235v211
z" />
    <glyph glyph-name="uni06D1.medi" unicode="&#x6d1;" horiz-adv-x="684" 
d="M132 -25h-132q-35 0 -52.5 36.5t-17.5 99.5t17.5 99.5t52.5 36.5h142q43 0 73 3.5t49 16.5t27.5 39.5t8.5 73.5v475h213v-406q0 -52 3 -90t19.5 -63t51 -37t97.5 -12v-272h-46q-87 0 -149 27.5t-91 87.5h-6q-26 -35 -58 -57t-66.5 -35t-69.5 -18t-66 -5zM441 -101h235
v-211h-235v211zM98 -101h235v-211h-235v211zM269 -381h235v-211h-235v211z" />
    <glyph glyph-name="uni06D1.fina" unicode="&#x6d1;" horiz-adv-x="1710" 
d="M1710 247v-272h-21q-68 0 -120.5 20.5t-92 54.5t-69 77t-52.5 88.5t-42 88.5t-37.5 77t-39 54.5t-46.5 20.5q-24 0 -36 -16t-12 -39q0 -22 8.5 -44t16.5 -38q11 -23 21.5 -53t10.5 -53q0 -46 -20.5 -83t-56 -65.5t-84 -49.5t-104.5 -34.5t-117 -20t-122 -6.5
q-166 0 -275.5 42.5t-174 113t-91 163t-26.5 193.5q0 82 14 159t35 155h213q-11 -38 -20 -72.5t-15 -68t-9.5 -68t-3.5 -71.5q0 -62 14.5 -112.5t54 -87.5t110 -57t182.5 -20q85 0 142 3t90.5 11t47.5 23t14 39q0 18 -6 36.5t-14 35.5q-12 25 -23.5 55.5t-11.5 63.5
q0 42 18 81.5t51.5 70t80.5 49t106 18.5q61 0 103 -20t72 -52.5t50.5 -74t39.5 -84.5t38.5 -84.5t47 -74t66 -52.5t95.5 -20zM766 -106h235v-211h-235v211zM423 -106h235v-211h-235v211zM594 -386h235v-211h-235v211z" />
    <glyph glyph-name="uni06D2" unicode="&#x6d2;" horiz-adv-x="1881" arabic-form="isolated" 
d="M1765 13q-123 -12 -244.5 -20.5t-234.5 -14.5t-214.5 -8.5t-183.5 -2.5q-158 0 -277.5 11t-207.5 31.5t-147 51t-94.5 69.5t-50.5 86.5t-15 102.5q0 63 20 116t56 98.5t87 85.5t113 76q47 28 97.5 56.5t102 60.5t103 68.5t101.5 79.5l149 -208q-98 -82 -181.5 -139
t-152 -96t-121 -64t-88.5 -43.5t-54.5 -34.5t-18.5 -37q0 -32 28.5 -51.5t97 -30.5t183 -15t286.5 -4q241 0 454 13.5t407 31.5v-269z" />
    <glyph glyph-name="uni06D3" unicode="&#x6d3;" horiz-adv-x="1881" arabic-form="isolated" 
d="M1765 13q-123 -12 -244.5 -20.5t-234.5 -14.5t-214.5 -8.5t-183.5 -2.5q-158 0 -277.5 11t-207.5 31.5t-147 51t-94.5 69.5t-50.5 86.5t-15 102.5q0 63 20 116t56 98.5t87 85.5t113 76q47 28 97.5 56.5t102 60.5t103 68.5t101.5 79.5l149 -208q-98 -82 -181.5 -139
t-152 -96t-121 -64t-88.5 -43.5t-54.5 -34.5t-18.5 -37q0 -32 28.5 -51.5t97 -30.5t183 -15t286.5 -4q241 0 454 13.5t407 31.5v-269zM559 1293q-23 5 -43.5 8t-32.5 3q-37 0 -61.5 -15.5t-24.5 -53.5t28 -57t80 -19h100v-115h-377v109h80l1 4q-20 26 -30.5 50.5t-10.5 51.5
q0 36 15 65.5t42.5 51.5t66 34t85.5 12q34 0 82 -9v-120z" />
    <glyph glyph-name="uni06D5.fina" unicode="&#x6d5;" horiz-adv-x="1026" 
d="M979 -25q-50 0 -96.5 9t-86.5 30.5t-72.5 59t-54.5 94.5q-39 -9 -77.5 -14t-76.5 -5q-77 0 -146 21t-121 63t-82.5 105.5t-30.5 149.5q0 100 41.5 180t111 140t161 99t192.5 57v123h213v-660q0 -46 4 -80t21.5 -56t52 -33t94.5 -11v-272h-47zM641 705q-61 -12 -115 -28
t-95 -39t-65 -54t-24 -73q0 -33 14.5 -53t38.5 -31.5t55 -15t64 -3.5t64 3.5t63 11.5v282z" />
    <glyph glyph-name="uni06EE.fina" unicode="&#x6ee;" horiz-adv-x="1026" 
d="M392 -29q-57 0 -134 6.5t-165 22.5l-54 275q112 -16 201 -24t161 -8q69 0 109.5 9.5t62 28t27.5 45.5t6 62q0 46 -15 119t-40 161.5t-58 186t-69 192.5h252q57 -168 95 -309.5t67 -270.5q9 -39 19 -78t29.5 -70.5t52.5 -51.5t87 -20v-272h-30q-31 0 -60.5 7t-56.5 22.5
t-50.5 41.5t-42.5 65h-5q-32 -41 -75 -67.5t-93.5 -43t-106.5 -23t-114 -6.5zM321 1259h-174l239 365h144l245 -365h-179l-139 206z" />
    <glyph glyph-name="uni06EF.fina" unicode="&#x6ef;" horiz-adv-x="855" 
d="M0 -211q69 -20 115.5 -28.5t85.5 -8.5q81 0 132 28.5t80 76.5t39.5 111t10.5 133q0 67 -9 133.5t-27 138.5t-44.5 152t-60.5 175h236q35 -88 60.5 -178.5t41.5 -179.5q4 -20 13.5 -37t31 -30t57.5 -20.5t93 -7.5v-272h-26q-29 0 -50 4t-37.5 11t-29 17.5t-24.5 24.5
l-5 -1q-7 -145 -47.5 -249.5t-105 -172.5t-148 -100.5t-174.5 -32.5q-48 0 -96.5 9.5t-111.5 32.5v271zM270 917h-174l239 365h144l245 -365h-179l-139 206z" />
    <glyph glyph-name="uni06FA.init" unicode="&#x6fa;" horiz-adv-x="1710" 
d="M392 88q-28 -32 -61.5 -54t-69 -35t-71 -18.5t-67.5 -5.5h-123q-35 0 -52.5 36.5t-17.5 99.5t17.5 99.5t52.5 36.5h133q25 0 54.5 4t54.5 18t42 40.5t17 70.5v284h212v-218q0 -51 3 -88.5t17 -62t43 -36.5t81 -12q30 0 58 3.5t49.5 16.5t35 39.5t13.5 73.5v284h213v-215
q0 -52 3 -90t17.5 -63t46 -37t88.5 -12q31 0 57.5 3t46 16.5t30.5 40t11 73.5v475h213v-488q0 -118 -30 -194t-80 -120t-115 -61t-135 -17q-39 0 -77 5.5t-72 18t-63 34.5t-50 55h-4q-27 -32 -60.5 -54t-69 -35t-70.5 -18.5t-66 -5.5q-90 0 -151.5 26t-99.5 87h-4zM868 885
h-235v211h235v-211zM1211 885h-235v211h235v-211zM1040 1165h-235v211h235v-211zM1040 -371h-235v211h235v-211z" />
    <glyph glyph-name="uni06FA.medi" unicode="&#x6fa;" horiz-adv-x="1710" 
d="M392 88q-28 -32 -61.5 -54t-69 -35t-71 -18.5t-67.5 -5.5h-123q-35 0 -52.5 36.5t-17.5 99.5t17.5 99.5t52.5 36.5h133q25 0 54.5 4t54.5 18t42 40.5t17 70.5v284h212v-218q0 -51 3 -88.5t17 -62t43 -36.5t81 -12q30 0 58 3.5t49.5 16.5t35 39.5t13.5 73.5v284h213v-215
q0 -52 3 -90t17.5 -63t46 -37t88.5 -12q31 0 57.5 3t46 16.5t30.5 40t11 73.5v475h213v-400q0 -53 3 -92t19.5 -64.5t51 -38.5t97.5 -13v-272h-46q-82 0 -138 23t-92 80q-26 -31 -56.5 -51t-63.5 -31.5t-67.5 -16t-67.5 -4.5q-39 0 -77 5.5t-72 18t-63 34.5t-50 55h-4
q-27 -32 -60.5 -54t-69 -35t-70.5 -18.5t-66 -5.5q-91 0 -152 26t-99 87h-4zM868 885h-235v211h235v-211zM1211 885h-235v211h235v-211zM1040 1165h-235v211h235v-211zM1040 -371h-235v211h235v-211z" />
    <glyph glyph-name="uni06FA.fina" unicode="&#x6fa;" horiz-adv-x="2394" 
d="M1189 28q-20 -276 -154.5 -414t-402.5 -138q-137 0 -232.5 35.5t-156 104t-88 169.5t-27.5 233q0 36 2 72t6.5 76t11.5 86t18 101h209q-10 -62 -16.5 -109t-10 -83.5t-5 -65t-1.5 -54.5q0 -74 13 -129t46 -91t90 -53.5t145 -17.5q101 0 169 23.5t108.5 73t57.5 125.5
t17 181q0 43 -2.5 87.5t-8.5 99t-14.5 124.5t-20.5 163h214q11 -96 20 -166.5t15 -127.5q3 -28 13.5 -45t30 -26t48.5 -12t68 -3q28 0 54 3.5t46.5 17t33 40t12.5 72.5v284h213v-215q0 -52 3 -90t17.5 -63t46 -37t88.5 -12q31 0 57.5 3t46 16.5t30.5 40t11 73.5v475h213
v-400q0 -53 3 -92t19.5 -64.5t51 -38.5t97.5 -13v-272h-46q-82 0 -138 23t-92 80q-26 -31 -56.5 -51t-63.5 -31.5t-67.5 -16t-67.5 -4.5q-39 0 -77.5 5t-73 18.5t-63 37t-47.5 59.5h-6q-18 -29 -43.5 -51t-56.5 -37.5t-64.5 -23.5t-66.5 -8q-48 0 -91 11t-78 44zM1552 885
h-235v211h235v-211zM1895 885h-235v211h235v-211zM1724 1165h-235v211h235v-211zM1724 -371h-235v211h235v-211z" />
    <glyph glyph-name="uni06FB.init" unicode="&#x6fb;" horiz-adv-x="2052" 
d="M393 95q-24 -35 -55.5 -58t-66 -37t-69.5 -19.5t-65 -5.5h-137q-35 0 -52.5 36.5t-17.5 99.5t17.5 99.5t52.5 36.5h143q31 0 57.5 5.5t46 16t30.5 27t11 39.5q0 20 -2.5 47t-8.5 62t-14.5 80.5t-20.5 102.5h222q16 -91 27 -163.5t19 -130.5q1 -9 4.5 -22t15 -25.5
t32.5 -23t57 -13.5q27 71 67 150.5t93 157t118 149t142.5 125.5t166.5 86.5t190 32.5q120 0 211 -41t152 -114t91.5 -174t30.5 -222q0 -103 -23 -175.5t-65 -120.5t-101 -75t-130 -40.5t-152 -17t-168 -3.5q-180 0 -309 1t-217 4t-141 10t-81 19q-32 14 -55 36t-41 58h-5z
M1379 676q-102 0 -187 -36.5t-153 -97t-120 -138.5t-88 -162q17 -1 48.5 -1.5t71.5 -1t84.5 -1t87 -0.5h80.5h64q128 0 206.5 4t121.5 19t57.5 45t14.5 83q0 71 -20 125t-57.5 90t-90.5 54t-120 18zM1286 -371h-235v211h235v-211zM1162 1086h-235v211h235v-211z" />
    <glyph glyph-name="uni06FB.medi" unicode="&#x6fb;" horiz-adv-x="2052" 
d="M393 95q-24 -35 -55.5 -58t-66 -37t-69.5 -19.5t-65 -5.5h-137q-35 0 -52.5 36.5t-17.5 99.5t17.5 99.5t52.5 36.5h143q31 0 57.5 5.5t46 16t30.5 27t11 39.5q0 20 -2.5 47t-8.5 62t-14.5 80.5t-20.5 102.5h222q16 -91 27 -163.5t19 -130.5q1 -9 4.5 -22t15 -25.5
t32.5 -23t57 -13.5q27 71 67 150.5t93 157t118 149t142.5 125.5t166.5 86.5t190 32.5q118 0 207.5 -39.5t150 -110t92.5 -168t35 -214.5q1 -41 6 -73t22 -54t50.5 -33t92.5 -11v-272h-46q-80 0 -140.5 26.5t-88.5 97.5h-6q-39 -48 -97 -75t-127.5 -39.5t-147.5 -15
t-157 -2.5q-180 0 -309 0.5t-217 4t-141 10.5t-81 19q-31 14 -54.5 36t-41.5 58h-5zM1379 676q-102 0 -187 -36.5t-153 -97t-120 -138.5t-88 -162q17 -1 48.5 -1.5t71.5 -1t84.5 -1t87 -0.5h80.5h64q128 0 206.5 4t121.5 19t57.5 45t14.5 83q0 71 -20 125t-57.5 90t-90.5 54
t-120 18zM1162 1086h-235v211h235v-211zM1286 -371h-235v211h235v-211z" />
    <glyph glyph-name="uni06FB.fina" unicode="&#x6fb;" horiz-adv-x="2736" 
d="M1192 50q-14 -287 -151.5 -430.5t-410.5 -143.5q-136 0 -231.5 35t-155.5 103.5t-87.5 170t-27.5 233.5q0 36 2 72t6.5 76.5t11.5 86t18 100.5h209q-9 -63 -15.5 -109.5t-10 -83t-5.5 -66t-2 -56.5q0 -73 13.5 -127t47 -90t91 -53.5t146.5 -17.5q102 0 168.5 23.5
t106.5 74t56 128.5t16 187q0 41 -2.5 87t-9.5 102t-19 123.5t-31 151.5h222q16 -91 27 -162t18 -119q3 -20 6 -35t13.5 -27t31.5 -20.5t59 -14.5q27 71 67 150.5t93 157t118 149t142.5 125.5t166.5 86.5t190 32.5q118 0 207.5 -39.5t150 -110t92.5 -168t35 -214.5
q1 -41 6 -73t22 -54t50.5 -33t93.5 -11v-272h-47q-80 0 -140.5 26.5t-88.5 97.5h-6q-39 -48 -97 -75t-127.5 -39.5t-147.5 -15t-157 -2.5q-118 0 -207 0.5t-156 1.5t-114.5 3t-81.5 6t-57.5 9.5t-42.5 13.5t-37.5 22t-32.5 29zM2062 676q-102 0 -187 -36.5t-153 -97
t-120 -138.5t-88 -162q17 -1 48.5 -1.5t71.5 -1t84.5 -1t87 -0.5h80.5h64q128 0 206.5 4t121.5 19t57.5 45t14.5 83q0 71 -20 125t-57.5 90t-90.5 54t-120 18zM1846 1086h-235v211h235v-211zM1970 -371h-235v211h235v-211z" />
    <glyph glyph-name="uni06FC.init" unicode="&#x6fc;" horiz-adv-x="1198" 
d="M1087 156q-125 -54 -235 -89t-212.5 -55.5t-201.5 -28.5t-202 -8h-236q-35 0 -52.5 36.5t-17.5 99.5t17.5 99.5t52.5 36.5h261l2 6q-41 39 -67 77t-41 74.5t-20.5 71.5t-5.5 70q0 99 40.5 178.5t113.5 135.5t173 86t219 30q37 0 80 -3.5t101 -13.5v-274
q-57 9 -106.5 13.5t-97.5 4.5q-59 0 -114.5 -4t-99 -21t-70 -51t-26.5 -94q0 -16 7.5 -42.5t31 -60t67.5 -74t116 -83.5q61 12 122 28t124.5 37t131.5 48t145 62v-292zM659 -371h-235v211h235v-211zM659 1136h-235v211h235v-211z" />
    <glyph glyph-name="uni06FC.medi" unicode="&#x6fc;" horiz-adv-x="1197" 
d="M1129 -25q-136 0 -252.5 36t-208.5 108h-6q-102 -67 -232.5 -105.5t-301.5 -38.5h-91q-35 0 -52.5 36.5t-17.5 99.5t17.5 99.5t52.5 36.5h101q97 0 173 11.5t140 32.5q-44 39 -83 78.5t-75.5 82t-71.5 88.5t-70 98v257q49 9 110 19.5t125.5 20t129.5 15.5t124 6
q40 0 84.5 -4t87.5 -14t82 -28.5t68 -47.5t46.5 -70t17.5 -96q0 -41 -9.5 -89.5t-28 -100.5t-46 -104.5t-63.5 -100.5q69 -27 145.5 -40.5t172.5 -13.5v-272h-68zM671 412q33 27 59 59t44.5 63t28.5 58t10 44q0 41 -46 57t-129 16q-57 0 -122.5 -6.5t-122.5 -17.5v-8
q58 -78 125.5 -143t148.5 -122h4zM716 -371h-235v211h235v-211zM716 1116h-235v211h235v-211z" />
    <glyph glyph-name="uni06FC.fina" unicode="&#x6fc;" horiz-adv-x="1197" 
d="M1197 -13h-49q-89 0 -172.5 18.5t-162 53t-151 82t-139.5 106.5q-82 -38 -134 -76t-81.5 -74.5t-40.5 -70.5t-11 -65q0 -49 23.5 -90.5t73 -71.5t127 -47t185.5 -17q49 0 95.5 3.5t95.5 12t101 22t112 33.5v-261q-59 -19 -110.5 -32t-100 -21.5t-96 -12t-98.5 -3.5
q-304 0 -460.5 120t-156.5 349q0 72 16.5 138t52.5 125.5t94 113.5t141 103q-54 67 -103 138.5t-97 159.5v257q42 7 100.5 18t124.5 21t134.5 17t130.5 7q41 0 85.5 -3.5t87.5 -14t81.5 -28.5t67.5 -47t46 -70.5t17 -97.5q0 -39 -11 -89.5t-39.5 -105.5t-77.5 -111
t-126 -105q89 -57 198 -84.5t227 -27.5v-272zM393 764q41 -68 85.5 -126t94.5 -111q71 34 117 64.5t73 56t37.5 46.5t10.5 36q0 35 -43.5 50.5t-128.5 15.5q-58 0 -123.5 -6.5t-122.5 -17.5v-8zM656 -139h-235v211h235v-211zM716 1206h-235v211h235v-211z" />
    <glyph glyph-name="uni06FF.init" unicode="&#x6ff;" horiz-adv-x="1368" 
d="M353 893l-36 22v306q207 -113 370.5 -236.5t276.5 -245.5t173 -236.5t60 -209.5q0 -68 -11.5 -126.5t-31 -101t-45.5 -66.5t-54 -24q-53 0 -112.5 5t-121.5 16.5t-124.5 29t-120.5 42.5q-44 -30 -96 -48.5t-107.5 -28.5t-112.5 -13t-112 -3h-148q-39 0 -68.5 34.5
t-29.5 101.5q0 69 29.5 102.5t68.5 33.5q60 0 135 -4t154 -6l2 5q-39 19 -67.5 48t-46.5 64.5t-27 75.5t-9 82q0 55 13.5 108.5t40 101.5t66 89.5t90.5 73.5zM782 547q1 -10 1.5 -20t0.5 -20q0 -61 -10 -122t-36 -115q55 -17 114 -26t117 -13q5 12 6.5 20.5t1.5 16.5
q0 33 -15 68t-40.5 70.5t-59.5 71.5t-73 72zM489 697q-27 0 -52.5 -19t-45 -46t-31 -56t-11.5 -50q0 -16 4 -36.5t23 -45t59 -53t112 -60.5q37 62 45.5 109.5t8.5 83.5q0 28 -9 58.5t-24.5 56t-36 42t-42.5 16.5zM458 1318h-174l239 365h144l245 -365h-179l-139 206z" />
    <glyph glyph-name="uni06FF.medi" unicode="&#x6ff;" horiz-adv-x="1026" 
d="M146 247q23 132 58 235.5t75.5 181.5t84.5 132t87 88t82 49t69 15q51 0 97.5 -39t81.5 -101.5t55.5 -140t20.5 -154.5q0 -78 -23.5 -147.5t-77.5 -114.5l1 -4h270v-272h-250l-2 -4q42 -48 60.5 -100t18.5 -104q0 -58 -22 -112t-61 -95t-93.5 -66t-118.5 -25
q-37 0 -80.5 9.5t-87.5 32.5t-87 61t-78 94t-59.5 132.5t-33.5 176.5h-133q-35 0 -52.5 36.5t-17.5 99.5t17.5 99.5t52.5 36.5h146zM563 674q-18 0 -46.5 -27.5t-59 -81.5t-58 -133.5t-43.5 -184.5h97q48 0 84 23.5t60 59.5t36 78t12 80q0 32 -7.5 65t-19 60t-26 44
t-29.5 17zM436 -25h-94q10 -56 30.5 -100.5t48.5 -75.5t62 -47t72 -16q46 0 68.5 22t22.5 52q0 25 -15.5 54t-43.5 53.5t-66.5 41t-84.5 16.5zM391 1168h-174l239 365h144l245 -365h-179l-139 206z" />
    <glyph glyph-name="uni06FF.fina" unicode="&#x6ff;" horiz-adv-x="1368" 
d="M488 247q23 132 58 235.5t75.5 181.5t84.5 132t87 88t82 49t69 15q51 0 97.5 -39t81.5 -101.5t55.5 -140t20.5 -154.5q0 -78 -23.5 -147.5t-77.5 -114.5l1 -4h270v-272h-250l-2 -4q42 -48 60.5 -100t18.5 -104q0 -58 -22 -112t-61 -95t-93.5 -66t-118.5 -25
q-37 0 -80.5 9.5t-87.5 32.5t-87 61t-78 94t-59.5 132.5t-33.5 176.5q-80 0 -138 2t-101 5.5t-73 8.5t-55 11l-53 275q58 -8 108 -13.5t100 -9.5t104 -5.5t121 -1.5zM905 674q-18 0 -46.5 -27.5t-59 -81.5t-58 -133.5t-43.5 -184.5h97q48 0 84 23.5t60 59.5t36 78t12 80
q0 32 -7.5 65t-19 60t-26 44t-29.5 17zM778 -25h-94q10 -56 30.5 -100.5t48.5 -75.5t62 -47t72 -16q46 0 68.5 22t22.5 52q0 25 -15.5 54t-43.5 53.5t-66.5 41t-84.5 16.5zM733 1168h-174l239 365h144l245 -365h-179l-139 206z" />
    <glyph glyph-name="uniFB51" unicode="&#x671;" horiz-adv-x="513" arabic-form="final" 
d="M468 -25q-102 0 -167.5 33t-104 89.5t-53 132t-14.5 160.5v1126h213v-1067q0 -56 5 -94.5t22 -62.5t51 -34.5t93 -10.5v-272h-45zM-143 1740q28 19 52 33t45.5 23t43.5 13t48 4h8t12 -1q36 111 98 163t143 52q43 0 77 -14t56.5 -37.5t34.5 -54.5t12 -64q0 -41 -18 -78.5
t-48 -66t-70.5 -45t-85.5 -16.5q-33 0 -64.5 8t-60.5 17.5t-54.5 17.5t-46.5 8q-20 0 -47.5 -11.5t-73.5 -45.5zM260 1761q23 0 41 8t30 21.5t18.5 30.5t6.5 34q0 29 -16.5 45t-43.5 16q-35 0 -67.5 -30.5t-60.5 -103.5q25 -10 49 -15.5t43 -5.5z" />
    <glyph glyph-name="uniFB53" unicode="&#x67b;" horiz-adv-x="1881" arabic-form="final" 
d="M1710 449q0 -52 3 -90t19.5 -63t51 -37t97.5 -12v-272h-46q-85 0 -144.5 29.5t-88.5 89.5h-6q-50 -45 -117 -70t-153 -38t-190.5 -16t-228.5 -3q-101 0 -197.5 2t-182 12.5t-156.5 31.5t-120 60q-36 28 -60.5 65t-39.5 79t-21.5 87t-6.5 90q0 70 10.5 137t27.5 133h214
q-8 -37 -14 -66.5t-10.5 -55t-6.5 -49.5t-2 -49q0 -43 10.5 -79t48.5 -65q30 -23 75.5 -35.5t114 -19.5t164 -8.5t225.5 -1.5q156 0 256.5 3.5t158 19t80 47.5t22.5 89v461h213v-406zM1059 -592h-235v211h235v-211zM1059 -312h-235v211h235v-211z" />
    <glyph glyph-name="uniFB54" unicode="&#x67b;" horiz-adv-x="684" arabic-form="initial" 
d="M132 -25h-132q-35 0 -52.5 36.5t-17.5 99.5t17.5 99.5t52.5 36.5h142q40 0 70 3t49.5 16t29 39.5t9.5 74.5v475h213v-482q0 -122 -31.5 -199.5t-84 -121.5t-121.5 -60.5t-144 -16.5zM505 -592h-235v211h235v-211zM505 -312h-235v211h235v-211z" />
    <glyph glyph-name="uniFB55" unicode="&#x67b;" horiz-adv-x="684" arabic-form="medial" 
d="M132 -25h-132q-35 0 -52.5 36.5t-17.5 99.5t17.5 99.5t52.5 36.5h142q43 0 73 3.5t49 16.5t27.5 39.5t8.5 73.5v475h213v-406q0 -52 3 -90t19.5 -63t51 -37t97.5 -12v-272h-46q-87 0 -149 27.5t-91 87.5h-6q-26 -35 -58 -57t-66.5 -35t-69.5 -18t-66 -5zM505 -592h-235
v211h235v-211zM505 -312h-235v211h235v-211z" />
    <glyph glyph-name="uniFB57" unicode="&#x67e;" horiz-adv-x="1881" arabic-form="final" 
d="M1710 449q0 -52 3 -90t19.5 -63t51 -37t97.5 -12v-272h-46q-85 0 -144.5 29.5t-88.5 89.5h-6q-50 -45 -117 -70t-153 -38t-190.5 -16t-228.5 -3q-101 0 -197.5 2t-182 12.5t-156.5 31.5t-120 60q-36 28 -60.5 65t-39.5 79t-21.5 87t-6.5 90q0 70 10.5 137t27.5 133h214
q-8 -37 -14 -66.5t-10.5 -55t-6.5 -49.5t-2 -49q0 -43 10.5 -79t48.5 -65q30 -23 75.5 -35.5t114 -19.5t164 -8.5t225.5 -1.5q156 0 256.5 3.5t158 19t80 47.5t22.5 89v461h213v-406zM995 -101h235v-211h-235v211zM652 -101h235v-211h-235v211zM823 -381h235v-211h-235v211z
" />
    <glyph glyph-name="uniFB58" unicode="&#x67e;" horiz-adv-x="684" arabic-form="initial" 
d="M132 -25h-132q-35 0 -52.5 36.5t-17.5 99.5t17.5 99.5t52.5 36.5h142q40 0 70 3t49.5 16t29 39.5t9.5 74.5v475h213v-482q0 -122 -31.5 -199.5t-84 -121.5t-121.5 -60.5t-144 -16.5zM441 -101h235v-211h-235v211zM98 -101h235v-211h-235v211zM269 -381h235v-211h-235v211
z" />
    <glyph glyph-name="uniFB59" unicode="&#x67e;" horiz-adv-x="684" arabic-form="medial" 
d="M132 -25h-132q-35 0 -52.5 36.5t-17.5 99.5t17.5 99.5t52.5 36.5h142q43 0 73 3.5t49 16.5t27.5 39.5t8.5 73.5v475h213v-406q0 -52 3 -90t19.5 -63t51 -37t97.5 -12v-272h-46q-87 0 -149 27.5t-91 87.5h-6q-26 -35 -58 -57t-66.5 -35t-69.5 -18t-66 -5zM441 -101h235
v-211h-235v211zM98 -101h235v-211h-235v211zM269 -381h235v-211h-235v211z" />
    <glyph glyph-name="uniFB5B" unicode="&#x680;" horiz-adv-x="1881" arabic-form="final" 
d="M1710 449q0 -52 3 -90t19.5 -63t51 -37t97.5 -12v-272h-46q-85 0 -144.5 29.5t-88.5 89.5h-6q-50 -45 -117 -70t-153 -38t-190.5 -16t-228.5 -3q-101 0 -197.5 2t-182 12.5t-156.5 31.5t-120 60q-36 28 -60.5 65t-39.5 79t-21.5 87t-6.5 90q0 70 10.5 137t27.5 133h214
q-8 -37 -14 -66.5t-10.5 -55t-6.5 -49.5t-2 -49q0 -43 10.5 -79t48.5 -65q30 -23 75.5 -35.5t114 -19.5t164 -8.5t225.5 -1.5q156 0 256.5 3.5t158 19t80 47.5t22.5 89v461h213v-406zM887 -592h-235v211h235v-211zM1230 -592h-235v211h235v-211zM887 -312h-235v211h235v-211
zM1230 -312h-235v211h235v-211z" />
    <glyph glyph-name="uniFB5C" unicode="&#x680;" horiz-adv-x="684" arabic-form="initial" 
d="M132 -25h-132q-35 0 -52.5 36.5t-17.5 99.5t17.5 99.5t52.5 36.5h142q40 0 70 3t49.5 16t29 39.5t9.5 74.5v475h213v-482q0 -122 -31.5 -199.5t-84 -121.5t-121.5 -60.5t-144 -16.5zM333 -592h-235v211h235v-211zM676 -592h-235v211h235v-211zM333 -312h-235v211h235
v-211zM676 -312h-235v211h235v-211z" />
    <glyph glyph-name="uniFB5D" unicode="&#x680;" horiz-adv-x="684" arabic-form="medial" 
d="M132 -25h-132q-35 0 -52.5 36.5t-17.5 99.5t17.5 99.5t52.5 36.5h142q43 0 73 3.5t49 16.5t27.5 39.5t8.5 73.5v475h213v-406q0 -52 3 -90t19.5 -63t51 -37t97.5 -12v-272h-46q-87 0 -149 27.5t-91 87.5h-6q-26 -35 -58 -57t-66.5 -35t-69.5 -18t-66 -5zM333 -592h-235
v211h235v-211zM676 -592h-235v211h235v-211zM333 -312h-235v211h235v-211zM676 -312h-235v211h235v-211z" />
    <glyph glyph-name="uniFB5F" unicode="&#x67a;" horiz-adv-x="1881" arabic-form="final" 
d="M1710 449q0 -52 3 -90t19.5 -63t51 -37t97.5 -12v-272h-46q-85 0 -144.5 29.5t-88.5 89.5h-6q-50 -45 -117 -70t-153 -38t-190.5 -16t-228.5 -3q-101 0 -197.5 2t-182 12.5t-156.5 31.5t-120 60q-36 28 -60.5 65t-39.5 79t-21.5 87t-6.5 90q0 70 10.5 137t27.5 133h214
q-8 -37 -14 -66.5t-10.5 -55t-6.5 -49.5t-2 -49q0 -43 10.5 -79t48.5 -65q30 -23 75.5 -35.5t114 -19.5t164 -8.5t225.5 -1.5q156 0 256.5 3.5t158 19t80 47.5t22.5 89v461h213v-406zM1059 1056h-235v211h235v-211zM1059 1336h-235v211h235v-211z" />
    <glyph glyph-name="uniFB60" unicode="&#x67a;" horiz-adv-x="684" arabic-form="initial" 
d="M132 -25h-132q-35 0 -52.5 36.5t-17.5 99.5t17.5 99.5t52.5 36.5h142q40 0 70 3t49.5 16t29 39.5t9.5 74.5v475h213v-482q0 -122 -31.5 -199.5t-84 -121.5t-121.5 -60.5t-144 -16.5zM525 1056h-235v211h235v-211zM525 1336h-235v211h235v-211z" />
    <glyph glyph-name="uniFB61" unicode="&#x67a;" horiz-adv-x="684" arabic-form="medial" 
d="M132 -25h-132q-35 0 -52.5 36.5t-17.5 99.5t17.5 99.5t52.5 36.5h142q43 0 73 3.5t49 16.5t27.5 39.5t8.5 73.5v475h213v-406q0 -52 3 -90t19.5 -63t51 -37t97.5 -12v-272h-46q-87 0 -149 27.5t-91 87.5h-6q-26 -35 -58 -57t-66.5 -35t-69.5 -18t-66 -5zM525 1056h-235
v211h235v-211zM525 1336h-235v211h235v-211z" />
    <glyph glyph-name="uniFB63" unicode="&#x67f;" horiz-adv-x="1881" arabic-form="final" 
d="M1710 449q0 -52 3 -90t19.5 -63t51 -37t97.5 -12v-272h-46q-85 0 -144.5 29.5t-88.5 89.5h-6q-50 -45 -117 -70t-153 -38t-190.5 -16t-228.5 -3q-101 0 -197.5 2t-182 12.5t-156.5 31.5t-120 60q-36 28 -60.5 65t-39.5 79t-21.5 87t-6.5 90q0 70 10.5 137t27.5 133h214
q-8 -37 -14 -66.5t-10.5 -55t-6.5 -49.5t-2 -49q0 -43 10.5 -79t48.5 -65q30 -23 75.5 -35.5t114 -19.5t164 -8.5t225.5 -1.5q156 0 256.5 3.5t158 19t80 47.5t22.5 89v461h213v-406zM887 1056h-235v211h235v-211zM1230 1056h-235v211h235v-211zM887 1336h-235v211h235v-211
zM1230 1336h-235v211h235v-211z" />
    <glyph glyph-name="uniFB64" unicode="&#x67f;" horiz-adv-x="684" arabic-form="initial" 
d="M132 -25h-132q-35 0 -52.5 36.5t-17.5 99.5t17.5 99.5t52.5 36.5h142q40 0 70 3t49.5 16t29 39.5t9.5 74.5v475h213v-482q0 -122 -31.5 -199.5t-84 -121.5t-121.5 -60.5t-144 -16.5zM353 1056h-235v211h235v-211zM696 1056h-235v211h235v-211zM353 1336h-235v211h235
v-211zM696 1336h-235v211h235v-211z" />
    <glyph glyph-name="uniFB65" unicode="&#x67f;" horiz-adv-x="684" arabic-form="medial" 
d="M132 -25h-132q-35 0 -52.5 36.5t-17.5 99.5t17.5 99.5t52.5 36.5h142q43 0 73 3.5t49 16.5t27.5 39.5t8.5 73.5v475h213v-406q0 -52 3 -90t19.5 -63t51 -37t97.5 -12v-272h-46q-87 0 -149 27.5t-91 87.5h-6q-26 -35 -58 -57t-66.5 -35t-69.5 -18t-66 -5zM353 1056h-235
v211h235v-211zM696 1056h-235v211h235v-211zM353 1336h-235v211h235v-211zM696 1336h-235v211h235v-211z" />
    <glyph glyph-name="uniFB67" unicode="&#x679;" horiz-adv-x="1881" arabic-form="final" 
d="M1710 449q0 -52 3 -90t19.5 -63t51 -37t97.5 -12v-272h-46q-85 0 -144.5 29.5t-88.5 89.5h-6q-50 -45 -117 -70t-153 -38t-190.5 -16t-228.5 -3q-101 0 -197.5 2t-182 12.5t-156.5 31.5t-120 60q-36 28 -60.5 65t-39.5 79t-21.5 87t-6.5 90q0 70 10.5 137t27.5 133h214
q-8 -37 -14 -66.5t-10.5 -55t-6.5 -49.5t-2 -49q0 -43 10.5 -79t48.5 -65q30 -23 75.5 -35.5t114 -19.5t164 -8.5t225.5 -1.5q156 0 256.5 3.5t158 19t80 47.5t22.5 89v461h213v-406zM609 1028q33 -4 64 -5.5t62 -1.5v492h125v-314l4 -1q38 49 82.5 81t107.5 32
q52 0 89.5 -20t61.5 -53.5t35.5 -76t11.5 -87.5q0 -66 -20.5 -102.5t-56.5 -53.5t-85 -20t-106 -3q-71 0 -125.5 1t-97 2.5t-75.5 4t-61 5.5zM972 1018q46 0 77 1t49.5 6.5t26.5 17.5t8 33q0 54 -26.5 83.5t-63.5 29.5q-29 0 -55 -15t-49 -39t-42 -54.5t-34 -62.5h109z" />
    <glyph glyph-name="uniFB68" unicode="&#x679;" horiz-adv-x="684" arabic-form="initial" 
d="M132 -25h-132q-35 0 -52.5 36.5t-17.5 99.5t17.5 99.5t52.5 36.5h142q40 0 70 3t49.5 16t29 39.5t9.5 74.5v475h213v-482q0 -122 -31.5 -199.5t-84 -121.5t-121.5 -60.5t-144 -16.5zM33 1149q33 -4 64 -5.5t62 -1.5v492h125v-314l4 -1q38 49 82.5 81t107.5 32
q52 0 89.5 -20t61.5 -53.5t35.5 -76t11.5 -87.5q0 -66 -20.5 -102.5t-56.5 -53.5t-85 -20t-106 -3q-71 0 -125.5 1t-97 2.5t-75.5 4t-61 5.5zM396 1139q46 0 77 1t49.5 6.5t26.5 17.5t8 33q0 54 -26.5 83.5t-63.5 29.5q-29 0 -55 -15t-49 -39t-42 -54.5t-34 -62.5h109z" />
    <glyph glyph-name="uniFB69" unicode="&#x679;" horiz-adv-x="684" arabic-form="medial" 
d="M132 -25h-132q-35 0 -52.5 36.5t-17.5 99.5t17.5 99.5t52.5 36.5h142q43 0 73 3.5t49 16.5t27.5 39.5t8.5 73.5v475h213v-406q0 -52 3 -90t19.5 -63t51 -37t97.5 -12v-272h-46q-87 0 -149 27.5t-91 87.5h-6q-26 -35 -58 -57t-66.5 -35t-69.5 -18t-66 -5zM38 1149
q33 -4 64 -5.5t62 -1.5v492h125v-314l4 -1q38 49 82.5 81t107.5 32q52 0 89.5 -20t61.5 -53.5t35.5 -76t11.5 -87.5q0 -66 -20.5 -102.5t-56.5 -53.5t-85 -20t-106 -3q-71 0 -125.5 1t-97 2.5t-75.5 4t-61 5.5zM401 1139q46 0 77 1t49.5 6.5t26.5 17.5t8 33q0 54 -26.5 83.5
t-63.5 29.5q-29 0 -55 -15t-49 -39t-42 -54.5t-34 -62.5h109z" />
    <glyph glyph-name="uniFB6B" unicode="&#x6a4;" horiz-adv-x="2052" arabic-form="final" 
d="M375 664q-8 -37 -14.5 -66.5t-10.5 -55t-6 -49.5t-2 -49q0 -78 32.5 -120.5t107.5 -62t197 -23t301 -3.5h141.5t91 0.5t56 1.5t36.5 2l3 8q-75 57 -117 131t-42 165q0 53 13 106.5t37 103.5t57 94t72 76.5t84 51t92 18.5q55 0 104.5 -25t91.5 -68.5t75.5 -101.5
t57 -123.5t36 -135t12.5 -136.5q0 -42 -6.5 -78.5t-19.5 -71.5q21 -2 41 -3t43 -2t50.5 -1h62.5v-272h-35q-44 0 -94.5 3.5t-101.5 10.5t-99.5 18.5t-87.5 26.5q-54 -22 -120.5 -35.5t-140 -20.5t-153 -9t-158.5 -2h-93q-128 0 -236 1.5t-196.5 11t-158 29.5t-118.5 57
q-40 30 -66.5 68t-42 80.5t-22 88.5t-6.5 91q0 70 10.5 137t27.5 133h214zM1492 715q-26 0 -50 -17.5t-42 -44t-28.5 -56.5t-10.5 -54q0 -18 9.5 -42.5t38 -55t81.5 -67t140 -78.5q11 9 18 23.5t11.5 30.5t6 32t1.5 28q0 38 -14.5 90t-39 99t-56 79.5t-65.5 32.5zM1428 1200
h-235v211h235v-211zM1771 1200h-235v211h235v-211zM1600 1480h-235v211h235v-211z" />
    <glyph glyph-name="uniFB6C" unicode="&#x6a4;" horiz-adv-x="1026" arabic-form="initial" 
d="M282 247q-75 57 -117 131.5t-42 164.5q0 52 13 106t37 104t57 93.5t72 76.5t84 51.5t92 18.5q55 0 104.5 -25t91.5 -68.5t75.5 -101t57 -123t36 -135.5t12.5 -137q0 -100 -29.5 -170t-80.5 -117.5t-118 -75.5t-143 -42.5t-155.5 -18.5t-154.5 -4h-174q-35 0 -52.5 36.5
t-17.5 99.5t17.5 99.5t52.5 36.5h100q19 0 46 -1.5t53.5 -3t48.5 -2.5t31 -1zM466 715q-26 0 -50 -18t-42 -44.5t-28.5 -56t-10.5 -53.5q0 -18 9.5 -42.5t38 -55t81.5 -67t140 -78.5q11 9 18 23.5t11.5 30.5t6 32t1.5 28q0 38 -14.5 90t-39 99t-56 79.5t-65.5 32.5z
M405 1200h-235v211h235v-211zM748 1200h-235v211h235v-211zM577 1480h-235v211h235v-211z" />
    <glyph glyph-name="uniFB6D" unicode="&#x6a4;" horiz-adv-x="1026" arabic-form="medial" 
d="M282 247q-75 57 -117 131.5t-42 164.5q0 52 13 106t37 104t57 93.5t72 76.5t84 51.5t92 18.5q55 0 104.5 -25t91.5 -68.5t75.5 -101t57 -123t36 -135.5t12.5 -137q0 -83 -25 -150q21 -2 41 -3t42.5 -2t49.5 -1h63v-272h-35q-44 0 -93.5 3.5t-99.5 10.5t-98.5 18.5
t-90.5 27.5q-53 -21 -110.5 -33t-114.5 -18t-111 -7.5t-99 -1.5h-174q-35 0 -52.5 36.5t-17.5 99.5t17.5 99.5t52.5 36.5h100q19 0 46 -1.5t53.5 -3t48.5 -2.5t31 -1zM466 715q-26 0 -50 -18t-42 -44.5t-28.5 -56t-10.5 -53.5q0 -18 9.5 -42.5t38 -55t81.5 -67t140 -78.5
q11 9 18 23.5t11.5 30.5t6 32t1.5 28q0 38 -14.5 90t-39 99t-56 79.5t-65.5 32.5zM405 1200h-235v211h235v-211zM748 1200h-235v211h235v-211zM577 1480h-235v211h235v-211z" />
    <glyph glyph-name="uniFB6F" unicode="&#x6a6;" horiz-adv-x="2052" arabic-form="final" 
d="M375 664q-8 -37 -14.5 -66.5t-10.5 -55t-6 -49.5t-2 -49q0 -78 32.5 -120.5t107.5 -62t197 -23t301 -3.5h141.5t91 0.5t56 1.5t36.5 2l3 8q-75 57 -117 131t-42 165q0 53 13 106.5t37 103.5t57 94t72 76.5t84 51t92 18.5q55 0 104.5 -25t91.5 -68.5t75.5 -101.5
t57 -123.5t36 -135t12.5 -136.5q0 -42 -6.5 -78.5t-19.5 -71.5q21 -2 41 -3t43 -2t50.5 -1h62.5v-272h-35q-44 0 -94.5 3.5t-101.5 10.5t-99.5 18.5t-87.5 26.5q-54 -22 -120.5 -35.5t-140 -20.5t-153 -9t-158.5 -2h-93q-128 0 -236 1.5t-196.5 11t-158 29.5t-118.5 57
q-40 30 -66.5 68t-42 80.5t-22 88.5t-6.5 91q0 70 10.5 137t27.5 133h214zM1492 715q-26 0 -50 -17.5t-42 -44t-28.5 -56.5t-10.5 -54q0 -18 9.5 -42.5t38 -55t81.5 -67t140 -78.5q11 9 18 23.5t11.5 30.5t6 32t1.5 28q0 38 -14.5 90t-39 99t-56 79.5t-65.5 32.5zM1428 1200
h-235v211h235v-211zM1771 1200h-235v211h235v-211zM1428 1480h-235v211h235v-211zM1771 1480h-235v211h235v-211z" />
    <glyph glyph-name="uniFB70" unicode="&#x6a6;" horiz-adv-x="1026" arabic-form="initial" 
d="M282 247q-75 57 -117 131.5t-42 164.5q0 52 13 106t37 104t57 93.5t72 76.5t84 51.5t92 18.5q55 0 104.5 -25t91.5 -68.5t75.5 -101t57 -123t36 -135.5t12.5 -137q0 -100 -29.5 -170t-80.5 -117.5t-118 -75.5t-143 -42.5t-155.5 -18.5t-154.5 -4h-174q-35 0 -52.5 36.5
t-17.5 99.5t17.5 99.5t52.5 36.5h100q19 0 46 -1.5t53.5 -3t48.5 -2.5t31 -1zM466 715q-26 0 -50 -18t-42 -44.5t-28.5 -56t-10.5 -53.5q0 -18 9.5 -42.5t38 -55t81.5 -67t140 -78.5q11 9 18 23.5t11.5 30.5t6 32t1.5 28q0 38 -14.5 90t-39 99t-56 79.5t-65.5 32.5z
M405 1200h-235v211h235v-211zM748 1200h-235v211h235v-211zM405 1480h-235v211h235v-211zM748 1480h-235v211h235v-211z" />
    <glyph glyph-name="uniFB71" unicode="&#x6a6;" horiz-adv-x="1026" arabic-form="medial" 
d="M282 247q-75 57 -117 131.5t-42 164.5q0 52 13 106t37 104t57 93.5t72 76.5t84 51.5t92 18.5q55 0 104.5 -25t91.5 -68.5t75.5 -101t57 -123t36 -135.5t12.5 -137q0 -83 -25 -150q21 -2 41 -3t42.5 -2t49.5 -1h63v-272h-35q-44 0 -93.5 3.5t-99.5 10.5t-98.5 18.5
t-90.5 27.5q-53 -21 -110.5 -33t-114.5 -18t-111 -7.5t-99 -1.5h-174q-35 0 -52.5 36.5t-17.5 99.5t17.5 99.5t52.5 36.5h100q19 0 46 -1.5t53.5 -3t48.5 -2.5t31 -1zM466 715q-26 0 -50 -18t-42 -44.5t-28.5 -56t-10.5 -53.5q0 -18 9.5 -42.5t38 -55t81.5 -67t140 -78.5
q11 9 18 23.5t11.5 30.5t6 32t1.5 28q0 38 -14.5 90t-39 99t-56 79.5t-65.5 32.5zM405 1200h-235v211h235v-211zM748 1200h-235v211h235v-211zM405 1480h-235v211h235v-211zM748 1480h-235v211h235v-211z" />
    <glyph glyph-name="uniFB73" unicode="&#x684;" horiz-adv-x="1197" arabic-form="final" 
d="M1168 -25q-80 0 -141.5 22t-105.5 74.5t-71.5 138.5t-39.5 215q-140 -52 -230.5 -106t-143.5 -107.5t-73.5 -106t-20.5 -102.5q0 -45 17 -92.5t59.5 -86.5t115.5 -64t184 -25q94 0 192 20t217 63v-260q-63 -22 -117.5 -37.5t-104.5 -25.5t-98 -14.5t-98 -4.5
q-146 0 -255 36.5t-181 102.5t-108 158t-36 203q0 91 26.5 185t92 181t176 162t279.5 129v9q-29 19 -56.5 31.5t-56.5 20t-62 10.5t-73 3q-73 0 -147 -9t-137 -26v252q66 20 127 31t130 11q75 0 132 -12.5t106 -31.5t94 -41t96.5 -41.5t114 -32.5t145.5 -14l-51 -287
l-85 -24q9 -82 25.5 -129t43 -70.5t63 -29.5t85.5 -6v-272h-29zM796 -188h-221v179h221v-179zM796 72h-221v179h221v-179z" />
    <glyph glyph-name="uniFB74" unicode="&#x684;" horiz-adv-x="1197" arabic-form="initial" 
d="M816 527q-44 27 -85.5 46t-86.5 31t-95.5 17.5t-112.5 5.5q-72 0 -135 -8t-130 -26v252q72 20 136.5 31t139.5 11q79 0 140 -14t113 -36t99 -48t97 -51q25 -12 52 -21t59.5 -15t71.5 -10t88 -7l-49 -291q-50 -12 -109.5 -47.5t-131 -82t-157.5 -97.5t-189 -93.5
t-224.5 -70.5t-263.5 -28h-43q-35 0 -52.5 36.5t-17.5 99.5t17.5 99.5t52.5 36.5h52q117 0 221 23.5t198 62t179.5 87t165.5 99.5v8zM716 -592h-235v211h235v-211zM716 -312h-235v211h235v-211z" />
    <glyph glyph-name="uniFB75" unicode="&#x684;" horiz-adv-x="1197" arabic-form="medial" 
d="M816 527q-44 27 -85.5 46t-86.5 31t-95.5 17.5t-112.5 5.5q-72 0 -135 -8t-130 -26v252q72 20 136.5 31t139.5 11q79 0 140 -14t113 -36t99 -48t97 -51q25 -12 52 -21t59.5 -15t71.5 -10t88 -7l-49 -291q-39 -10 -84.5 -34.5t-97.5 -57.5q4 -19 12 -30t22.5 -16.5
t37.5 -7t58 -1.5h131v-272h-64q-89 0 -148 17.5t-96.5 49t-57.5 75.5t-30 98q-69 -43 -149.5 -85.5t-174 -77t-202 -56t-232.5 -21.5h-43q-35 0 -52.5 36.5t-17.5 99.5t17.5 99.5t52.5 36.5h52q117 0 221 23.5t198 62t179.5 87t165.5 99.5v8zM716 -592h-235v211h235v-211z
M716 -312h-235v211h235v-211z" />
    <glyph glyph-name="uniFB77" unicode="&#x683;" horiz-adv-x="1368" arabic-form="final" 
d="M1344 -25q-164 0 -258.5 102.5t-107.5 310.5q25 9 46.5 16t43 13t43.5 12t49 13q3 -52 15 -89t36 -60.5t62.5 -34.5t94.5 -11v-272h-24zM667 -50h-205v211h205v-211zM983 -50h-205v211h205v-211zM703 642q-29 19 -56.5 31.5t-56.5 20t-62 10.5t-73 3q-73 0 -147 -9
t-137 -26v252q66 20 127 31t130 11q75 0 132 -12.5t106 -31.5t94 -41t96.5 -41.5t114 -32.5t145.5 -14l-49 -277q-220 -60 -362 -123.5t-225 -128.5t-115.5 -131t-32.5 -130q0 -49 18.5 -98.5t63 -89.5t119 -65t185.5 -25q94 0 192 20t217 63v-250q-63 -22 -117.5 -37.5
t-104.5 -25.5t-98 -14.5t-98 -4.5q-146 0 -255 36.5t-181 102.5t-108 158t-36 203q0 91 26.5 185t92 181t176 162t279.5 129v9z" />
    <glyph glyph-name="uniFB78" unicode="&#x683;" horiz-adv-x="1197" arabic-form="initial" 
d="M816 527q-44 27 -85.5 46t-86.5 31t-95.5 17.5t-112.5 5.5q-72 0 -135 -8t-130 -26v252q72 20 136.5 31t139.5 11q79 0 140 -14t113 -36t99 -48t97 -51q25 -12 52 -21t59.5 -15t71.5 -10t88 -7l-49 -291q-50 -12 -109.5 -47.5t-131 -82t-157.5 -97.5t-189 -93.5
t-224.5 -70.5t-263.5 -28h-43q-35 0 -52.5 36.5t-17.5 99.5t17.5 99.5t52.5 36.5h52q117 0 221 23.5t198 62t179.5 87t165.5 99.5v8zM545 -371h-235v211h235v-211zM887 -371h-235v211h235v-211z" />
    <glyph glyph-name="uniFB79" unicode="&#x683;" horiz-adv-x="1197" arabic-form="medial" 
d="M816 527q-44 27 -85.5 46t-86.5 31t-95.5 17.5t-112.5 5.5q-72 0 -135 -8t-130 -26v252q72 20 136.5 31t139.5 11q79 0 140 -14t113 -36t99 -48t97 -51q25 -12 52 -21t59.5 -15t71.5 -10t88 -7l-49 -291q-39 -10 -84.5 -34.5t-97.5 -57.5q4 -19 12 -30t22.5 -16.5
t37.5 -7t58 -1.5h131v-272h-64q-89 0 -148 17.5t-96.5 49t-57.5 75.5t-30 98q-69 -43 -149.5 -85.5t-174 -77t-202 -56t-232.5 -21.5h-43q-35 0 -52.5 36.5t-17.5 99.5t17.5 99.5t52.5 36.5h52q117 0 221 23.5t198 62t179.5 87t165.5 99.5v8zM545 -371h-235v211h235v-211z
M887 -371h-235v211h235v-211z" />
    <glyph glyph-name="uniFB7B" unicode="&#x686;" horiz-adv-x="1368" arabic-form="final" 
d="M677 62h-181v179h181v-179zM969 62h-181v179h181v-179zM823 -198h-181v179h181v-179zM703 642q-29 19 -56.5 31.5t-56.5 20t-62 10.5t-73 3q-73 0 -147 -9t-137 -26v252q66 20 127 31t130 11q75 0 132 -12.5t106 -31.5t94 -41t96.5 -41.5t114 -32.5t145.5 -14l-49 -277
q-220 -60 -362 -123.5t-225 -128.5t-115.5 -131t-32.5 -130q0 -49 18.5 -98.5t63 -89.5t119 -65t185.5 -25q94 0 192 20t217 63v-250q-63 -22 -117.5 -37.5t-104.5 -25.5t-98 -14.5t-98 -4.5q-146 0 -255 36.5t-181 102.5t-108 158t-36 203q0 91 26.5 185t92 181t176 162
t279.5 129v9zM1344 -25q-164 0 -258.5 102.5t-107.5 310.5q25 9 46.5 16t43 13t43.5 12t49 13q3 -52 15 -89t36 -60.5t62.5 -34.5t94.5 -11v-272h-24z" />
    <glyph glyph-name="uniFB7C" unicode="&#x686;" horiz-adv-x="1197" arabic-form="initial" 
d="M816 527q-44 27 -85.5 46t-86.5 31t-95.5 17.5t-112.5 5.5q-72 0 -135 -8t-130 -26v252q72 20 136.5 31t139.5 11q79 0 140 -14t113 -36t99 -48t97 -51q25 -12 52 -21t59.5 -15t71.5 -10t88 -7l-49 -291q-50 -12 -109.5 -47.5t-131 -82t-157.5 -97.5t-189 -93.5
t-224.5 -70.5t-263.5 -28h-43q-35 0 -52.5 36.5t-17.5 99.5t17.5 99.5t52.5 36.5h52q117 0 221 23.5t198 62t179.5 87t165.5 99.5v8zM652 -101h235v-211h-235v211zM309 -101h235v-211h-235v211zM480 -381h235v-211h-235v211z" />
    <glyph glyph-name="uniFB7D" unicode="&#x686;" horiz-adv-x="1197" arabic-form="medial" 
d="M816 527q-44 27 -85.5 46t-86.5 31t-95.5 17.5t-112.5 5.5q-72 0 -135 -8t-130 -26v252q72 20 136.5 31t139.5 11q79 0 140 -14t113 -36t99 -48t97 -51q25 -12 52 -21t59.5 -15t71.5 -10t88 -7l-49 -291q-39 -10 -84.5 -34.5t-97.5 -57.5q4 -19 12 -30t22.5 -16.5
t37.5 -7t58 -1.5h131v-272h-64q-89 0 -148 17.5t-96.5 49t-57.5 75.5t-30 98q-69 -43 -149.5 -85.5t-174 -77t-202 -56t-232.5 -21.5h-43q-35 0 -52.5 36.5t-17.5 99.5t17.5 99.5t52.5 36.5h52q117 0 221 23.5t198 62t179.5 87t165.5 99.5v8zM652 -101h235v-211h-235v211z
M309 -101h235v-211h-235v211zM480 -381h235v-211h-235v211z" />
    <glyph glyph-name="uniFB7F" unicode="&#x687;" horiz-adv-x="1368" arabic-form="final" 
d="M677 72h-181v179h181v-179zM969 72h-181v179h181v-179zM703 642q-29 19 -56.5 31.5t-56.5 20t-62 10.5t-73 3q-73 0 -147 -9t-137 -26v252q66 20 127 31t130 11q75 0 132 -12.5t106 -31.5t94 -41t96.5 -41.5t114 -32.5t145.5 -14l-49 -277q-220 -60 -362 -123.5
t-225 -128.5t-115.5 -131t-32.5 -130q0 -49 18.5 -98.5t63 -89.5t119 -65t185.5 -25q94 0 192 20t217 63v-250q-63 -22 -117.5 -37.5t-104.5 -25.5t-98 -14.5t-98 -4.5q-146 0 -255 36.5t-181 102.5t-108 158t-36 203q0 91 26.5 185t92 181t176 162t279.5 129v9zM677 -188
h-181v179h181v-179zM969 -188h-181v179h181v-179zM1344 -25q-164 0 -258.5 102.5t-107.5 310.5q25 9 46.5 16t43 13t43.5 12t49 13q3 -52 15 -89t36 -60.5t62.5 -34.5t94.5 -11v-272h-24z" />
    <glyph glyph-name="uniFB80" unicode="&#x687;" horiz-adv-x="1197" arabic-form="initial" 
d="M816 527q-44 27 -85.5 46t-86.5 31t-95.5 17.5t-112.5 5.5q-72 0 -135 -8t-130 -26v252q72 20 136.5 31t139.5 11q79 0 140 -14t113 -36t99 -48t97 -51q25 -12 52 -21t59.5 -15t71.5 -10t88 -7l-49 -291q-50 -12 -109.5 -47.5t-131 -82t-157.5 -97.5t-189 -93.5
t-224.5 -70.5t-263.5 -28h-43q-35 0 -52.5 36.5t-17.5 99.5t17.5 99.5t52.5 36.5h52q117 0 221 23.5t198 62t179.5 87t165.5 99.5v8zM544 -592h-235v211h235v-211zM887 -592h-235v211h235v-211zM544 -312h-235v211h235v-211zM887 -312h-235v211h235v-211z" />
    <glyph glyph-name="uniFB81" unicode="&#x687;" horiz-adv-x="1197" arabic-form="medial" 
d="M816 527q-44 27 -85.5 46t-86.5 31t-95.5 17.5t-112.5 5.5q-72 0 -135 -8t-130 -26v252q72 20 136.5 31t139.5 11q79 0 140 -14t113 -36t99 -48t97 -51q25 -12 52 -21t59.5 -15t71.5 -10t88 -7l-49 -291q-39 -10 -84.5 -34.5t-97.5 -57.5q4 -19 12 -30t22.5 -16.5
t37.5 -7t58 -1.5h131v-272h-64q-89 0 -148 17.5t-96.5 49t-57.5 75.5t-30 98q-69 -43 -149.5 -85.5t-174 -77t-202 -56t-232.5 -21.5h-43q-35 0 -52.5 36.5t-17.5 99.5t17.5 99.5t52.5 36.5h52q117 0 221 23.5t198 62t179.5 87t165.5 99.5v8zM544 -592h-235v211h235v-211z
M887 -592h-235v211h235v-211zM544 -312h-235v211h235v-211zM887 -312h-235v211h235v-211z" />
    <glyph glyph-name="uniFB83" unicode="&#x68d;" horiz-adv-x="1026" arabic-form="final" 
d="M392 -29q-57 0 -134 6.5t-165 22.5l-54 275q112 -16 201 -24t161 -8q69 0 109.5 9.5t62 28t27.5 45.5t6 62q0 46 -15 119t-40 161.5t-58 186t-69 192.5h252q57 -168 95 -309.5t67 -270.5q9 -39 19 -78t29.5 -70.5t52.5 -51.5t87 -20v-272h-30q-31 0 -60.5 7t-56.5 22.5
t-50.5 41.5t-42.5 65h-5q-32 -41 -75 -67.5t-93.5 -43t-106.5 -23t-114 -6.5zM374 -371h-235v211h235v-211zM716 -371h-235v211h235v-211z" />
    <glyph glyph-name="uniFB85" unicode="&#x68c;" horiz-adv-x="1026" arabic-form="final" 
d="M392 -29q-57 0 -134 6.5t-165 22.5l-54 275q112 -16 201 -24t161 -8q69 0 109.5 9.5t62 28t27.5 45.5t6 62q0 46 -15 119t-40 161.5t-58 186t-69 192.5h252q57 -168 95 -309.5t67 -270.5q9 -39 19 -78t29.5 -70.5t52.5 -51.5t87 -20v-272h-30q-31 0 -60.5 7t-56.5 22.5
t-50.5 41.5t-42.5 65h-5q-32 -41 -75 -67.5t-93.5 -43t-106.5 -23t-114 -6.5zM428 1257h-235v211h235v-211zM770 1257h-235v211h235v-211z" />
    <glyph glyph-name="uniFB87" unicode="&#x68e;" horiz-adv-x="1026" arabic-form="final" 
d="M392 -29q-57 0 -134 6.5t-165 22.5l-54 275q112 -16 201 -24t161 -8q69 0 109.5 9.5t62 28t27.5 45.5t6 62q0 46 -15 119t-40 161.5t-58 186t-69 192.5h252q57 -168 95 -309.5t67 -270.5q9 -39 19 -78t29.5 -70.5t52.5 -51.5t87 -20v-272h-30q-31 0 -60.5 7t-56.5 22.5
t-50.5 41.5t-42.5 65h-5q-32 -41 -75 -67.5t-93.5 -43t-106.5 -23t-114 -6.5zM427 1257h-235v211h235v-211zM770 1257h-235v211h235v-211zM599 1537h-235v211h235v-211z" />
    <glyph glyph-name="uniFB89" unicode="&#x688;" horiz-adv-x="1026" arabic-form="final" 
d="M392 -29q-57 0 -134 6.5t-165 22.5l-54 275q112 -16 201 -24t161 -8q69 0 109.5 9.5t62 28t27.5 45.5t6 62q0 46 -15 119t-40 161.5t-58 186t-69 192.5h252q57 -168 95 -309.5t67 -270.5q9 -39 19 -78t29.5 -70.5t52.5 -51.5t87 -20v-272h-30q-31 0 -60.5 7t-56.5 22.5
t-50.5 41.5t-42.5 65h-5q-32 -41 -75 -67.5t-93.5 -43t-106.5 -23t-114 -6.5zM149 1400q33 -4 64 -5.5t62 -1.5v492h125v-314l4 -1q38 49 82.5 81t107.5 32q52 0 89.5 -20t61.5 -53.5t35.5 -76t11.5 -87.5q0 -66 -20.5 -102.5t-56.5 -53.5t-85 -20t-106 -3q-71 0 -125.5 1
t-97 2.5t-75.5 4t-61 5.5zM512 1390q46 0 77 1t49.5 6.5t26.5 17.5t8 33q0 54 -26.5 83.5t-63.5 29.5q-29 0 -55 -15t-49 -39t-42 -54.5t-34 -62.5h109z" />
    <glyph glyph-name="uniFB8B" unicode="&#x698;" horiz-adv-x="855" arabic-form="final" 
d="M0 -211q69 -20 115.5 -28.5t85.5 -8.5q81 0 132 28.5t80 76.5t39.5 111t10.5 133q0 67 -9 133.5t-27 138.5t-44.5 152t-60.5 175h236q35 -88 60.5 -178.5t41.5 -179.5q4 -20 13.5 -37t31 -30t57.5 -20.5t93 -7.5v-272h-26q-29 0 -50 4t-37.5 11t-29 17.5t-24.5 24.5
l-5 -1q-7 -145 -47.5 -249.5t-105 -172.5t-148 -100.5t-174.5 -32.5q-48 0 -96.5 9.5t-111.5 32.5v271zM356 915h-235v211h235v-211zM699 915h-235v211h235v-211zM528 1195h-235v211h235v-211z" />
    <glyph glyph-name="uniFB8D" unicode="&#x691;" horiz-adv-x="855" arabic-form="final" 
d="M0 -211q69 -20 115.5 -28.5t85.5 -8.5q81 0 132 28.5t80 76.5t39.5 111t10.5 133q0 67 -9 133.5t-27 138.5t-44.5 152t-60.5 175h236q35 -88 60.5 -178.5t41.5 -179.5q4 -20 13.5 -37t31 -30t57.5 -20.5t93 -7.5v-272h-26q-29 0 -50 4t-37.5 11t-29 17.5t-24.5 24.5
l-5 -1q-7 -145 -47.5 -249.5t-105 -172.5t-148 -100.5t-174.5 -32.5q-48 0 -96.5 9.5t-111.5 32.5v271zM78 1058q33 -4 64 -5.5t62 -1.5v492h125v-314l4 -1q38 49 82.5 81t107.5 32q52 0 89.5 -20t61.5 -53.5t35.5 -76t11.5 -87.5q0 -66 -20.5 -102.5t-56.5 -53.5t-85 -20
t-106 -3q-71 0 -125.5 1t-97 2.5t-75.5 4t-61 5.5zM441 1048q46 0 77 1t49.5 6.5t26.5 17.5t8 33q0 54 -26.5 83.5t-63.5 29.5q-29 0 -55 -15t-49 -39t-42 -54.5t-34 -62.5h109z" />
    <glyph glyph-name="uniFB8F" unicode="&#x6a9;" horiz-adv-x="1881" arabic-form="final" 
d="M855 1094l881 557v-287l-609 -372q112 -56 207 -116.5t166.5 -129.5t116.5 -147.5t57 -170.5q4 -29 11 -54.5t24 -51.5q9 -14 22.5 -27.5t33.5 -24t48.5 -17t67.5 -6.5v-272h-22q-36 0 -73.5 8t-72 26t-64.5 46.5t-52 68.5h-6q-47 -56 -112.5 -87.5t-155.5 -47t-207 -19
t-268 -3.5q-89 0 -175.5 2.5t-164 13t-143.5 31.5t-114 59q-36 28 -60.5 65t-39.5 79t-21.5 88t-6.5 93q0 66 10.5 134.5t27.5 131.5h214q-8 -37 -14.5 -66.5t-10.5 -55t-6 -49.5t-2 -49q0 -78 33 -120.5t107 -62t194 -22.5t293 -3q117 0 215.5 3.5t165.5 21.5
q41 11 64 24.5t33.5 27.5t12.5 27.5t2 24.5q0 105 -151 226t-456 267v236z" />
    <glyph glyph-name="uniFB90" unicode="&#x6a9;" horiz-adv-x="1026" arabic-form="initial" 
d="M0 1094l881 557v-287l-609 -372q120 -60 220.5 -125.5t174 -141t114.5 -163t41 -190.5q0 -44 -8 -90t-29 -90t-58.5 -83.5t-96.5 -69t-142.5 -47t-196.5 -17.5h-291q-35 0 -52.5 36.5t-17.5 99.5t17.5 99.5t52.5 36.5h294q91 0 151 4t96 16.5t51 35t15 59.5
q0 109 -151 229t-456 267v236z" />
    <glyph glyph-name="uniFB91" unicode="&#x6a9;" horiz-adv-x="1026" arabic-form="medial" 
d="M0 1094l881 557v-287l-609 -372q111 -56 206.5 -116.5t167.5 -129.5t117 -147.5t56 -170.5q4 -29 11 -54.5t24 -51.5q9 -14 22.5 -27.5t33.5 -24t48.5 -17t67.5 -6.5v-272h-22q-36 0 -73.5 8t-72 26t-64.5 46.5t-52 68.5h-6q-25 -32 -64 -59.5t-93.5 -47.5t-126 -31
t-161.5 -11h-291q-35 0 -52.5 36.5t-17.5 99.5t17.5 99.5t52.5 36.5h294q91 0 151 4t96 16.5t51 35t15 59.5q0 109 -151 229t-456 267v236z" />
    <glyph glyph-name="uniFB93" unicode="&#x6af;" horiz-adv-x="1881" arabic-form="final" 
d="M855 1094l881 557v-287l-609 -372q112 -56 207 -116.5t166.5 -129.5t116.5 -147.5t57 -170.5q4 -29 11 -54.5t24 -51.5q9 -14 22.5 -27.5t33.5 -24t48.5 -17t67.5 -6.5v-272h-22q-36 0 -73.5 8t-72 26t-64.5 46.5t-52 68.5h-6q-47 -56 -112.5 -87.5t-155.5 -47t-207 -19
t-268 -3.5q-89 0 -175.5 2.5t-164 13t-143.5 31.5t-114 59q-36 28 -60.5 65t-39.5 79t-21.5 88t-6.5 93q0 66 10.5 134.5t27.5 131.5h214q-8 -37 -14.5 -66.5t-10.5 -55t-6 -49.5t-2 -49q0 -78 33 -120.5t107 -62t194 -22.5t293 -3q117 0 215.5 3.5t165.5 21.5
q41 11 64 24.5t33.5 27.5t12.5 27.5t2 24.5q0 105 -151 226t-456 267v236zM855 1404l880 557v-178l-880 -557v178z" />
    <glyph glyph-name="uniFB94" unicode="&#x6af;" horiz-adv-x="1026" arabic-form="initial" 
d="M0 1094l881 557v-287l-609 -372q120 -60 220.5 -125.5t174 -141t114.5 -163t41 -190.5q0 -44 -8 -90t-29 -90t-58.5 -83.5t-96.5 -69t-142.5 -47t-196.5 -17.5h-291q-35 0 -52.5 36.5t-17.5 99.5t17.5 99.5t52.5 36.5h294q91 0 151 4t96 16.5t51 35t15 59.5
q0 109 -151 229t-456 267v236zM0 1404l880 557v-178l-880 -557v178z" />
    <glyph glyph-name="uniFB95" unicode="&#x6af;" horiz-adv-x="1026" arabic-form="medial" 
d="M0 1094l881 557v-287l-609 -372q111 -56 206.5 -116.5t167.5 -129.5t117 -147.5t56 -170.5q4 -29 11 -54.5t24 -51.5q9 -14 22.5 -27.5t33.5 -24t48.5 -17t67.5 -6.5v-272h-22q-36 0 -73.5 8t-72 26t-64.5 46.5t-52 68.5h-6q-25 -32 -64 -59.5t-93.5 -47.5t-126 -31
t-161.5 -11h-291q-35 0 -52.5 36.5t-17.5 99.5t17.5 99.5t52.5 36.5h294q91 0 151 4t96 16.5t51 35t15 59.5q0 109 -151 229t-456 267v236zM0 1404l880 557v-178l-880 -557v178z" />
    <glyph glyph-name="uniFB97" unicode="&#x6b3;" horiz-adv-x="1881" arabic-form="final" 
d="M855 1094l881 557v-287l-609 -372q112 -56 207 -116.5t166.5 -129.5t116.5 -147.5t57 -170.5q4 -29 11 -54.5t24 -51.5q9 -14 22.5 -27.5t33.5 -24t48.5 -17t67.5 -6.5v-272h-22q-36 0 -73.5 8t-72 26t-64.5 46.5t-52 68.5h-6q-47 -56 -112.5 -87.5t-155.5 -47t-207 -19
t-268 -3.5q-89 0 -175.5 2.5t-164 13t-143.5 31.5t-114 59q-36 28 -60.5 65t-39.5 79t-21.5 88t-6.5 93q0 66 10.5 134.5t27.5 131.5h214q-8 -37 -14.5 -66.5t-10.5 -55t-6 -49.5t-2 -49q0 -78 33 -120.5t107 -62t194 -22.5t293 -3q117 0 215.5 3.5t165.5 21.5
q41 11 64 24.5t33.5 27.5t12.5 27.5t2 24.5q0 105 -151 226t-456 267v236zM1059 -592h-235v211h235v-211zM1059 -312h-235v211h235v-211zM855 1404l880 557v-178l-880 -557v178z" />
    <glyph glyph-name="uniFB98" unicode="&#x6b3;" horiz-adv-x="1026" arabic-form="initial" 
d="M0 1094l881 557v-287l-609 -372q120 -60 220.5 -125.5t174 -141t114.5 -163t41 -190.5q0 -44 -8 -90t-29 -90t-58.5 -83.5t-96.5 -69t-142.5 -47t-196.5 -17.5h-291q-35 0 -52.5 36.5t-17.5 99.5t17.5 99.5t52.5 36.5h294q91 0 151 4t96 16.5t51 35t15 59.5
q0 109 -151 229t-456 267v236zM545 -592h-235v211h235v-211zM545 -312h-235v211h235v-211zM0 1404l880 557v-178l-880 -557v178z" />
    <glyph glyph-name="uniFB99" unicode="&#x6b3;" horiz-adv-x="1026" arabic-form="medial" 
d="M0 1094l881 557v-287l-609 -372q111 -56 206.5 -116.5t167.5 -129.5t117 -147.5t56 -170.5q4 -29 11 -54.5t24 -51.5q9 -14 22.5 -27.5t33.5 -24t48.5 -17t67.5 -6.5v-272h-22q-36 0 -73.5 8t-72 26t-64.5 46.5t-52 68.5h-6q-25 -32 -64 -59.5t-93.5 -47.5t-126 -31
t-161.5 -11h-291q-35 0 -52.5 36.5t-17.5 99.5t17.5 99.5t52.5 36.5h294q91 0 151 4t96 16.5t51 35t15 59.5q0 109 -151 229t-456 267v236zM545 -592h-235v211h235v-211zM545 -312h-235v211h235v-211zM0 1404l880 557v-178l-880 -557v178z" />
    <glyph glyph-name="uniFB9B" unicode="&#x6b1;" horiz-adv-x="1881" arabic-form="final" 
d="M855 1094l881 557v-287l-609 -372q112 -56 207 -116.5t166.5 -129.5t116.5 -147.5t57 -170.5q4 -29 11 -54.5t24 -51.5q9 -14 22.5 -27.5t33.5 -24t48.5 -17t67.5 -6.5v-272h-22q-36 0 -73.5 8t-72 26t-64.5 46.5t-52 68.5h-6q-47 -56 -112.5 -87.5t-155.5 -47t-207 -19
t-268 -3.5q-89 0 -175.5 2.5t-164 13t-143.5 31.5t-114 59q-36 28 -60.5 65t-39.5 79t-21.5 88t-6.5 93q0 66 10.5 134.5t27.5 131.5h214q-8 -37 -14.5 -66.5t-10.5 -55t-6 -49.5t-2 -49q0 -78 33 -120.5t107 -62t194 -22.5t293 -3q117 0 215.5 3.5t165.5 21.5
q41 11 64 24.5t33.5 27.5t12.5 27.5t2 24.5q0 105 -151 226t-456 267v236zM855 1404l880 557v-178l-880 -557v178zM1090 1811h-235v211h235v-211zM1432 1811h-235v211h235v-211z" />
    <glyph glyph-name="uniFB9C" unicode="&#x6b1;" horiz-adv-x="1026" arabic-form="initial" 
d="M0 1094l881 557v-287l-609 -372q120 -60 220.5 -125.5t174 -141t114.5 -163t41 -190.5q0 -44 -8 -90t-29 -90t-58.5 -83.5t-96.5 -69t-142.5 -47t-196.5 -17.5h-291q-35 0 -52.5 36.5t-17.5 99.5t17.5 99.5t52.5 36.5h294q91 0 151 4t96 16.5t51 35t15 59.5
q0 109 -151 229t-456 267v236zM0 1404l880 557v-178l-880 -557v178zM235 1811h-235v211h235v-211zM577 1811h-235v211h235v-211z" />
    <glyph glyph-name="uniFB9D" unicode="&#x6b1;" horiz-adv-x="1026" arabic-form="medial" 
d="M0 1094l881 557v-287l-609 -372q111 -56 206.5 -116.5t167.5 -129.5t117 -147.5t56 -170.5q4 -29 11 -54.5t24 -51.5q9 -14 22.5 -27.5t33.5 -24t48.5 -17t67.5 -6.5v-272h-22q-36 0 -73.5 8t-72 26t-64.5 46.5t-52 68.5h-6q-25 -32 -64 -59.5t-93.5 -47.5t-126 -31
t-161.5 -11h-291q-35 0 -52.5 36.5t-17.5 99.5t17.5 99.5t52.5 36.5h294q91 0 151 4t96 16.5t51 35t15 59.5q0 109 -151 229t-456 267v236zM0 1404l880 557v-178l-880 -557v178zM235 1811h-235v211h235v-211zM577 1811h-235v211h235v-211z" />
    <glyph glyph-name="uniFB9F" unicode="&#x6ba;" horiz-adv-x="1368" arabic-form="final" 
d="M1156 544q12 -67 18.5 -116t11.5 -94q2 -15 9.5 -30.5t27 -28t54 -20.5t91.5 -8v-272h-32q-28 0 -49 3.5t-37 10.5t-28.5 16t-24.5 20l-8 -3q-11 -132 -48 -234t-105 -171.5t-170 -105t-243 -35.5q-134 0 -228 35t-153.5 104t-86.5 171t-27 236q0 34 2 70.5t6.5 76.5
t12 85.5t17.5 98.5h209q-10 -62 -16.5 -109t-10 -83.5t-5 -65t-1.5 -54.5q0 -74 13 -129t46 -91t89.5 -53.5t143.5 -17.5q101 0 167.5 23.5t105.5 73.5t55 128.5t16 188.5q0 33 -1.5 70t-6 82t-13 101t-21.5 127h220z" />
    <glyph glyph-name="uniFBA1" unicode="&#x6bb;" horiz-adv-x="1368" arabic-form="final" 
d="M1156 544q12 -67 18.5 -116t11.5 -94q2 -15 9.5 -30.5t27 -28t54 -20.5t91.5 -8v-272h-32q-28 0 -49 3.5t-37 10.5t-28.5 16t-24.5 20l-8 -3q-11 -132 -48 -234t-105 -171.5t-170 -105t-243 -35.5q-134 0 -228 35t-153.5 104t-86.5 171t-27 236q0 34 2 70.5t6.5 76.5
t12 85.5t17.5 98.5h209q-10 -62 -16.5 -109t-10 -83.5t-5 -65t-1.5 -54.5q0 -74 13 -129t46 -91t89.5 -53.5t143.5 -17.5q101 0 167.5 23.5t105.5 73.5t55 128.5t16 188.5q0 33 -1.5 70t-6 82t-13 101t-21.5 127h220zM339 857q33 -4 64 -5.5t62 -1.5v492h125v-314l4 -1
q38 49 82.5 81t107.5 32q52 0 89.5 -20t61.5 -53.5t35.5 -76t11.5 -87.5q0 -66 -20.5 -102.5t-56.5 -53.5t-85 -20t-106 -3q-71 0 -125.5 1t-97 2.5t-75.5 4t-61 5.5zM702 847q46 0 77 1t49.5 6.5t26.5 17.5t8 33q0 54 -26.5 83.5t-63.5 29.5q-29 0 -55 -15t-49 -39
t-42 -54.5t-34 -62.5h109z" />
    <glyph glyph-name="uniFBA2" unicode="&#x6bb;" horiz-adv-x="684" arabic-form="initial" 
d="M132 -25h-132q-35 0 -52.5 36.5t-17.5 99.5t17.5 99.5t52.5 36.5h142q40 0 70 3t49.5 16t29 39.5t9.5 74.5v475h213v-482q0 -122 -31.5 -199.5t-84 -121.5t-121.5 -60.5t-144 -16.5zM38 1149q33 -4 64 -5.5t62 -1.5v492h125v-314l4 -1q38 49 82.5 81t107.5 32
q52 0 89.5 -20t61.5 -53.5t35.5 -76t11.5 -87.5q0 -66 -20.5 -102.5t-56.5 -53.5t-85 -20t-106 -3q-71 0 -125.5 1t-97 2.5t-75.5 4t-61 5.5zM401 1139q46 0 77 1t49.5 6.5t26.5 17.5t8 33q0 54 -26.5 83.5t-63.5 29.5q-29 0 -55 -15t-49 -39t-42 -54.5t-34 -62.5h109z" />
    <glyph glyph-name="uniFBA3" unicode="&#x6bb;" horiz-adv-x="684" arabic-form="medial" 
d="M132 -25h-132q-35 0 -52.5 36.5t-17.5 99.5t17.5 99.5t52.5 36.5h142q43 0 73 3.5t49 16.5t27.5 39.5t8.5 73.5v475h213v-406q0 -52 3 -90t19.5 -63t51 -37t97.5 -12v-272h-46q-87 0 -149 27.5t-91 87.5h-6q-26 -35 -58 -57t-66.5 -35t-69.5 -18t-66 -5zM38 1149
q33 -4 64 -5.5t62 -1.5v492h125v-314l4 -1q38 49 82.5 81t107.5 32q52 0 89.5 -20t61.5 -53.5t35.5 -76t11.5 -87.5q0 -66 -20.5 -102.5t-56.5 -53.5t-85 -20t-106 -3q-71 0 -125.5 1t-97 2.5t-75.5 4t-61 5.5zM401 1139q46 0 77 1t49.5 6.5t26.5 17.5t8 33q0 54 -26.5 83.5
t-63.5 29.5q-29 0 -55 -15t-49 -39t-42 -54.5t-34 -62.5h109z" />
    <glyph glyph-name="uniFBA5" unicode="&#x6c0;" horiz-adv-x="1026" arabic-form="final" 
d="M979 -25q-50 0 -96.5 9t-86.5 30.5t-72.5 59t-54.5 94.5q-39 -9 -77.5 -14t-76.5 -5q-77 0 -146 21t-121 63t-82.5 105.5t-30.5 149.5q0 100 41.5 180t111 140t161 99t192.5 57v123h213v-660q0 -46 4 -80t21.5 -56t52 -33t94.5 -11v-272h-47zM641 705q-61 -12 -115 -28
t-95 -39t-65 -54t-24 -73q0 -33 14.5 -53t38.5 -31.5t55 -15t64 -3.5t64 3.5t63 11.5v282zM706 1522q-23 5 -43.5 8t-32.5 3q-37 0 -61.5 -15.5t-24.5 -53.5t28 -57t80 -19h100v-115h-377v109h80l1 4q-20 26 -30.5 50.5t-10.5 51.5q0 36 15 65.5t42.5 51.5t66 34t85.5 12
q34 0 82 -9v-120z" />
    <glyph glyph-name="uniFBA7" unicode="&#x6c1;" horiz-adv-x="1026" arabic-form="final" 
d="M1000 -25q-69 0 -125.5 20.5t-104.5 52t-89.5 67.5t-80.5 67.5t-77.5 52t-80.5 20.5q-36 0 -66.5 -13t-53.5 -45t-36 -87.5t-13 -140.5q0 -14 0.5 -29.5t1.5 -31.5h-196q-6 61 -6 116q0 139 34 235.5t88 155.5t120 85.5t131 26.5t120 -20.5t103 -52t91.5 -67.5t86 -67.5
t86.5 -52t93 -20.5v-272h-26z" />
    <glyph glyph-name="uniFBA8" unicode="&#x6c1;" horiz-adv-x="684" arabic-form="initial" 
d="M132 -25h-132q-35 0 -52.5 36.5t-17.5 99.5t17.5 99.5t52.5 36.5h142q40 0 70 3t49.5 16t29 39.5t9.5 74.5v475h213v-482q0 -122 -31.5 -199.5t-84 -121.5t-121.5 -60.5t-144 -16.5zM360 -86q-54 -24 -84 -63t-30 -95q0 -3 0.5 -10t2.5 -14q12 3 25.5 4.5t24.5 1.5
q31 0 54.5 -10t39.5 -27t23.5 -38.5t7.5 -43.5q0 -24 -9 -48t-27 -43t-44.5 -30.5t-62.5 -11.5q-44 0 -76.5 17.5t-53.5 47t-31.5 68.5t-10.5 83q0 90 48.5 166.5t158.5 129.5z" />
    <glyph glyph-name="uniFBA9" unicode="&#x6c1;" horiz-adv-x="1026" arabic-form="medial" 
d="M215 -6q-21 -6 -54.5 -12.5t-93.5 -6.5h-67q-35 0 -52.5 36.5t-17.5 99.5t17.5 99.5t52.5 36.5h152q32 0 50 1.5t29.5 9.5t19.5 25.5t20 50.5q26 72 53.5 138t56.5 135h232q-64 -137 -101.5 -236t-57 -170.5t-25 -121t-5.5 -87.5q0 -52 10 -86t27 -55.5t39.5 -32.5
t48.5 -16q13 102 50.5 184t98 140t143 89.5t185.5 31.5v-272q-87 0 -150 -24.5t-104.5 -77t-61.5 -134t-20 -195.5q0 -17 0.5 -34t1.5 -34q-249 34 -363.5 138.5t-114.5 288.5q0 41 6 88z" />
    <glyph glyph-name="uniFBAB" unicode="&#x6be;" horiz-adv-x="1368" arabic-form="final" 
d="M488 247q23 132 58 235.5t75.5 181.5t84.5 132t87 88t82 49t69 15q51 0 97.5 -39t81.5 -101.5t55.5 -140t20.5 -154.5q0 -78 -23.5 -147.5t-77.5 -114.5l1 -4h270v-272h-250l-2 -4q42 -48 60.5 -100t18.5 -104q0 -58 -22 -112t-61 -95t-93.5 -66t-118.5 -25
q-37 0 -80.5 9.5t-87.5 32.5t-87 61t-78 94t-59.5 132.5t-33.5 176.5q-80 0 -138 2t-101 5.5t-73 8.5t-55 11l-53 275q58 -8 108 -13.5t100 -9.5t104 -5.5t121 -1.5zM905 674q-18 0 -46.5 -27.5t-59 -81.5t-58 -133.5t-43.5 -184.5h97q48 0 84 23.5t60 59.5t36 78t12 80
q0 32 -7.5 65t-19 60t-26 44t-29.5 17zM778 -25h-94q10 -56 30.5 -100.5t48.5 -75.5t62 -47t72 -16q46 0 68.5 22t22.5 52q0 25 -15.5 54t-43.5 53.5t-66.5 41t-84.5 16.5z" />
    <glyph glyph-name="uniFBAC" unicode="&#x6be;" horiz-adv-x="1368" arabic-form="initial" 
d="M353 893l-36 22v306q207 -113 370.5 -236.5t276.5 -245.5t173 -236.5t60 -209.5q0 -68 -11.5 -126.5t-31 -101t-45.5 -66.5t-54 -24q-53 0 -112.5 5t-121.5 16.5t-124.5 29t-120.5 42.5q-44 -30 -96 -48.5t-107.5 -28.5t-112.5 -13t-112 -3h-148q-39 0 -68.5 34.5
t-29.5 101.5q0 69 29.5 102.5t68.5 33.5q60 0 135 -4t154 -6l2 5q-39 19 -67.5 48t-46.5 64.5t-27 75.5t-9 82q0 55 13.5 108.5t40 101.5t66 89.5t90.5 73.5zM782 547q1 -10 1.5 -20t0.5 -20q0 -61 -10 -122t-36 -115q55 -17 114 -26t117 -13q5 12 6.5 20.5t1.5 16.5
q0 33 -15 68t-40.5 70.5t-59.5 71.5t-73 72zM489 697q-27 0 -52.5 -19t-45 -46t-31 -56t-11.5 -50q0 -16 4 -36.5t23 -45t59 -53t112 -60.5q37 62 45.5 109.5t8.5 83.5q0 28 -9 58.5t-24.5 56t-36 42t-42.5 16.5z" />
    <glyph glyph-name="uniFBAD" unicode="&#x6be;" horiz-adv-x="1026" arabic-form="medial" 
d="M146 247q23 132 58 235.5t75.5 181.5t84.5 132t87 88t82 49t69 15q51 0 97.5 -39t81.5 -101.5t55.5 -140t20.5 -154.5q0 -78 -23.5 -147.5t-77.5 -114.5l1 -4h270v-272h-250l-2 -4q42 -48 60.5 -100t18.5 -104q0 -58 -22 -112t-61 -95t-93.5 -66t-118.5 -25
q-37 0 -80.5 9.5t-87.5 32.5t-87 61t-78 94t-59.5 132.5t-33.5 176.5h-133q-35 0 -52.5 36.5t-17.5 99.5t17.5 99.5t52.5 36.5h146zM563 674q-18 0 -46.5 -27.5t-59 -81.5t-58 -133.5t-43.5 -184.5h97q48 0 84 23.5t60 59.5t36 78t12 80q0 32 -7.5 65t-19 60t-26 44
t-29.5 17zM436 -25h-94q10 -56 30.5 -100.5t48.5 -75.5t62 -47t72 -16q46 0 68.5 22t22.5 52q0 25 -15.5 54t-43.5 53.5t-66.5 41t-84.5 16.5z" />
    <glyph glyph-name="uniFBAF" unicode="&#x6d2;" horiz-adv-x="684" arabic-form="final" 
d="M1765 -437q-123 -12 -249 -20.5t-245 -14t-225 -8.5t-188 -3q-212 0 -357.5 21.5t-235.5 65.5t-129.5 110.5t-39.5 156.5q0 81 30.5 141t80 101.5t112 67.5t126.5 41t122.5 20t101.5 5h15v-272h-20q-64 0 -128 -2t-115 -11t-82.5 -27t-31.5 -49t30 -50t97 -30t175 -15
t265 -4q118 0 236.5 3.5t232 9.5t220 14.5t202.5 17.5v-269z" />
    <glyph glyph-name="uniFBB1" unicode="&#x6d3;" horiz-adv-x="684" arabic-form="final" 
d="M1765 -437q-123 -12 -249 -20.5t-245 -14t-225 -8.5t-188 -3q-212 0 -357.5 21.5t-235.5 65.5t-129.5 110.5t-39.5 156.5q0 81 30.5 141t80 101.5t112 67.5t126.5 41t122.5 20t101.5 5h15v-272h-20q-64 0 -128 -2t-115 -11t-82.5 -27t-31.5 -49t30 -50t97 -30t175 -15
t265 -4q118 0 236.5 3.5t232 9.5t220 14.5t202.5 17.5v-269zM559 780q-23 5 -43.5 8t-32.5 3q-37 0 -61.5 -15.5t-24.5 -53.5t28 -57t80 -19h100v-115h-377v109h80l1 4q-20 26 -30.5 50.5t-10.5 51.5q0 36 15 65.5t42.5 51.5t66 34t85.5 12q34 0 82 -9v-120z" />
    <glyph glyph-name="uniFBD4" unicode="&#x6ad;" horiz-adv-x="1710" arabic-form="final" 
d="M684 715q175 11 175 61q0 9 -11.5 16t-28 15t-36.5 18.5t-36.5 26t-28 37.5t-11.5 53q0 41 25.5 74t69 58.5t101 42.5t122.5 26v-129q-91 -12 -132 -29.5t-41 -40.5q0 -10 11.5 -17t28 -15t36.5 -17.5t36.5 -24.5t28 -35.5t11.5 -50.5q0 -33 -19.5 -66.5t-59 -61
t-100 -46.5t-141.5 -23v128zM1539 449q0 -52 3 -90t19.5 -63t51 -37t97.5 -12v-272h-46q-85 0 -144.5 29.5t-88.5 89.5h-6q-43 -45 -103 -70t-132 -38t-155 -16t-173 -3q-93 0 -182.5 2.5t-169 12.5t-146.5 31t-114 59q-36 28 -60 65.5t-39 79.5t-21.5 87t-6.5 90
q0 70 10.5 137t27.5 133h214q-8 -37 -14 -66.5t-10.5 -55t-6.5 -49.5t-2 -49q0 -43 10.5 -79t48.5 -65q26 -20 64.5 -33t96.5 -20t138 -9.5t190 -2.5q132 0 216.5 3.5t133 19t67.5 47.5t19 89v1122h213v-1067zM829 1519h-235v211h235v-211zM1172 1519h-235v211h235v-211z
M1001 1799h-235v211h235v-211z" />
    <glyph glyph-name="uniFBD5" unicode="&#x6ad;" horiz-adv-x="1026" arabic-form="initial" 
d="M0 1094l881 557v-287l-609 -372q120 -60 220.5 -125.5t174 -141t114.5 -163t41 -190.5q0 -44 -8 -90t-29 -90t-58.5 -83.5t-96.5 -69t-142.5 -47t-196.5 -17.5h-291q-35 0 -52.5 36.5t-17.5 99.5t17.5 99.5t52.5 36.5h294q91 0 151 4t96 16.5t51 35t15 59.5
q0 109 -151 229t-456 267v236zM202 1519h-235v211h235v-211zM545 1519h-235v211h235v-211zM374 1799h-235v211h235v-211z" />
    <glyph glyph-name="uniFBD6" unicode="&#x6ad;" horiz-adv-x="1026" arabic-form="medial" 
d="M0 1094l881 557v-287l-609 -372q111 -56 206.5 -116.5t167.5 -129.5t117 -147.5t56 -170.5q4 -29 11 -54.5t24 -51.5q9 -14 22.5 -27.5t33.5 -24t48.5 -17t67.5 -6.5v-272h-22q-36 0 -73.5 8t-72 26t-64.5 46.5t-52 68.5h-6q-25 -32 -64 -59.5t-93.5 -47.5t-126 -31
t-161.5 -11h-291q-35 0 -52.5 36.5t-17.5 99.5t17.5 99.5t52.5 36.5h294q91 0 151 4t96 16.5t51 35t15 59.5q0 109 -151 229t-456 267v236zM202 1519h-235v211h235v-211zM545 1519h-235v211h235v-211zM374 1799h-235v211h235v-211z" />
    <glyph glyph-name="uniFBD8" unicode="&#x6c7;" horiz-adv-x="1026" arabic-form="final" 
d="M0 -174q55 -21 102.5 -35t89.5 -23t80 -12.5t75 -3.5q69 0 117.5 16t81 42t51 59t27.5 67q2 7 4.5 19.5t4.5 24.5h-90q-199 0 -304 91.5t-105 263.5q0 81 27.5 162.5t74 146t109 105t131.5 40.5q78 0 141 -44t121 -138q45 -72 72.5 -163t38.5 -197h177v-272h-180
q-13 -108 -50 -199.5t-98.5 -158t-148.5 -104t-200 -37.5q-42 0 -83 4t-83.5 13.5t-87.5 24t-95 35.5v273zM617 319q-12 36 -28 70.5t-35 61.5t-41 43.5t-45 16.5q-26 0 -49 -17.5t-40 -42t-27 -52t-10 -48.5q0 -66 47 -88t140 -22h106q-4 18 -8 39t-10 39zM543 999
q-31 23 -54 41.5t-37 32.5q-9 -2 -20.5 -3t-22 -1.5t-19 -0.5h-10.5q-66 0 -120 7.5t-116 24.5l22 102q58 -15 106.5 -23.5t97.5 -9.5q-23 32 -34 63.5t-11 61.5q0 40 16.5 71t43.5 52.5t61.5 32.5t70.5 11q34 0 66.5 -10.5t58 -31.5t41 -53.5t15.5 -75.5q0 -63 -32 -107
t-92 -72q4 -5 10 -10.5t28 -21.5zM575 1289q0 35 -19 50.5t-42 15.5q-24 0 -44.5 -15.5t-20.5 -47.5q0 -25 13 -51t35 -51q35 14 56.5 38t21.5 61z" />
    <glyph glyph-name="uniFBDA" unicode="&#x6c6;" horiz-adv-x="1026" arabic-form="final" 
d="M0 -174q55 -21 102.5 -35t89.5 -23t80 -12.5t75 -3.5q69 0 117.5 16t81 42t51 59t27.5 67q2 7 4.5 19.5t4.5 24.5h-90q-199 0 -304 91.5t-105 263.5q0 81 27.5 162.5t74 146t109 105t131.5 40.5q78 0 141 -44t121 -138q45 -72 72.5 -163t38.5 -197h177v-272h-180
q-13 -108 -50 -199.5t-98.5 -158t-148.5 -104t-200 -37.5q-42 0 -83 4t-83.5 13.5t-87.5 24t-95 35.5v273zM617 319q-12 36 -28 70.5t-35 61.5t-41 43.5t-45 16.5q-26 0 -49 -17.5t-40 -42t-27 -52t-10 -48.5q0 -66 47 -88t140 -22h106q-4 18 -8 39t-10 39zM625 1412h174
l-239 -365h-144l-245 365h179l139 -206z" />
    <glyph glyph-name="uniFBDC" unicode="&#x6c8;" horiz-adv-x="1026" arabic-form="final" 
d="M0 -174q55 -21 102.5 -35t89.5 -23t80 -12.5t75 -3.5q69 0 117.5 16t81 42t51 59t27.5 67q2 7 4.5 19.5t4.5 24.5h-90q-199 0 -304 91.5t-105 263.5q0 81 27.5 162.5t74 146t109 105t131.5 40.5q78 0 141 -44t121 -138q45 -72 72.5 -163t38.5 -197h177v-272h-180
q-13 -108 -50 -199.5t-98.5 -158t-148.5 -104t-200 -37.5q-42 0 -83 4t-83.5 13.5t-87.5 24t-95 35.5v273zM617 319q-12 36 -28 70.5t-35 61.5t-41 43.5t-45 16.5q-26 0 -49 -17.5t-40 -42t-27 -52t-10 -48.5q0 -66 47 -88t140 -22h106q-4 18 -8 39t-10 39zM566 1045h-163
v404h163v-404z" />
    <glyph glyph-name="uniFBDF" unicode="&#x6cb;" horiz-adv-x="1026" arabic-form="final" 
d="M0 -174q55 -21 102.5 -35t89.5 -23t80 -12.5t75 -3.5q69 0 117.5 16t81 42t51 59t27.5 67q2 7 4.5 19.5t4.5 24.5h-90q-199 0 -304 91.5t-105 263.5q0 81 27.5 162.5t74 146t109 105t131.5 40.5q78 0 141 -44t121 -138q45 -72 72.5 -163t38.5 -197h177v-272h-180
q-13 -108 -50 -199.5t-98.5 -158t-148.5 -104t-200 -37.5q-42 0 -83 4t-83.5 13.5t-87.5 24t-95 35.5v273zM617 319q-12 36 -28 70.5t-35 61.5t-41 43.5t-45 16.5q-26 0 -49 -17.5t-40 -42t-27 -52t-10 -48.5q0 -66 47 -88t140 -22h106q-4 18 -8 39t-10 39zM415 1029h-235
v211h235v-211zM758 1029h-235v211h235v-211zM587 1309h-235v211h235v-211z" />
    <glyph glyph-name="uniFBE1" unicode="&#x6c5;" horiz-adv-x="1026" arabic-form="final" 
d="M-23 -191q58 -23 107.5 -38t93 -23.5t83 -12t77.5 -3.5q94 0 152.5 21.5t92.5 75.5h-412v117h456q5 20 7.5 42.5t4.5 46.5q-35 -13 -71 -17.5t-73 -4.5q-63 0 -127.5 15.5t-116 53.5t-84.5 101t-33 158q0 80 27 160t73.5 144t108.5 104t133 40q78 0 140.5 -44.5
t120.5 -135.5q47 -74 74.5 -165t37.5 -197h177v-272h-181q-15 -107 -52.5 -198.5t-99.5 -158.5t-150.5 -104.5t-204.5 -37.5q-44 0 -86 4t-85.5 13.5t-90.5 25t-99 37.5v253zM468 511q-28 0 -51 -17t-39.5 -41.5t-26 -51.5t-9.5 -47q0 -30 13.5 -50.5t36.5 -33t53.5 -17.5
t63.5 -5q31 0 64 5t60 16q-8 36 -23.5 78t-37 78.5t-48 61t-56.5 24.5z" />
    <glyph glyph-name="uniFBE3" unicode="&#x6c9;" horiz-adv-x="1026" arabic-form="final" 
d="M0 -174q55 -21 102.5 -35t89.5 -23t80 -12.5t75 -3.5q69 0 117.5 16t81 42t51 59t27.5 67q2 7 4.5 19.5t4.5 24.5h-90q-199 0 -304 91.5t-105 263.5q0 81 27.5 162.5t74 146t109 105t131.5 40.5q78 0 141 -44t121 -138q45 -72 72.5 -163t38.5 -197h177v-272h-180
q-13 -108 -50 -199.5t-98.5 -158t-148.5 -104t-200 -37.5q-42 0 -83 4t-83.5 13.5t-87.5 24t-95 35.5v273zM617 319q-12 36 -28 70.5t-35 61.5t-41 43.5t-45 16.5q-26 0 -49 -17.5t-40 -42t-27 -52t-10 -48.5q0 -66 47 -88t140 -22h106q-4 18 -8 39t-10 39zM345 1047h-174
l239 365h144l245 -365h-179l-139 206z" />
    </font>
</defs>
</svg>
